<svg xmlns="http://www.w3.org/2000/svg" width="900" height="900"><path d="M303.604 80.724c4.32.002 8.64-.007 12.96-.014 8.417-.013 16.835-.015 25.252-.012 6.861.001 13.722 0 20.583-.005l2.986-.001 6.008-.004c18.693-.01 37.385-.009 56.077-.003 16.992.006 33.984-.006 50.977-.025 17.562-.02 35.125-.027 52.688-.024 9.814.002 19.627 0 29.441-.014C666.503 80.477 666.503 80.477 696 88l2.558.652C726.813 96.093 749.867 109.893 771 130l2.11 1.914c34.896 32.734 44.553 82.925 46.062 128.634.276 10.531.243 21.067.22 31.601-.007 4.671.004 9.342.012 14.013.013 9.1.01 18.2.002 27.301-.007 7.41-.008 14.82-.005 22.23l.002 3.22.003 6.482c.008 20.162-.001 40.324-.018 60.487-.013 17.223-.01 34.446.003 51.67a47907.846 47907.846 0 0 1 .009 69.962c-.003 7.383.002 14.766.009 22.15.008 9.022.006 18.045-.01 27.068-.008 4.586-.011 9.171-.001 13.757C819.5 661.087 817.401 716.444 783 757c-.946 1.157-1.891 2.314-2.836 3.473-28.785 34.874-68.34 51.708-112.53 56.67l-2.334.264c-18.113 1.99-36.142 2.169-54.345 2.116-4.749-.01-9.497.005-14.246.016-9.247.017-18.495.014-27.742.002-7.531-.009-15.062-.01-22.593-.006l-3.275.002-6.593.004c-20.499.011-40.997-.002-61.496-.023-17.503-.018-35.006-.015-52.51.003a37138.407 37138.407 0 0 1-67.874.014l-3.261-.002c-7.502-.003-15.005.003-22.507.012-9.17.012-18.34.008-27.511-.013-4.66-.01-9.318-.015-13.977-.001-18.116.048-35.996-.358-54.012-2.391l-2.235-.252c-43.924-5.07-84.428-23.295-112.498-58.388-31.415-40.285-36.346-86.587-37.18-136.09-.03-1.8-.03-1.8-.063-3.635-.52-30.378-.53-60.756-.517-91.137.002-5.68.002-11.359.001-17.038v-2.496l-.001-5.026c-.003-15.504 0-31.009.006-46.513.004-13.207.003-26.414-.001-39.62a85425.202 85425.202 0 0 1-.004-51.489v-2.473c.002-5.662 0-11.324-.002-16.985-.064-166.712-.064-166.712 49.449-216.81 46.984-46.389 110.975-48.533 173.29-48.464Z" fill="#F5F7F9"/><path d="M303.604 80.724c4.32.002 8.64-.007 12.96-.014 8.417-.013 16.835-.015 25.252-.012 6.861.001 13.722 0 20.583-.005l2.986-.001 6.008-.004c18.693-.01 37.385-.009 56.077-.003 16.992.006 33.984-.006 50.977-.025 17.562-.02 35.125-.027 52.688-.024 9.814.002 19.627 0 29.441-.014C666.503 80.477 666.503 80.477 696 88l2.558.652C726.813 96.093 749.867 109.893 771 130l2.11 1.914c34.896 32.734 44.553 82.925 46.062 128.634.276 10.531.243 21.067.22 31.601-.007 4.671.004 9.342.012 14.013.013 9.1.01 18.2.002 27.301-.007 7.41-.008 14.82-.005 22.23l.002 3.22.003 6.482c.008 20.162-.001 40.324-.018 60.487-.013 17.223-.01 34.446.003 51.67a47907.846 47907.846 0 0 1 .009 69.962c-.003 7.383.002 14.766.009 22.15.008 9.022.006 18.045-.01 27.068-.008 4.586-.011 9.171-.001 13.757C819.5 661.087 817.401 716.444 783 757c-.946 1.157-1.891 2.314-2.836 3.473-28.785 34.874-68.34 51.708-112.53 56.67l-2.334.264c-18.113 1.99-36.142 2.169-54.345 2.116-4.749-.01-9.497.005-14.246.016-9.247.017-18.495.014-27.742.002-7.531-.009-15.062-.01-22.593-.006l-3.275.002-6.593.004c-20.499.011-40.997-.002-61.496-.023-17.503-.018-35.006-.015-52.51.003a37138.407 37138.407 0 0 1-67.874.014l-3.261-.002c-7.502-.003-15.005.003-22.507.012-9.17.012-18.34.008-27.511-.013-4.66-.01-9.318-.015-13.977-.001-18.116.048-35.996-.358-54.012-2.391l-2.235-.252c-43.924-5.07-84.428-23.295-112.498-58.388-31.415-40.285-36.346-86.587-37.18-136.09-.03-1.8-.03-1.8-.063-3.635-.52-30.378-.53-60.756-.517-91.137.002-5.68.002-11.359.001-17.038v-2.496l-.001-5.026c-.003-15.504 0-31.009.006-46.513.004-13.207.003-26.414-.001-39.62a85425.202 85425.202 0 0 1-.004-51.489v-2.473c.002-5.662 0-11.324-.002-16.985-.064-166.712-.064-166.712 49.449-216.81 46.984-46.389 110.975-48.533 173.29-48.464ZM178 161l-2.621 2.254C151.94 183.767 137.24 212.209 133 243c-.272 4.498-.279 8.983-.267 13.489l-.014 3.995c-.012 3.63-.012 7.26-.01 10.891 0 3.928-.01 7.855-.02 11.782-.016 7.685-.022 15.37-.023 23.055-.001 6.253-.005 12.506-.012 18.76-.017 17.763-.026 35.526-.025 53.289v5.799c.001 15.5-.018 30.998-.046 46.497a24612.06 24612.06 0 0 0-.04 47.842c0 8.94-.005 17.88-.027 26.82-.018 7.614-.023 15.23-.009 22.845.006 3.877.007 7.753-.01 11.63-.07 16.131.233 31.641 4.503 47.306l.56 2.076C143.31 609.961 155.312 627.38 170 643l1.594 1.79C187.037 661.413 210.06 673.133 232 678l3.374.77c16.776 3.393 34.013 2.665 51.043 2.637 4.81-.005 9.619.008 14.428.018 9.399.017 18.798.018 28.197.013 7.647-.004 15.295-.003 22.942.002l3.31.003 6.66.004c20.774.014 41.55.009 62.324-.003 18.958-.01 37.917.003 56.876.027 19.518.024 39.036.034 58.555.027 10.937-.003 21.874-.001 32.811.017 9.312.014 18.624.015 27.936-.002 4.74-.009 9.48-.011 14.22.004 43.867.133 81.32-6.34 114.324-37.517l2.273-2.078c17.936-16.992 29.165-40.719 34.226-64.601.323-1.494.661-2.985 1.02-4.47 1.597-7.034 1.77-13.81 1.755-21.003l.016-3.922c.014-3.568.016-7.136.015-10.704.002-3.859.015-7.717.027-11.576.022-8.428.03-16.856.035-25.285.004-5.274.01-10.548.017-15.821.02-14.632.036-29.264.04-43.895v-2.834a2139052.118 2139052.118 0 0 0 .002-11.393c.004-15.235.03-30.47.068-45.704.038-15.68.057-31.36.058-47.041 0-8.788.009-17.576.038-26.364.024-7.49.031-14.979.017-22.468-.008-3.811-.007-7.621.016-11.432.236-41.564-9.79-74.747-38.623-105.409l-1.594-1.79c-13.189-14.198-31.27-23.395-49.343-29.585l-2.81-.975c-14.53-4.72-29.254-6.102-44.44-6.024a2757.963 2757.963 0 0 0-18.36-.003c-4.844.008-9.689 0-14.533-.006-9.467-.01-18.934-.003-28.401.009-11.038.014-22.075.012-33.113.01-19.698-.003-39.396.008-59.094.028-19.092.019-38.184.026-57.276.02a74670.25 74670.25 0 0 0-72.447.011c-7.686.004-15.371.004-23.057.002-9.368-.002-18.735.003-28.103.017-4.776.008-9.55.012-14.326.007-4.378-.004-8.755.001-13.133.014-1.577.003-3.154.002-4.73-.002-32.002-.077-63.057 9.93-87.24 31.267Z" fill="#5D4D59"/><path d="M132 248h1l.002 2.022a99225.896 99225.896 0 0 0 .206 133.17l.005 2.876c.031 15.328.048 30.657.06 45.985.013 15.748.04 31.496.082 47.244.025 9.704.038 19.408.036 29.112 0 6.67.015 13.34.041 20.01.015 3.838.023 7.676.014 11.514-.035 16.05.323 31.48 4.554 47.067l.56 2.077C142.99 605.163 151.295 620.25 162 633l2.176 2.598C186.682 661.462 216.986 676.54 251 680c11.93.78 23.933.557 35.881.523 4.807-.01 9.613.005 14.42.016 9.385.017 18.77.014 28.155.002 7.636-.009 15.272-.01 22.908-.006l3.308.002 6.657.004c20.748.011 41.496-.002 62.244-.023 17.754-.018 35.509-.015 53.263.003a38046.804 38046.804 0 0 0 68.666.014l3.295-.002c7.615-.003 15.23.003 22.846.012 9.297.011 18.594.008 27.891-.013 4.732-.01 9.464-.015 14.197-.001 43.87.113 81.246-6.389 114.269-37.531l2.05-1.855C752.35 621.126 761.79 592.9 767 565h1c.047 9.468.082 18.936.104 28.404.01 4.398.024 8.796.047 13.195.022 4.26.034 8.52.039 12.78.003 1.61.01 3.219.021 4.828.142 21.621-2.197 41.929-11.211 61.793l-1.39 3.352c-4.758 10.785-10.794 20.81-18.61 29.648l-2.219 2.547A417.449 417.449 0 0 1 728 729l-1.785 1.984c-12.999 13.828-30.152 24.377-47.903 30.828l-2.168.806c-21.131 7.193-42.57 6.977-64.58 6.934-4.777-.005-9.555.013-14.332.028-9.333.026-18.665.03-27.998.025-7.596-.004-15.191 0-22.787.008l-3.29.004-6.619.007c-20.64.022-41.282.017-61.924.005-18.827-.01-37.654.012-56.48.05-19.394.04-38.787.056-58.18.048-10.863-.004-21.726.001-32.589.03-9.249.024-18.498.026-27.747.002-4.707-.012-9.412-.014-14.119.01-25.599.123-51.28-.462-74.499-12.769l-1.921-.996C195.635 748.988 184.055 740.416 173 730l-1.824-1.664c-23.929-22.645-38.509-57.997-39.513-90.66-.056-3.625-.046-7.249-.024-10.874a2757.413 2757.413 0 0 1 .013-18.37c.013-4.847.008-9.693.006-14.54-.001-8.377.008-16.755.025-25.133.024-12.112.032-24.225.036-36.338.006-19.656.026-39.312.055-58.968a73608.008 73608.008 0 0 0 .075-78.555c.031-48.966.084-97.932.151-146.898Z" fill="#6C869B"/><path d="m314.078 293.762 2.437-.025c1.705-.014 3.41-.024 5.114-.032a749.17 749.17 0 0 0 7.789-.105c1.658-.01 3.315-.019 4.973-.026l2.34-.053c5.2.02 8.198.967 12.269 4.479 3.293 4.258 3.43 8.144 3.394 13.337l.019 2.534c.017 2.802.012 5.603.007 8.404a3701.942 3701.942 0 0 1 .049 22.397c0 4.555.008 9.11.017 13.666.019 10.746.022 21.493.015 32.24-.007 11.087.016 22.173.053 33.26.031 9.518.042 19.036.038 28.555-.002 5.685.004 11.37.028 17.055.023 5.346.02 10.693 0 16.04-.003 1.96.002 3.922.016 5.883.019 2.68.006 5.358-.015 8.038.02 1.161.02 1.161.038 2.345-.091 5.615-1.78 9.17-5.659 13.246-4.49 3.044-8.553 3.445-13.848 3.398l-2.225.01c-1.544.001-3.088-.004-4.631-.017-2.355-.016-4.709 0-7.064.02-1.505-.003-3.011-.007-4.517-.013l-2.119.019c-4.393-.063-7.213-.564-10.596-3.417-3.684-5.382-4.584-9.169-4.521-15.615l-.024-2.553c-.02-2.809-.012-5.617-.004-8.426-.009-2.019-.02-4.038-.031-6.057-.027-5.476-.028-10.95-.023-16.426.002-4.572-.008-9.145-.017-13.718a9973.668 9973.668 0 0 1-.011-32.361c.012-11.127-.013-22.252-.055-33.379a6371.88 6371.88 0 0 1-.041-28.67c.003-5.706-.002-11.412-.03-17.118-.025-5.365-.02-10.73.005-16.095.005-1.967 0-3.935-.017-5.902-.021-2.69-.005-5.376.02-8.065l-.044-2.352c.106-5.347 1.662-8.056 5.311-11.937 3.425-3.065 7.208-2.523 11.56-2.564Zm251.328-.258 2.432-.005c1.69.002 3.382.014 5.073.034 2.58.03 5.16.021 7.741.008 1.647.006 3.295.015 4.942.025l2.327-.008c4.53.079 7.55.527 11.079 3.442 3.308 4.283 3.428 8.203 3.388 13.42l.016 2.561c.014 2.831.007 5.662 0 8.493l.02 6.092c.019 5.514.018 11.028.012 16.543-.003 4.602.003 9.205.009 13.807.014 10.857.012 21.714.001 32.572-.011 11.203.003 22.406.03 33.61.022 9.617.028 19.234.022 28.851-.003 5.745 0 11.49.017 17.234.015 5.402.011 10.803-.008 16.205-.003 1.982 0 3.965.01 5.947a711.9 711.9 0 0 1-.016 8.119l.03 2.377c-.07 5.202-1.218 8.176-4.531 12.169-4.47 2.985-8.525 3.467-13.777 3.469l-2.211.023a505.2 505.2 0 0 1-4.606.009c-2.334-.001-4.665.04-6.998.085-12.445.104-12.445.104-16.787-2.742-4.956-5.377-6.065-10.069-6.009-17.232l-.016-2.515c-.014-2.772-.007-5.545 0-8.318a3703.077 3703.077 0 0 1-.032-22.182c.003-4.51-.003-9.02-.009-13.531-.014-10.64-.012-21.28-.001-31.92.011-10.978-.003-21.956-.03-32.934a9519.6 9519.6 0 0 1-.022-28.278c.003-5.63 0-11.259-.017-16.888-.015-5.293-.011-10.585.008-15.878.003-1.942 0-3.884-.01-5.826-.013-2.652-.002-5.303.016-7.954l-.03-2.328c.089-6.418 2.453-9.87 6.756-14.404 3.706-2.212 6.989-2.213 11.181-2.152Z" fill="#5F4F5B"/><path d="M602 304h1c.812 7.737 1.197 15.411 1.316 23.188l.063 3.646c.056 3.348.106 6.696.153 10.044.03 2.138.063 4.275.096 6.413.316 21.124.407 42.247.4 63.373l-.002 3.612c-.005 12.014-.02 24.028-.054 36.043-.012 4.555-.02 9.11-.027 13.666-.007 3.133-.02 6.266-.033 9.4-.024 9.762.104 19.46.823 29.2.365 5.215.365 5.215-.735 7.415h-2l-.5 2.25c-1.73 3.17-3.469 4.402-6.705 5.938-6.35 1.844-13.24 1.21-19.795 1.062-1.553-.02-3.107-.038-4.66-.055-3.78-.043-7.56-.112-11.34-.195l-1 4-1-5 3.01-.028c3.711-.04 7.421-.106 11.132-.18 1.601-.028 3.202-.049 4.804-.063a539 539 0 0 0 6.933-.12l2.144-.003c5.479-.16 8.6-1.5 12.977-4.606 2.683-3.695 2.29-7.887 2.278-12.264l.018-2.547c.017-2.82.02-5.64.023-8.461l.03-6.061c.028-5.49.043-10.979.056-16.468.015-5.735.042-11.47.068-17.205.047-10.862.083-21.724.116-32.586.039-12.365.088-24.73.138-37.095.104-25.437.193-50.875.273-76.313Z" fill="#C2BFC4"/><path d="m352 423 2 1-.007 3.041c-.02 9.461-.035 18.922-.045 28.383-.005 4.864-.012 9.728-.023 14.592-.011 4.694-.017 9.389-.02 14.083-.002 1.79-.005 3.58-.01 5.371-.008 2.51-.009 5.018-.009 7.527l-.01 2.24c.007 3.716.234 7.15 1.124 10.763l-1.875.75c-2.268 1.049-2.268 1.049-2.938 3.188-1.83 3.179-4.815 4.042-8.187 5.062-2.793.367-5.527.353-8.34.293l-2.324-.013a813.845 813.845 0 0 1-7.274-.092c-1.654-.016-3.308-.03-4.962-.042-4.034-.032-8.067-.084-12.1-.146v-1l3.01-.028c3.711-.04 7.421-.106 11.132-.18 1.601-.028 3.202-.049 4.804-.063a539 539 0 0 0 6.933-.12l2.144-.003c5.5-.16 8.593-1.47 12.977-4.606 3.33-4.222 3.442-8.19 3.432-13.37l.031-2.515c.03-2.732.04-5.464.049-8.197a3497.954 3497.954 0 0 0 .158-20.664c.03-5.095.076-10.189.121-15.283.086-9.99.153-19.98.209-29.971Z" fill="#EBEBEE"/><path d="m352 313 2 1v63h2l-.467 2.417c-.641 4.309-.87 8.57-1.068 12.919l-.13 2.665c-.136 2.79-.267 5.582-.397 8.374l-.276 5.7A9645.29 9645.29 0 0 0 353 423h-1V313Z" fill="#EDEEF1"/><path d="M133 567h1l3 19h-3v56h-1v-75Z" fill="#7F9CAC"/><path d="M604 490h1c.194 2.958.38 5.916.563 8.875l.17 2.55.146 2.442.143 2.254C606 508 606 508 605 510h-2l-.5 2.25c-1.73 3.17-3.469 4.402-6.705 5.938-6.35 1.844-13.24 1.21-19.795 1.062-1.553-.02-3.107-.038-4.66-.055-3.78-.043-7.56-.112-11.34-.195l-1 4-1-5 3.01-.028c3.711-.04 7.421-.106 11.132-.18 1.601-.028 3.202-.049 4.804-.063a539 539 0 0 0 6.933-.12l2.144-.003c5.463-.159 8.559-1.616 12.977-4.606 1.402-1.814 1.402-1.814 1.938-3.75L602 506h1l1-16Z" fill="#C7C4CA"/><path d="M547 456h1c.219 7.369.414 14.737.592 22.107.064 2.509.133 5.017.207 7.525.106 3.6.193 7.198.275 10.798l.113 3.415.062 3.155.074 2.785L549 508l-3 2c-.166-18.026.303-35.991 1-54Z" fill="#EBECF0"/><path d="m350 509 2 3c-4.39 4.767-7.244 6.834-13.78 7.227-1.455 0-2.91-.011-4.365-.032l-2.332-.008c-2.445-.011-4.89-.037-7.336-.062-1.663-.01-3.326-.02-4.99-.027A2610.2 2610.2 0 0 1 307 519v-1l3.01-.028c3.711-.04 7.421-.106 11.132-.18 1.601-.028 3.202-.049 4.804-.063a539 539 0 0 0 6.933-.12l2.144-.003c5.465-.159 8.566-1.597 12.977-4.606 1.466-2.085 1.466-2.085 2-4Z" fill="#C8C5CB"/><path d="M766 569h1v29h-1l-1-12h-1c-.257-5.913.702-11.24 2-17Z" fill="#7A919E"/><path d="M352 486c2.202 3.963 2.175 6.89 2.063 11.438-.1 4.37-.12 8.308.937 12.562l-3 2c-.965-3.186-1.052-5.888-.879-9.203l.147-2.969.17-3.078.158-3.125c.13-2.542.264-5.084.404-7.625Z" fill="#E7E8EB"/><path d="M353 377h3l-.48 2.608c-.499 3.253-.722 6.378-.836 9.665l-.127 3.497-.12 3.605-.13 3.676c-.106 2.983-.208 5.966-.307 8.949h-1v-32Z" fill="#E1E0E3"/><path d="M604 490h1c.194 2.958.38 5.916.563 8.875l.17 2.55.146 2.442.143 2.254C606 508 606 508 605 510h-2l-1 3c-.625-1.813-.625-1.813-1-4l2-3c.3-2.754.51-5.426.625-8.188l.117-2.271c.094-1.847.177-3.694.258-5.541Z" fill="#D9D7DC"/><path d="M763 125c4.104.518 5.957 2.646 8.75 5.563l2.422 2.503L776 135l-2 2a2543.62 2543.62 0 0 1-5.5-5.438l-1.59-1.564A241.652 241.652 0 0 1 763 126v-1Z" fill="#534650"/><path d="M719 805a518.545 518.545 0 0 1-4.875 2.063l-2.742 1.16C709 809 709 809 707 808c1.277-2.554 2.256-2.733 4.875-3.75l2.117-.86C716 803 716 803 719 805Z" fill="#453A42"/><path d="M134 578h2l1 8h-3v-8Z" fill="#8197A5"/><path d="m353 505 2 1-1 5h-3v-3h2v-3Z" fill="#DCDBE0"/><path d="m554 296 3 1a141.4 141.4 0 0 1-5 5h-2c1.152-2.468 2.048-4.048 4-6Z" fill="#54424F"/></svg>