<svg xmlns="http://www.w3.org/2000/svg" width="900" height="939"><path d="M417 62h66v1l9.938.5 2.865.145 2.724.136 2.524.127A62.73 62.73 0 0 0 504 64h12v2h2v2h11v2h13v2h12v2h8l1 3 3.25-.188C570 77 570 77 571.875 78.47c2.693 1.94 4.588 2.023 7.875 2.219l2.984.199L585 81v2h7v1l6 1v2l2.063.375c3.365.716 6.637 1.654 9.937 2.625v2h4v2l3.25-.125c3.407.114 4.957.338 7.75 2.125v2h4v2h5v2l2.125.375c3.052.663 5.928 1.597 8.875 2.625v2h2v2h5v2h4v2h5v2h4v2l5 1v2h2v2h4v2h2v2h5v2h2v2l2.375.25c2.625.75 2.625.75 3.938 2.813L692 135h4v2h5v2h2v2h2v2h2v2l5 1v2h2v2h2v2h2v2h5v2h2v2l1.938.813C729 160 729 160 730 163h2v2h4v2h2v2h3v2h2v2h2c1.625 1.375 1.625 1.375 3 3v2h2v2h2v2h2v2h2v2l1.938.813C760 188 760 188 761 191h2v2h2v4h2v2h3v2h2v2l5 1v3l2 1v4h2v2h2v2h2v2l3 1v3l2 1v2h2v2h2v4l3 1v2h2v4h2v2h2v4h2v2l3 1v4h2v2h2v4h2v4l3 1v2h2v4h2v4h2v5h3v3l2 1v4h2c1.498 3.371 2 5.204 2 9h2v4h3c1.498 3.371 2 5.204 2 9h2v6h2v4l3 1v5l2 1v6h2v7h2v6h2l.375 2.938L855 349l2 1v8h2v7h2v8h2v11l3 1v10h2v11h2v19h2v36h2v20h-2v34h-2v19h-2v11h-2v10l-3 1v13h-2v6h-2v7h-2l.105 1.941c.185 5.893-.375 9.826-3.105 15.059h-2v6h-2v7h-2v4l-2 1v5l-3 1v4h-2v6h-2l-.438 2.25c-.464 2.27-.98 4.508-1.562 6.75h-3v6h-2v5h-2v4h-2v4l-2 1c-.652 2.025-.652 2.025-1 4h-2v2h-2v4h-2v4h-2l-1 5h-2v2h-2v4h-2v4h-2l-.938 2.375C806 696 806 696 805 698h-2v2h-2v4h-2v2h-2l-1 3h-2v4h-2v2h-2v4h-2l-1 3h-2v2h-2v4h-2v2c-1.813 2.125-1.813 2.125-4 4h-3v3h-2v4h-2v2h-3v2h-2v2h-2v2h-2l-.813 1.938C759 753 759 753 756 754v2h-2v2h-2v2h-2v2h-2l-1 3h-2v2h-2v2h-2v2h-3v2h-2v2h-2v2h-2l-.688 1.938C730 781 730 781 727.375 781.75L725 782v2h-2v2h-2v2l-2 2h-3l-1 3c-2.645 1.81-4.954 2.985-8 4v2h-4v2c-1.688 2.125-1.688 2.125-4 4-2.75.25-2.75.25-5 0l-.688 1.938C692 809 692 809 689.375 809.75L687 810v2h-2v2c-3.135 1.858-5.375 2.201-9 2v2h-2v2h-4l-1 3h-4v2h-2v2h-5v2h-4v2c-3.135 1.858-5.375 2.201-9 2l-1 3c-2.985 1.955-4.264 2-8 2v2h-4v2h-5v2h-4v2c-3.634 2.326-6.77 2.163-11 2l-1 3h-4v2l-6 1v1l-7 1v1h-7v2l-6 1v1h-7v2h-9l-1 3h-8v2h-9v2h-9v2h-17v2l-9 1v1h-16v2h-92v-2h-16v-1l-13-1v-1l-13-1v-2h-9v-2h-11v-2h-6l-1-3h-9v-2h-7v-1l-6-1v-2h-7v-1l-7-1v-1l-6-1v-2l-5-1v-2l-3.25.125c-3.407-.114-4.957-.338-7.75-2.125v-2h-4v-2h-5v-2h-4v-2l-2.25-.375c-2.551-.58-4.477-1.362-6.75-2.625v-2l-2.25.125c-2.838-.129-4.338-.696-6.75-2.125v-2h-4v-2h-5v-2h-2v-2l-5-1v-2h-4v-2h-2v-2l-2.25.125c-2.838-.129-4.338-.696-6.75-2.125v-2h-2v-2l-2.375-.25C208 809 208 809 206.687 806.937L206 805l-2.25.25c-2.75-.25-2.75-.25-5.063-2.125C197 801 197 801 197 799h-4v-2l-1.688-.813c-2.524-1.296-4.95-2.612-7.312-4.187v-2l-3-1-2-1v-2h-2v-2h-2v-2l-2.375-.25C170 781 170 781 168.687 778.937L168 777h-2v-2h-2v-2h-2v-2h-3v-2h-2v-2h-2v-2l-3-1v-2h-2v-2h-2v-2h-2v-2h-2v-2l-1.938-.813C140 752 140 752 139 749h-2v-2h-2v-2h-2v-2h-3v-2h-2v-4h-2v-3l-3-1c-2.188-1.438-2.188-1.438-4-3v-2h-2v-4h-2v-2l-3-1v-2h-2v-4h-2v-2h-2v-2l-3-1v-4h-2v-2h-2v-4h-2v-2h-2c-3-4.385-3-4.385-3-7h-2v-4h-2v-4h-2v-2l-3-1v-4h-2v-4h-2v-4h-2v-2l-3-1 .25-2.313L74 660a125.01 125.01 0 0 0-4-3v-4h-2v-5h-2v-6h-3c-1.498-3.371-2-5.204-2-9h-2v-6h-2v-4l-3-1v-5l-2-1v-4h-2v-7h-2v-6h-2c-2.682-5.364-3.315-9.01-3-15h-2v-9h-2v-8h-2v-11l-3-1v-10h-2v-8h-2v-22h-2v-36h-2v-18h2v-34h2v-21h2v-11h2v-10l3-1v-11h2v-6h2v-2h2v-11l2-1-.063-3.875c-.062-3.875-.062-3.875 1.063-6.125h2v-6h2v-7h2v-6l2-1v-5l3-1v-4h2v-4h2l.25-2.375C62 304 62 304 64.063 302.687L66 302v-8h2l.438-2.25c.464-2.27.98-4.508 1.562-6.75h2v-4l2-1v-3h3v-5h2v-4h2v-4h2l1-3h2v-4h2v-4h2v-2h2l1-5h2v-2h2v-4h2v-2h2v-4h2l1-3h2v-4h2v-2h2v-2l2-1c.652-2.025.652-2.025 1-4h2v-2h2v-2h2v-2h2l.438-1.875C122 208 122 208 123 206h3l2-5h2v-2h3v-2h2v-4h2v-2h2l.813-1.938C141 187 141 187 144 186v-2h2v-2h2v-2h2v-2h2v-2c1.375-1.625 1.375-1.625 3-3h2v-2h2v-2h3v-2l2.875-.438c3.018-.391 3.018-.391 5.125-1.562v-2h2l1-5h2v-2h2v-2h5v-2h2v-2h2v-2h2l1-3h4v-2h2v-2h2v-2c2.647-1.46 3.894-2 7-2v-2h4l.688-1.938C210 131 210 131 212.625 130.25L215 130v-2h2v-2h5v-2h2v-2h4v-2l1.938-.375L232 119l1-2h2v-2h4v-2h5v-2h2v-2h2v-2h9v-2c4.385-3 4.385-3 7-3v-2h2v-2h5v-2l8-1v-1h7v-2h7l1-3c2.985-1.955 4.264-2 8-2v-2h9v-2l6-1v-1l2.738-.184 3.575-.254 3.55-.246c3.163-.203 3.163-.203 6.137-1.316v-2h4l1-3 2.152-.184 2.786-.254c.916-.08 1.833-.162 2.777-.246 2.247-.076 2.247-.076 3.285-1.316a74.456 74.456 0 0 1 4.563-.063l2.503.028L358 72v-2l8-1v-1h16v-2h2v-2l33-1v-1Z" fill="#0F9ED5"/><path d="M417 62h66v1l9.938.5 2.865.145 2.724.136 2.524.127A62.73 62.73 0 0 0 504 64h12v2h2v2h11v2h13v2h12v2h8l1 3 3.25-.188C570 77 570 77 571.875 78.47c2.693 1.94 4.588 2.023 7.875 2.219l2.984.199L585 81v2h7v1l6 1v2l2.063.375c3.365.716 6.637 1.654 9.937 2.625v2h4v2l3.25-.125c3.407.114 4.957.338 7.75 2.125v2h4v2h5v2l2.125.375c3.052.663 5.928 1.597 8.875 2.625v2h2v2h5v2h4v2h5v2h4v2l5 1v2h2v2h4v2h2v2h5v2h2v2l2.375.25c2.625.75 2.625.75 3.938 2.813L692 135h4v2h5v2h2v2h2v2h2v2l5 1v2h2v2h2v2h2v2h5v2h2v2l1.938.813C729 160 729 160 730 163h2v2h4v2h2v2h3v2h2v2h2c1.625 1.375 1.625 1.375 3 3v2h2v2h2v2h2v2h2v2l1.938.813C760 188 760 188 761 191h2v2h2v4h2v2h3v2h2v2l5 1v3l2 1v4h2v2h2v2h2v2l3 1v3l2 1v2h2v2h2v4l3 1v2h2v4h2v2h2v4h2v2l3 1v4h2v2h2v4h2v4l3 1v2h2v4h2v4h2v5h3v3l2 1v4h2c1.498 3.371 2 5.204 2 9h2v4h3c1.498 3.371 2 5.204 2 9h2v6h2v4l3 1v5l2 1v6h2v7h2v6h2l.375 2.938L855 349l2 1v8h2v7h2v8h2v11l3 1v10h2v11h2v19h2v36h2v20h-2v34h-2v19h-2v11h-2v10l-3 1v13h-2v6h-2v7h-2l.105 1.941c.185 5.893-.375 9.826-3.105 15.059h-2v6h-2v7h-2v4l-2 1v5l-3 1v4h-2v6h-2l-.438 2.25c-.464 2.27-.98 4.508-1.562 6.75h-3v6h-2v5h-2v4h-2v4l-2 1c-.652 2.025-.652 2.025-1 4h-2v2h-2v4h-2v4h-2l-1 5h-2v2h-2v4h-2v4h-2l-.938 2.375C806 696 806 696 805 698h-2v2h-2v4h-2v2h-2l-1 3h-2v4h-2v2h-2v4h-2l-1 3h-2v2h-2v4h-2v2c-1.813 2.125-1.813 2.125-4 4h-3v3h-2v4h-2v2h-3v2h-2v2h-2v2h-2l-.813 1.938C759 753 759 753 756 754v2h-2v2h-2v2h-2v2h-2l-1 3h-2v2h-2v2h-2v2h-3v2h-2v2h-2v2h-2l-.688 1.938C730 781 730 781 727.375 781.75L725 782v2h-2v2h-2v2l-2 2h-3l-1 3c-2.645 1.81-4.954 2.985-8 4v2h-4v2c-1.688 2.125-1.688 2.125-4 4-2.75.25-2.75.25-5 0l-.688 1.938C692 809 692 809 689.375 809.75L687 810v2h-2v2c-3.135 1.858-5.375 2.201-9 2v2h-2v2h-4l-1 3h-4v2h-2v2h-5v2h-4v2c-3.135 1.858-5.375 2.201-9 2l-1 3c-2.985 1.955-4.264 2-8 2v2h-4v2h-5v2h-4v2c-3.634 2.326-6.77 2.163-11 2l-1 3h-4v2l-6 1v1l-7 1v1h-7v2l-6 1v1h-7v2h-9l-1 3h-8v2h-9v2h-9v2h-17v2l-9 1v1h-16v2h-92v-2h-16v-1l-13-1v-1l-13-1v-2h-9v-2h-11v-2h-6l-1-3h-9v-2h-7v-1l-6-1v-2h-7v-1l-7-1v-1l-6-1v-2l-5-1v-2l-3.25.125c-3.407-.114-4.957-.338-7.75-2.125v-2h-4v-2h-5v-2h-4v-2l-2.25-.375c-2.551-.58-4.477-1.362-6.75-2.625v-2l-2.25.125c-2.838-.129-4.338-.696-6.75-2.125v-2h-4v-2h-5v-2h-2v-2l-5-1v-2h-4v-2h-2v-2l-2.25.125c-2.838-.129-4.338-.696-6.75-2.125v-2h-2v-2l-2.375-.25C208 809 208 809 206.687 806.937L206 805l-2.25.25c-2.75-.25-2.75-.25-5.063-2.125C197 801 197 801 197 799h-4v-2l-1.688-.813c-2.524-1.296-4.95-2.612-7.312-4.187v-2l-3-1-2-1v-2h-2v-2h-2v-2l-2.375-.25C170 781 170 781 168.687 778.937L168 777h-2v-2h-2v-2h-2v-2h-3v-2h-2v-2h-2v-2l-3-1v-2h-2v-2h-2v-2h-2v-2h-2v-2l-1.938-.813C140 752 140 752 139 749h-2v-2h-2v-2h-2v-2h-3v-2h-2v-4h-2v-3l-3-1c-2.188-1.438-2.188-1.438-4-3v-2h-2v-4h-2v-2l-3-1v-2h-2v-4h-2v-2h-2v-2l-3-1v-4h-2v-2h-2v-4h-2v-2h-2c-3-4.385-3-4.385-3-7h-2v-4h-2v-4h-2v-2l-3-1v-4h-2v-4h-2v-4h-2v-2l-3-1 .25-2.313L74 660a125.01 125.01 0 0 0-4-3v-4h-2v-5h-2v-6h-3c-1.498-3.371-2-5.204-2-9h-2v-6h-2v-4l-3-1v-5l-2-1v-4h-2v-7h-2v-6h-2c-2.682-5.364-3.315-9.01-3-15h-2v-9h-2v-8h-2v-11l-3-1v-10h-2v-8h-2v-22h-2v-36h-2v-18h2v-34h2v-21h2v-11h2v-10l3-1v-11h2v-6h2v-2h2v-11l2-1-.063-3.875c-.062-3.875-.062-3.875 1.063-6.125h2v-6h2v-7h2v-6l2-1v-5l3-1v-4h2v-4h2l.25-2.375C62 304 62 304 64.063 302.687L66 302v-8h2l.438-2.25c.464-2.27.98-4.508 1.562-6.75h2v-4l2-1v-3h3v-5h2v-4h2v-4h2l1-3h2v-4h2v-4h2v-2h2l1-5h2v-2h2v-4h2v-2h2v-4h2l1-3h2v-4h2v-2h2v-2l2-1c.652-2.025.652-2.025 1-4h2v-2h2v-2h2v-2h2l.438-1.875C122 208 122 208 123 206h3l2-5h2v-2h3v-2h2v-4h2v-2h2l.813-1.938C141 187 141 187 144 186v-2h2v-2h2v-2h2v-2h2v-2c1.375-1.625 1.375-1.625 3-3h2v-2h2v-2h3v-2l2.875-.438c3.018-.391 3.018-.391 5.125-1.562v-2h2l1-5h2v-2h2v-2h5v-2h2v-2h2v-2h2l1-3h4v-2h2v-2h2v-2c2.647-1.46 3.894-2 7-2v-2h4l.688-1.938C210 131 210 131 212.625 130.25L215 130v-2h2v-2h5v-2h2v-2h4v-2l1.938-.375L232 119l1-2h2v-2h4v-2h5v-2h2v-2h2v-2h9v-2c4.385-3 4.385-3 7-3v-2h2v-2h5v-2l8-1v-1h7v-2h7l1-3c2.985-1.955 4.264-2 8-2v-2h9v-2l6-1v-1l2.738-.184 3.575-.254 3.55-.246c3.163-.203 3.163-.203 6.137-1.316v-2h4l1-3 2.152-.184 2.786-.254c.916-.08 1.833-.162 2.777-.246 2.247-.076 2.247-.076 3.285-1.316a74.456 74.456 0 0 1 4.563-.063l2.503.028L358 72v-2l8-1v-1h16v-2h2v-2l33-1v-1Zm-44.732 40.521c-2.511.53-5.031.962-7.561 1.393-6.078 1.088-11.963 2.697-17.894 4.398l-3.316.944c-3.169.906-6.334 1.822-9.497 2.744l-2.464.717c-9.01 2.646-17.702 5.817-26.37 9.414-2.733 1.096-5.494 2.116-8.252 3.15-7.122 2.733-13.988 5.896-20.851 9.219l-1.89.913C252.547 145.9 232.228 158.593 213 173l-3.04 2.262c-19.645 14.767-39.043 31.73-55.01 50.453a371.133 371.133 0 0 1-4.555 5.226c-23.752 26.959-44.412 58.65-58.098 91.942-1.2 2.882-2.507 5.679-3.86 8.492-2.117 4.607-3.731 9.296-5.25 14.125l-.664 2.107C81.638 350.513 81 352.944 81 356h-2l-1.137 3.96-.742 2.587a1737.23 1737.23 0 0 0-1.634 5.755c-1.215 4.3-2.43 8.59-3.823 12.835-4.904 15.394-6.436 31.657-8.386 47.639a595.95 595.95 0 0 1-.86 6.517c-1.5 11.507-1.695 22.904-1.624 34.499.019 3.128.02 6.256.02 9.384l.018 6.004.003 2.815.02 2.614.011 2.285c.137 2.153.584 4.025 1.134 6.106.295 2.687.561 5.371.813 8.063 2.306 24.684 2.306 24.684 8.257 48.652.842 2.973 1.311 5.753 1.75 8.805 1.13 7.074 3.436 13.535 5.93 20.23.445 1.22.89 2.44 1.35 3.696A1849.4 1849.4 0 0 0 84 599l1.054 2.844c1.628 4.393 3.274 8.78 4.946 13.156h2l.2 2.91c.724 5.046 3.167 9.122 5.612 13.528.883 1.623 1.764 3.246 2.645 4.87l1.305 2.386a206.776 206.776 0 0 1 3.347 6.544c2.888 5.833 6.411 11.27 9.891 16.762l1.428 2.27c7.61 12.064 15.689 23.57 24.572 34.73l2.43 3.078c4.771 5.944 9.836 11.57 15.02 17.152a229.621 229.621 0 0 1 5.988 6.77c7.2 8.29 15.192 15.908 23.562 23 1.014.888 2.027 1.778 3.04 2.668 8.055 7.052 16.39 13.61 25.036 19.922a588.212 588.212 0 0 1 5.381 4c8.75 6.49 18.018 11.886 27.496 17.238 2.47 1.415 4.885 2.91 7.297 4.422 4.585 2.786 9.397 4.991 14.276 7.203 3.61 1.642 7.064 3.4 10.474 5.422 3.717 2.15 6.726 2.852 11 3.125v2c8.54 3.357 17.135 6.498 25.797 9.523 3.81 1.332 7.6 2.717 11.39 4.102 10.287 3.655 20.498 6.463 31.26 8.224 6.027 1.001 11.931 2.356 17.845 3.881 4.016 1.004 7.584 1.342 11.708 1.27.046-12.231.082-24.462.104-36.693.01-5.68.024-11.36.047-17.04.022-5.485.034-10.97.039-16.456.003-2.088.01-4.177.021-6.266.015-2.934.017-5.868.016-8.803l.022-2.593c-.029-8.5-1.768-15.997-5.437-23.649l-.923-1.953c-2.65-5.419-5.935-9.994-9.889-14.547l-1.797-2.445c-2.587-3-5.513-5.103-8.765-7.305-15.916-11.127-29.08-23.074-38.438-40.25l-1.27-2.148c-3.555-6.739-4.093-14.468-5.117-21.914-.18-3.701-.18-3.701-1.613-4.938-.261-4.285-.185-8.583-.188-12.875l-.037-3.55c-.01-6.86.36-13.511 1.147-20.317 1.294-11.238 1.806-22.497 2.34-33.793.304-6.413.628-12.826.953-19.238l.197-3.91c1.35-26.494 3.047-52.966 5.342-79.397 1.041-11.992 1.857-23.986 2.547-36.004l.234-4.076.116-2.013c.382-6.572.868-13.136 1.349-19.702a961.14 961.14 0 0 0 1.535-26.46l.135-2.979c.22-4.927.43-9.855.633-14.783l.232-5.419.098-2.555c.254-5.816.254-5.816 1.367-6.929.207-1.538.349-3.085.465-4.633l.232-3.063.24-3.429.265-3.67c.678-9.75 1.193-19.505 1.673-29.267.863-17.478 1.833-34.95 2.86-52.419.177-3.003.35-6.006.519-9.01.202-3.58.411-7.158.626-10.737.117-1.97.226-3.941.335-5.912.85-13.842.85-13.842 4.348-19.298 3.199-2.05 5.626-2.185 9.378-2.019C358 198 358 198 360 200.25c1.911 5.256 2.194 10.064 2.281 15.635l.055 2.858c.06 3.277.112 6.554.164 9.831l.06 3.576c.729 43.48 1 86.969 1.377 130.453a243155.248 243155.248 0 0 0 .344 39.299 34070.505 34070.505 0 0 0 .452 48.279l.065 6.603c.132 13.297.231 26.593.286 39.89.027 6.25.07 12.5.117 18.75.036 4.832.052 9.664.051 14.496.005 2.906.03 5.81.06 8.716a416.76 416.76 0 0 1-.005 5.81c.101 7.13.917 12.086 5.693 17.554 4.654 4.322 8.388 5.362 14.586 5.281 5.261-.613 9.14-2.974 12.789-6.718 3.21-5.062 3.923-9.325 3.928-15.251l.026-2.305c.025-2.526.038-5.051.05-7.577a4853.752 4853.752 0 0 0 .164-19.67c.051-7.48.12-14.96.188-22.44.022-2.539.039-5.078.055-7.617.093-12.568.379-25.129.684-37.693.514-21.193.861-42.386 1.16-63.583a164623.879 164623.879 0 0 0 1.068-73.61c.144-10.107.292-20.214.441-30.321.094-6.333.185-12.665.273-18.998.056-3.947.115-7.894.174-11.842.027-1.804.052-3.607.076-5.411.077-5.75.19-11.497.338-17.245l.066-2.8c.074-2.857.169-5.712.27-8.567.02-.875.042-1.75.064-2.65.244-6.001 1.187-10.57 5.6-14.983 2.655-.565 5.291-.738 8-1l1 3h2l.938 2.875c.936 2.986.936 2.986 2.062 5.125.113 2.928.165 5.834.174 8.763l.02 2.783c.014 2.02.026 4.04.036 6.06.016 3.278.039 6.556.062 9.834.034 4.758.066 9.517.096 14.275.083 12.865.188 25.73.3 38.594.005.66.01 1.321.017 2.002.28 32.46.858 64.914 1.494 97.37l.266 13.616.067 3.428c.358 18.333.648 36.666.91 55a28612.565 28612.565 0 0 0 .251 17.249l.094 6.387c.123 8.345.24 16.69.348 25.035.076 5.817.16 11.633.25 17.45.035 2.397.066 4.795.094 7.194.039 3.282.089 6.564.142 9.847l.025 2.908c.122 6.414.92 10.925 5.229 15.893l1.492 1.761c4.145 3.937 8.3 4.044 13.809 3.926 4.469-.593 7.569-2.288 10.824-5.375 1.685-2.282 2.777-4.408 4-7l1-2c.114-1.651.167-3.307.19-4.962l.05-3.186.041-3.514.055-3.693c.039-2.663.076-5.325.11-7.988.054-4.259.115-8.518.177-12.776.098-6.795.192-13.59.283-20.384.172-12.704.35-25.408.532-38.112l.124-8.801c.223-15.858.482-31.713.904-47.567.508-19.091.69-38.182.815-57.279l.015-2.233c.084-12.948.157-25.895.23-38.843.047-8.424.097-16.849.152-25.273.023-3.588.044-7.175.062-10.763.07-14.39.215-28.777.597-43.161.037-1.412.07-2.823.1-4.234.044-1.954.101-3.907.159-5.86l.09-3.37c.474-4.526 1.73-7.272 4.564-10.814C480 198 480 198 483 197.375c4.034.84 5.451 2.439 8 5.625 2.135 4.178 2.293 8.063 2.287 12.663l.021 2.321c.02 2.572.028 5.144.036 7.715a6058.522 6058.522 0 0 1 .12 17.625c.06 10.943.159 21.886.255 32.828l.03 3.488c.236 27.473.692 54.942 1.185 82.412.065 3.654.13 7.308.193 10.962.395 22.576.816 45.15 1.469 67.72.325 11.31.543 22.62.685 33.934l.03 2.325c.076 6.18.146 12.359.215 18.538.117 10.477.255 20.953.44 31.428.033 2.004.061 4.009.09 6.013.054 3.61.135 7.219.225 10.829l.037 3.163c.19 6.185 1.052 9.976 4.682 15.036 4.657 4.316 8.392 5.362 14.586 5.281 5.286-.616 9.17-2.972 12.789-6.781 2.426-3.732 3.869-6.382 3.915-10.883l.042-2.656.016-2.906.04-3.1c.042-3.442.07-6.884.099-10.326l.084-7.401c.061-5.335.116-10.67.165-16.006.073-7.804.156-15.608.242-23.412.141-12.782.273-25.564.4-38.345.165-16.689.34-33.377.518-50.066a142861.342 142861.342 0 0 0 .212-19.977l.301-28.415a160438.409 160438.409 0 0 0 .293-27.568c.176-16.655.335-33.31.457-49.966.052-6.993.112-13.985.175-20.978.047-5.29.082-10.581.106-15.872.018-3.144.047-6.288.08-9.432.012-1.415.02-2.83.021-4.246.024-15.51.024-15.51 5.459-20.945 4.132-.556 6.433-.293 10.152 1.629 3.261 2.877 3.438 5.737 3.836 9.957a355.2 355.2 0 0 1 .324 7.789c.12 2.591.24 5.182.364 7.773l.122 3.475c.21 3.503.704 6.904 1.202 10.377.172 2.44.313 4.884.43 7.328l.216 4.308.113 2.275c.662 13.305 1.547 26.57 2.741 39.839 1.88 21.066 3.375 42.12 3.888 63.27.427 17.558 1.718 34.994 3.162 52.494 8.214 99.746 8.214 99.746 9.16 141.896.198 8.632.624 17.227 1.227 25.84l.228 3.338c.393 5.262.977 10.394 1.89 15.592 1.202 7.464 1.212 14.83 1.15 22.37-.018 2.343-.02 4.685-.02 7.028-.004 1.513-.01 3.026-.017 4.54l-.003 2.086c-.065 6.653-.956 12.537-3.165 18.796l-.586 2.21C576.4 663.454 570.52 672.247 563 681l-2.055 2.496c-5.911 6.94-12.63 12.159-19.945 17.504a2011.861 2011.861 0 0 0-4.5 3.375l-1.719 1.273L533 707l-2.445 1.832C519.629 718.104 512.322 733.025 510 747c-.25 3.252-.254 6.482-.227 9.742v2.812c0 3.036.016 6.07.032 9.106l.008 6.351c.008 5.549.027 11.097.05 16.645.02 5.672.03 11.343.04 17.014.02 11.11.055 22.22.097 33.33 2.197-.304 4.393-.61 6.59-.919l3.706-.517c5.665-.863 11.24-2.054 16.829-3.314l3.555-.8c10.27-2.358 20.304-5.19 30.32-8.45l3.285-1.06c3.575-1.158 7.146-2.328 10.715-3.503l3.363-1.102a248.154 248.154 0 0 0 18.98-7.202 201.673 201.673 0 0 1 5.259-2.157 69.248 69.248 0 0 0 6.27-2.937l2.202-1.158a4934.65 4934.65 0 0 0 10.218-5.443 894.26 894.26 0 0 1 7.9-4.133C659.2 788.805 678.49 776.309 696 762c.92-.73 1.838-1.46 2.785-2.21 5.989-4.802 11.676-9.871 17.297-15.09a568.661 568.661 0 0 1 8.168-7.388c3.865-3.46 7.548-7.054 11.156-10.78C737 725 737 725 739 724l1.336-2.242c1.817-3.011 3.881-5.322 6.289-7.883 14.68-15.887 27.224-33.367 38.225-51.964 1.54-2.56 3.187-5.045 4.837-7.536 4.367-6.816 7.814-14.09 11.313-21.375l1.035-2.133a1026.04 1026.04 0 0 0 2.965-6.18l.918-1.903c1.315-2.8 2.082-4.647 2.082-7.784h2c4.084-10.863 7.994-21.76 11.602-32.792 1.268-3.869 2.569-7.703 4.039-11.501 1.11-3.027 1.87-5.668 2.359-8.832a212.105 212.105 0 0 1 2.375-12.063c2.051-9.509 3.652-19.088 5.139-28.7.307-1.968.625-3.935.957-5.9 5.535-33.135 3.97-68.175-1.471-101.212l-.632-3.882c-2.573-15.854-2.573-15.854-7.368-31.118a66.235 66.235 0 0 1-.938-4.688c-1.143-6.265-3.108-12.259-5.062-18.312h-2l-.688-3.563C812.923 329.014 801.207 306.565 789 286l-1.089-1.844C783.587 276.872 778.94 269.878 774 263c-.794-1.126-1.587-2.252-2.379-3.379C766.64 252.554 761.538 245.646 756 239l-1.271-1.528c-19.58-23.453-41.271-45.292-66.057-63.26a663.204 663.204 0 0 1-3.481-2.542c-11.486-8.43-23.465-15.907-35.705-23.189a653.623 653.623 0 0 1-6.091-3.676C626.522 134.126 626.522 134.126 608 129v-2c-13.485-4.985-27.019-9.763-40.682-14.237-2.27-.747-4.534-1.51-6.798-2.275-1.506-.499-3.013-.995-4.52-1.488l-2.386-.782c-6.262-1.972-12.516-3.223-18.989-4.28l-3.045-.515a1600.61 1600.61 0 0 0-12.705-2.087c-1.609-.26-1.609-.26-3.25-.523l-2.71-.418C511 100 511 100 510 99c-43.983-7.697-94.264-6.252-137.732 3.521Z" fill="#F0F0F1"/><path d="M565 312h1l.168 2.415c.253 3.612.511 7.223.77 10.835l.263 3.8.264 3.653.238 3.364c.247 2.436.701 4.573 1.297 6.933 0 1.996-.002 3.992-.031 5.988.042 2.726.574 5.328 1.031 8.012l-.063 3.125c.052 3.212.386 5.759 1 8.875 1.3 7.206 1.487 14.424 1.721 21.727.14 4.186.292 8.31.873 12.46.502 4.083.5 7.963.407 12.063-.097 7.666.453 15.15 1.35 22.76.537 4.642.776 9.155.72 13.827-.013 3.34.206 6.642.43 9.976l.246 3.832c.246 2.614.665 4.838 1.316 7.355 0 2.11-.004 4.219-.031 6.328.035 2.975.27 5.896.531 8.86.403 4.714.514 9.331.438 14.062-.049 4.849.382 9 1.62 13.668.624 2.94.546 5.755.415 8.746.037 3.162.572 6.208 1.027 9.336.19 2.394.356 4.79.5 7.188.296 4.757.635 9.502 1.063 14.25.329 3.808.47 7.537.406 11.363.057 4.03.462 8.038.812 12.05.219 3.149.219 3.149.188 6.36-.11 2.875-.11 2.875 1.031 5.789.045 2.25.039 4.5 0 6.75-.04 4.88.213 9.427 1 14.25v7l.563 2.625C588 624 588 624 587.5 626.313c-.69 2.85-.69 2.85.125 6.375.693 4.453-.491 7.846-2.031 12.015-.665 2.571-.277 3.788.406 6.297a133.473 133.473 0 0 1-3 6 308.57 308.57 0 0 0-2 7c-1.35 3.978-3.184 6.723-5.875 9.938-2.136 2.562-4.108 5.034-5.883 7.863-2.994 4.272-6.541 7.788-10.242 11.449l-2.156 2.18-2.094 2.086-1.89 1.883c-1.877 1.616-3.627 2.559-5.86 3.601-9.68 7.175-19.468 15.141-25 26-.88 1.22-1.776 2.428-2.688 3.625-2.05 2.813-2.875 4.877-3.312 8.375l-1 3.125c-2.803 9.788-2.178 20.51-2.26 30.607a2856.82 2856.82 0 0 1-.077 7.805c-.07 6.449-.13 12.897-.19 19.345-.05 5.478-.105 10.956-.165 16.434-.026 2.565-.047 5.13-.068 7.695l-.05 4.685-.013 2.164c-.063 4.912-.063 4.912-1.177 7.14l2.216-.459c3.323-.685 6.647-1.363 9.971-2.041l3.487-.723 3.369-.683 3.094-.635c2.682-.43 5.154-.546 7.863-.459-3.79 2.212-7.894 3.083-12.125 4.063l-2.148.525a88.11 88.11 0 0 1-12.012 1.968l-2.688.257L510 842c-.07-12.18-.123-24.358-.155-36.538-.016-5.656-.037-11.312-.071-16.968-.033-5.466-.05-10.932-.059-16.398-.005-2.078-.016-4.156-.032-6.234-.16-21.263 3.651-37.89 17.833-54.37 4.4-4.414 9.397-7.919 14.484-11.492 17.065-12.702 34.164-29.1 38.438-50.938l.308-2.34C581 645 581 645 582 644c.893-4.969 1.16-9.847 1.168-14.883l.01-2.23c.005-1.552.007-3.103.007-4.655.002-2.33.02-4.66.04-6.99.03-7.895-.35-15.389-1.72-23.189-.867-5.238-1.207-10.509-1.567-15.803l-.259-3.686c-.57-8.646-.86-17.277-1.054-25.939-1.137-46.951-5.434-93.973-9.294-140.762-1.56-18.943-2.706-37.805-3.147-56.808a382.886 382.886 0 0 0-.746-16.805c-.45-6.76-.544-13.477-.438-20.25Z" fill="#0675A2"/><path d="M576 81h9v2h7v1l6 1v2l2.063.375c3.365.716 6.637 1.654 9.937 2.625v2h4v2l3.25-.125c3.407.114 4.957.338 7.75 2.125v2h4v2h5v2l2.125.375c3.052.663 5.928 1.597 8.875 2.625v2h2v2h5v2h4v2h5v2h4v2l5 1v2h2v2h4v2h2v2h5v2h2v2l2.375.25c2.625.75 2.625.75 3.938 2.813L692 135h4v2h5v2h2v2h2v2h2v2l5 1v2h2v2h2v2h2v2h5v2h2v2l1.938.813C729 160 729 160 730 163h2v2h4v2h2v2h3v2h2v2h2c1.625 1.375 1.625 1.375 3 3v2h2v2h2v2h2v2h2v2l1.938.813C760 188 760 188 761 191h2v2h2v4h2v2h3v2h2v2l5 1v3l2 1v4h2v2h2v2h2v2l3 1v3l2 1v2h2v2h2v4l3 1v2h2v4h2v2h2v4h2v2l3 1v4h2v2h2v4h2v4l3 1v2h2v4h2v4h2v5h3v3l2 1v4h2c1.498 3.371 2 5.204 2 9h2v4h3c1.498 3.371 2 5.204 2 9h2v6h2v4l3 1v5l2 1v6h2v7h2v6h2l1 6-2 1a3186.149 3186.149 0 0 1-4.875-12.438l-1.395-3.529c-2.453-6.312-4.49-12.371-5.73-19.033h-2l-.96-2.613c-4.183-10.94-9.42-21.123-15.04-31.387l-1.153-2.13c-14.365-26.502-31.936-51.205-52.468-73.28a250.338 250.338 0 0 1-5.543-6.27c-4.372-5.012-9.061-9.691-13.774-14.382l-2.591-2.604c-4.994-4.986-10.085-9.775-15.471-14.334l-1.714-1.46a829.992 829.992 0 0 0-4.661-3.915l-1.574-1.324c-2.86-2.395-2.86-2.395-6.051-4.301v-2l-1.629-.734c-2.98-1.591-5.581-3.52-8.308-5.516C693.85 138.475 679.23 128.704 664 120l-2.259-1.3c-11.49-6.575-23.157-12.427-35.32-17.655a604.444 604.444 0 0 1-6.952-3.065c-10.67-4.697-21.553-8.471-32.659-12.011l-3.376-1.086-3.03-.957C578 83 578 83 576 81Z" fill="#E7E7E7"/><path d="M469 327h1c.266 52.892.025 105.776-.666 158.664a5842.81 5842.81 0 0 0-.177 15.67 3873.88 3873.88 0 0 1-.242 19.286c-.05 3.317-.092 6.634-.122 9.95-.033 3.633-.091 7.264-.155 10.896l-.013 3.207c-.142 6.252-1.003 11.12-4.625 16.327-5.478 5.204-9.885 6.47-17.313 6.313-5.207-.606-8.152-3.576-11.5-7.313-2.88-3.95-3.3-6.822-3.383-11.626l-.055-2.81-.046-3.071-.06-3.262c-.064-3.595-.121-7.19-.178-10.786l-.13-7.626c-.116-6.821-.225-13.643-.331-20.464-.055-3.513-.111-7.027-.168-10.54-.745-45.94-1.126-91.87-.836-137.815h2c1.222 4.887.712 9.109.156 14.063-.276 2.855-.276 2.855.328 5.282.537 2.763.63 5.258.614 8.07l-.01 3.054-.026 3.156-.013 3.18c-.009 1.94-.02 3.882-.033 5.822A801.933 801.933 0 0 0 433 400c-.03 1.485-.03 1.485-.063 3-.084 3.052-.084 3.052 1.063 6 .748 4.112 1.027 7.005 0 11a82.334 82.334 0 0 0-.13 4.644l-.009 2.793.006 3.02-.004 3.163c-.002 3.397.004 6.795.012 10.192l.004 3.481c.017 14.074.112 28.14.558 42.207l.12 3.8c.143 5.948.143 5.948 1.443 11.7l-1 1c-.104 2.823-.14 5.615-.125 8.438l.006 2.574c.044 6.6.336 13.167.767 19.753a131.3 131.3 0 0 1 .227 12.423c-.03 4.742.55 7.779 3.125 11.812 3.052 1.52 3.052 1.52 6 2v2c6.552-.279 10.976-2.843 16-7 2.765-3.083 3.39-5.096 3.494-9.21l.1-3.207.062-3.513.099-3.728c.1-4.114.177-8.227.245-12.342l.037-2.147c.19-10.827.318-21.655.436-32.484.084-7.671.179-15.342.273-23.014l.031-2.544c.195-15.882.498-31.76.853-47.64.31-13.972.464-27.932.333-41.907l-.026-3.534-.035-3.018c.097-2.682.526-5.096 1.098-7.712.044-1.624.04-3.25 0-4.875-.101-10.05.52-20.09 1-30.125Z" fill="#0878A4"/><path d="M496 291h1l.031 1.795c.11 6.28.225 12.56.341 18.841.043 2.33.085 4.66.125 6.99.2 11.401.425 22.788 1.038 34.175.572 10.737.545 21.45.465 32.199a3707.05 3707.05 0 0 0-.063 11.063l-.025 2.506-.01 2.341-.016 2.036c.058 2.091.058 2.091.615 4.228.715 4.05.612 8.025.58 12.129l-.009 2.822c-.007 2.022-.016 4.045-.027 6.067-.018 3.23-.028 6.46-.036 9.69-.025 9.186-.06 18.37-.105 27.556-.267 33.73-.267 33.73 1.667 67.385.436 4.695.482 9.276.366 13.99-.055 5.3-.053 8.805 3.063 13.187 3.301 2.372 6.56 3.754 10.563 4.438 3.423-.615 6.301-1.956 9.437-3.438l2.164-.73c2.133-1.173 2.133-1.173 2.48-3.985l.168-3.222.208-3.215c.126-2.925.126-2.925-1.02-5.848.65-1.341 1.316-2.675 2-4l-1-2c.237-2.01.476-4.021.724-6.03.612-6.592.501-13.242.557-19.858l.055-5.125c.04-3.675.075-7.35.11-11.024.054-5.871.115-11.742.177-17.613.098-9.354.191-18.707.283-28.061a96360.644 96360.644 0 0 1 .625-61.608c.325-31.564.76-63.123 1.469-94.681h1a66385.992 66385.992 0 0 1-.007 175.698 7328.736 7328.736 0 0 1-.147 43.221c-.025 3.743-.038 7.485-.041 11.228a1276.9 1276.9 0 0 1-.078 12.805 386.716 386.716 0 0 0-.013 4.493c.02 7.96-.055 14.503-5.714 20.555-5.883 4.59-10.717 5.675-18 5-5.273-1.825-7.797-4.607-11-9-.941-2.823-1.182-4.783-1.299-7.721l-.12-2.964-.112-3.264-.126-3.462c-.534-15.795-.667-31.599-.843-47.402-.07-6.173-.142-12.346-.219-18.519l-.028-2.359c-.101-8.184-.232-16.365-.505-24.546-.973-29.475-.866-58.95-.82-88.437.011-7.47.017-14.942.022-22.413.01-15.304.027-30.609.05-45.913Z" fill="#167DA4"/><path d="M334 313h1c.131 8.363-.216 16.633-.797 24.975-.752 10.84-1.338 21.662-1.64 32.525-.362 12.25-1.245 24.433-2.203 36.647a1411.996 1411.996 0 0 0-2.36 35.478 1086.877 1086.877 0 0 1-2.188 32.197c-1.561 18.73-2.747 37.48-3.875 56.24l-.13 2.178c-.863 14.338-1.71 28.677-2.471 43.022l-.142 2.681c-.207 3.91-.407 7.819-.599 11.73l-.2 3.968-.161 3.329c-.234 3.03-.234 3.03-.75 6.01-.525 3.278-.614 6.377-.617 9.696l-.004 3.756.012 3.88-.012 3.94.004 3.736.004 3.423c-.165 2.519-.165 2.519 1.129 3.589.257 2.01.511 4.02.747 6.032 1.835 14.719 7.37 26.844 17.253 37.968l2.273 2.668c7.185 8.216 15.127 14.903 24.102 21.082 3.614 2.489 6.667 4.98 9.625 8.25l2.04 2.168c6.35 6.879 6.35 6.879 6.96 10.832l-4-1v-3h-2l-1-3-2-1v-2l-1.938-.813C368 713 368 713 367 710h-2v-2l-2.188-.875L355 704v-2l-3-1v-2l-2.563-.625c-8.092-3.237-12.057-9.433-16.437-16.688-1.661-2.85-1.661-2.85-4.04-3.117L327 678c-.836-1.645-.836-1.645-1.375-3.813-1.92-6.598-4.706-14.268-9.625-19.187-.467-2.89-.837-5.717-1.125-8.625l-.262-2.43A980.6 980.6 0 0 1 314 638h-1l.035-2.52c.01-1.086.018-2.173.027-3.293l.036-3.269c.038-2.983.038-2.983-1.098-5.918h2l-.254-3.246-.308-4.192-.17-2.142c-.13-1.804-.203-3.612-.268-5.42l1-1c.044-2.675.045-5.327 0-8v-4l-.035-2.508-.027-2.617-.036-2.633C314 585 314 585 315 583c0-2.121-.004-4.242-.031-6.363.044-3.707.44-7.358.812-11.043.191-2.262.256-4.452.219-6.719 0-2.875 0-2.875 1-3.875l-.063-3.938c-.066-5.788.595-11.413 1.28-17.15.714-6.06 1.188-12.097 1.537-18.19C320 513 320 513 321 510c.083-2.138.107-4.278.098-6.418l-.01-3.799-.026-3.97c-.005-1.336-.01-2.671-.013-4.006-.012-3.27-.028-6.538-.049-9.807h2l-.053-1.863c-.142-9.658.626-19.225 1.335-28.852 1.207-16.484 2.192-32.826 1.652-49.364C326 400 326 400 327 397c.068-2.742-.002-5.469-.063-8.21.063-2.79.063-2.79.625-5.454.66-2.478.66-2.478-.562-5.336.27-1.918.27-1.918.813-4.188 3.018-13.874 3.779-28.183 4.812-42.312l.406-5.418c.327-4.36.65-8.721.969-13.082Z" fill="#2D87AA"/><path d="m844 616 2 1v5l-3 1v4h-2v6h-2l-.438 2.25c-.464 2.27-.98 4.508-1.562 6.75h-3v6h-2v5h-2v4h-2v4l-2 1c-.652 2.025-.652 2.025-1 4h-2v2h-2v4h-2v4h-2l-1 5h-2v2h-2v4h-2v4h-2l-.938 2.375C806 696 806 696 805 698h-2v2h-2v4h-2v2h-2l-1 3h-2v4h-2v2h-2v4h-2l-1 3h-2v2h-2v4h-2v2c-1.813 2.125-1.813 2.125-4 4h-3v3h-2v4h-2v2h-3v2h-2v2h-2v2h-2l-.813 1.938C759 753 759 753 756 754v2h-2v2h-2v2h-2v2h-2l-1 3h-2v2h-2v2h-2v2h-3v2h-2v2h-2v2h-2l-.688 1.938C730 781 730 781 727.375 781.75L725 782v2h-2v2h-2v2l-2 2h-3l-1 3c-2.645 1.81-4.954 2.985-8 4v2h-4v2c-1.688 2.125-1.688 2.125-4 4-2.75.25-2.75.25-5 0l-.688 1.938C692 809 692 809 689.375 809.75L687 810v2h-2v2c-3.135 1.858-5.375 2.201-9 2v2h-2v2h-4l-1 3h-4v2h-2v2h-5v2h-4v2c-3.135 1.858-5.375 2.201-9 2l-1 3c-2.985 1.955-4.264 2-8 2v2h-3c1-3 1-3 3.633-4.543l3.492-1.644a1547.15 1547.15 0 0 0 3.844-1.856l2.015-.97c9.918-4.856 19.55-10.312 29.016-15.987l3.246-1.934c7.2-4.35 14.012-9.042 20.754-14.066 1.853-1.335 3.707-2.668 5.563-4 4.522-3.282 8.88-6.733 13.218-10.254C720 783 720 783 723.313 780.813c2.964-2 5.189-4.256 7.687-6.813a288.96 288.96 0 0 1 3.375-2.938c4.202-3.646 8.295-7.405 12.375-11.187l1.97-1.812c2.758-2.567 5.258-5.035 7.608-7.993L758 748h2l.777-1.777c1.335-2.426 2.768-3.898 4.785-5.785 5.571-5.419 10.604-11.407 15.075-17.766L782 721h2l.766-1.676c1.439-2.71 3.152-5.05 4.984-7.511 6.106-8.099 6.106-8.099 11.25-16.813h2c.26-.713.52-1.426.79-2.16 1.276-2.995 2.813-5.55 4.585-8.278l1.773-2.746c1.27-1.93 2.56-3.844 3.872-5.746 2.041-3.165 3.67-6.36 5.293-9.758 2.675-5.508 5.665-10.638 9.109-15.714 1.872-3.081 3.227-6.269 4.578-9.598l2.445-5.898c1.355-3.274 2.71-6.548 4.059-9.825l1.316-3.175 1.196-2.896C843 617 843 617 844 616Zm-789 0c3.074 1.537 3.346 3.948 4.582 7.105.518 1.298 1.038 2.595 1.558 3.892l.826 2.073c4.812 12.032 10.034 23.26 16.982 34.24l1.568 2.48 1.383 2.115c1.237 2.353 1.698 4.479 2.101 7.095h2l1.137 2.195c3.278 6.335 3.278 6.335 7.488 12.055 2.175 2.519 3.701 5.012 5.297 7.918 2.055 3.492 4.606 6.628 7.078 9.832 1.63 2.121 3.255 4.246 4.875 6.375l2.367 3.086C116 719 116 719 116 721l1.836.785c2.374 1.333 3.275 2.42 4.789 4.653 3.408 4.787 7.373 8.979 11.398 13.242C136 742 136 742 136 744l1.809.785c2.37 1.314 3.552 2.56 5.254 4.653 6.95 8.204 14.732 15.627 22.937 22.562l2.82 2.45c8.418 7.276 17.19 14 26.18 20.55.686.502 1.372 1.004 2.08 1.52 10.633 7.746 21.584 14.807 32.92 21.48l1.99 1.173c7.2 4.22 14.482 8.219 22.01 11.827v2l-8-2v-2h-4v-2h-5v-2h-2v-2l-5-1v-2h-4v-2h-2v-2l-2.25.125c-2.838-.129-4.338-.696-6.75-2.125v-2h-2v-2l-2.375-.25C208 809 208 809 206.687 806.937L206 805l-2.25.25c-2.75-.25-2.75-.25-5.063-2.125C197 801 197 801 197 799h-4v-2l-1.688-.813c-2.524-1.296-4.95-2.612-7.312-4.187v-2l-3-1-2-1v-2h-2v-2h-2v-2l-2.375-.25C170 781 170 781 168.687 778.937L168 777h-2v-2h-2v-2h-2v-2h-3v-2h-2v-2h-2v-2l-3-1v-2h-2v-2h-2v-2h-2v-2h-2v-2l-1.938-.813C140 752 140 752 139 749h-2v-2h-2v-2h-2v-2h-3v-2h-2v-4h-2v-3l-3-1c-2.188-1.438-2.188-1.438-4-3v-2h-2v-4h-2v-2l-3-1v-2h-2v-4h-2v-2h-2v-2l-3-1v-4h-2v-2h-2v-4h-2v-2h-2c-3-4.385-3-4.385-3-7h-2v-4h-2v-4h-2v-2l-3-1v-4h-2v-4h-2v-4h-2v-2l-3-1 .25-2.313L74 660a125.01 125.01 0 0 0-4-3v-4h-2v-5h-2v-6h-3c-1.498-3.371-2-5.204-2-9h-2v-6h-2v-4l-3-1a99.984 99.984 0 0 1 0-5l1-1Z" fill="#C5C5C5"/><path d="M565 312h1l.168 2.415c.253 3.612.511 7.223.77 10.835l.263 3.8.264 3.653.238 3.364c.247 2.436.701 4.573 1.297 6.933 0 1.996-.002 3.992-.031 5.988.042 2.726.574 5.328 1.031 8.012l-.063 3.125c.052 3.212.386 5.759 1 8.875 1.3 7.206 1.487 14.424 1.721 21.727.14 4.186.292 8.31.873 12.46.502 4.083.5 7.963.407 12.063-.097 7.666.453 15.15 1.35 22.76.537 4.642.776 9.155.72 13.827-.013 3.34.206 6.642.43 9.976.08 1.264.162 2.529.246 3.832.246 2.614.665 4.838 1.316 7.355 0 2.11-.004 4.219-.031 6.328.035 2.975.27 5.896.531 8.86.495 5.803.514 11.508.34 17.328.13 2.839.472 4.954 1.162 7.662 1.042 4.562 1.228 8.79 1.123 13.45l-.023 2.403c-.032 3.34-.088 6.68-.143 10.021-.15 9.957.186 19.48 1.587 29.342.637 5.055.677 10.02.579 15.106l-.027 2.816A772.667 772.667 0 0 1 583 593c-1.831-3.168-2.34-5.72-2.598-9.355l-.237-3.266-.227-3.567-.259-3.809c-.562-8.79-.855-17.572-1.054-26.378-1.137-46.951-5.434-93.973-9.294-140.762-1.56-18.943-2.706-37.805-3.147-56.808a382.886 382.886 0 0 0-.746-16.805c-.45-6.76-.544-13.477-.438-20.25Z" fill="#2B87AB"/><path d="M162 167h6c-3.006 3.683-5.951 7.062-9.59 10.125-5.059 4.372-9.758 9.076-14.472 13.813l-2.604 2.591c-6.51 6.52-12.637 13.228-18.334 20.471a3437.33 3437.33 0 0 1-4.25 5.188l-2.398 2.937a799.608 799.608 0 0 1-4.329 5.25c-15.936 19.412-28.715 41.497-40.335 63.688A7876.436 7876.436 0 0 0 67 300l-1-.001v-6h2l.438-2.25c.464-2.27.98-4.508 1.562-6.75h2v-4l2-1v-3h3v-5h2v-4h2v-4h2l1-3h2v-4h2v-4h2v-2h2l1-5h2v-2h2v-4h2v-2h2v-4h2l1-3h2v-4h2v-2h2v-2l2-1c.652-2.025.652-2.025 1-4h2v-2h2v-2h2v-2h2l.438-1.875C122 208 122 208 123 206h3l2-5h2v-2h3v-2h2v-4h2v-2h2l.813-1.938C141 187 141 187 144 186v-2h2v-2h2v-2h2v-2h2v-2c1.375-1.625 1.375-1.625 3-3h2v-2h2v-2h3v-2Z" fill="#E4E4E4"/><path d="M315 583h1l.031 1.967c.108 6.732.223 13.463.341 20.195.044 2.515.085 5.03.125 7.546.058 3.606.122 7.213.187 10.82l.05 3.43.06 3.155.048 2.793c-.072 2.082-.072 2.082 1.158 3.094.257 2.01.511 4.02.747 6.032 1.835 14.719 7.37 26.844 17.253 37.968l2.273 2.668c7.185 8.216 15.127 14.903 24.102 21.082 3.614 2.489 6.667 4.98 9.625 8.25l2.04 2.168c6.35 6.879 6.35 6.879 6.96 10.832l-4-1v-3h-2l-1-3-2-1v-2l-1.938-.813C368 713 368 713 367 710h-2v-2l-2.188-.875L355 704v-2l-3-1v-2l-2.563-.625c-8.092-3.237-12.057-9.433-16.437-16.688-1.661-2.85-1.661-2.85-4.04-3.117L327 678c-.836-1.645-.836-1.645-1.375-3.813-1.92-6.598-4.706-14.268-9.625-19.187-.467-2.89-.837-5.717-1.125-8.625l-.262-2.43A980.6 980.6 0 0 1 314 638h-1l.035-2.52c.01-1.086.018-2.173.027-3.293l.036-3.269c.038-2.983.038-2.983-1.098-5.918h2l-.254-3.246-.308-4.192-.17-2.142c-.13-1.804-.203-3.612-.268-5.42l1-1c.044-2.675.045-5.327 0-8v-4l-.035-2.508c-.01-.863-.018-1.727-.027-2.617l-.036-2.633C314 585 314 585 315 583Z" fill="#13749C"/><path d="M286 92h7c-2.6 1.734-4.677 2.724-7.563 3.813-3.496 1.367-6.849 2.846-10.187 4.562-5.233 2.687-10.62 4.945-16.05 7.195-2.914 1.302-5.473 2.784-8.2 4.43a544.397 544.397 0 0 1-5.563 2.996l-3.164 1.693c-2.18 1.165-4.363 2.326-6.546 3.485l-3.165 1.697-2.87 1.53c-2.787 1.655-5.194 3.54-7.692 5.599a86.5 86.5 0 0 1-4.188 2.313c-5.235 2.848-9.982 6.203-14.812 9.687-1.393.985-2.786 1.97-4.18 2.953-7.928 5.628-15.663 11.332-22.936 17.796C172.194 165 172.194 165 170 165v-2h2l1-5h2v-2h2v-2h5v-2h2v-2h2v-2h2l1-3h4v-2h2v-2h2v-2c2.647-1.46 3.894-2 7-2v-2h4l.688-1.938C210 131 210 131 212.625 130.25L215 130v-2h2v-2h5v-2h2v-2h4v-2l1.938-.375L232 119l1-2h2v-2h4v-2h5v-2h2v-2h2v-2h9v-2c4.385-3 4.385-3 7-3v-2h2v-2h5v-2l8-1v-1h7v-2Z" fill="#E8E8E8"/><path d="m844 616 2 1v5l-3 1v4h-2v6h-2l-.438 2.25c-.464 2.27-.98 4.508-1.562 6.75h-3v6h-2v5h-2v4h-2v4l-2 1c-.652 2.025-.652 2.025-1 4h-2v2h-2v4h-2v4h-2l-1 5h-2v2h-2v4h-2v4h-2l-.938 2.375C806 696 806 696 805 698h-2v2h-2v4h-2v2h-2l-1 3h-2v4h-2v2h-2v4h-2l-1 3h-2v2h-2v4h-2v2c-1.813 2.125-1.813 2.125-4 4h-3v3l-2 1.188c-4.318 2.608-7.528 6.185-11 9.812 0-3 0-3 1.652-4.875l2.285-2.125a126.518 126.518 0 0 0 15.696-18.324L782 721h2l.766-1.676c1.439-2.71 3.152-5.05 4.984-7.511 6.106-8.099 6.106-8.099 11.25-16.813h2c.26-.713.52-1.426.79-2.16 1.276-2.995 2.813-5.55 4.585-8.278l1.773-2.746c1.27-1.93 2.56-3.844 3.872-5.746 2.041-3.165 3.67-6.36 5.293-9.758 2.675-5.508 5.665-10.638 9.109-15.714 1.872-3.081 3.227-6.269 4.578-9.598l2.445-5.898c1.355-3.274 2.71-6.548 4.059-9.825l1.316-3.175 1.196-2.896C843 617 843 617 844 616Zm-789 0c3.074 1.537 3.346 3.948 4.582 7.105.518 1.298 1.038 2.595 1.558 3.892l.826 2.073c4.812 12.032 10.034 23.26 16.982 34.24l1.568 2.48 1.383 2.115c1.237 2.353 1.698 4.479 2.101 7.095h2l1.137 2.195c3.278 6.335 3.278 6.335 7.488 12.055 2.175 2.519 3.701 5.012 5.297 7.918 2.055 3.492 4.606 6.628 7.078 9.832 1.63 2.121 3.255 4.246 4.875 6.375l2.367 3.086C116 719 116 719 116 721l1.809.758c2.496 1.415 3.604 2.786 5.254 5.117l1.472 2.055L126 731c.996 1.336 1.995 2.67 3 4-3.574-.325-5.557-.639-8.375-2.938C119 730 119 730 119 728h-2v-4h-2v-2l-3-1v-2h-2v-4h-2v-2h-2v-2l-3-1v-4h-2v-2h-2v-4h-2v-2h-2c-3-4.385-3-4.385-3-7h-2v-4h-2v-4h-2v-2l-3-1v-4h-2v-4h-2v-4h-2v-2l-3-1 .25-2.313L74 660a125.01 125.01 0 0 0-4-3v-4h-2v-5h-2v-6h-3c-1.498-3.371-2-5.204-2-9h-2v-6h-2v-4l-3-1a99.984 99.984 0 0 1 0-5l1-1Z" fill="#CBCBCB"/><path d="M534 294h1c.03 26.27.051 52.542.063 78.813v2.926c.043 95.586.043 95.586-.563 143.324l-.036 2.859A8990.242 8990.242 0 0 1 534 554h-1c-.133-10.183-.264-20.366-.391-30.549-.06-4.732-.12-9.465-.182-14.198-.502-38.332-.489-76.634-.023-114.966l.1-8.49c.359-30.602.83-61.2 1.496-91.797Z" fill="#2B89AE"/><path d="m536 704 2 1v3l-1.938.313L534 709l-1 3-3 1a206.38 206.38 0 0 0-2 5l-2.063 2.563c-2.02 2.182-2.02 2.182-2.37 4.312-.915 3.43-3.132 5.961-5.192 8.809-1.483 2.498-1.931 4.465-2.375 7.316l-1 3.125c-2.803 9.788-2.178 20.51-2.26 30.607a2856.82 2856.82 0 0 1-.077 7.805c-.07 6.449-.13 12.897-.19 19.345-.05 5.478-.105 10.956-.165 16.434-.026 2.565-.047 5.13-.068 7.695l-.05 4.685-.013 2.164c-.063 4.912-.063 4.912-1.177 7.14l2.216-.459c3.323-.685 6.647-1.363 9.971-2.041l3.487-.723 3.369-.683 3.094-.635c2.682-.43 5.154-.546 7.863-.459-3.79 2.212-7.894 3.083-12.125 4.063l-2.148.525a88.11 88.11 0 0 1-12.012 1.968l-2.688.257L510 842c-.07-12.18-.123-24.358-.155-36.538-.016-5.656-.037-11.312-.071-16.968-.033-5.466-.05-10.932-.059-16.398-.005-2.078-.016-4.156-.032-6.234-.17-22.677 4.414-39.963 20.317-56.862a66.97 66.97 0 0 1 6-5Z" fill="#1F79A1"/><path d="M430 352h2c1.222 4.887.712 9.109.156 14.063-.276 2.855-.276 2.855.328 5.282.537 2.763.63 5.258.614 8.07l-.01 3.054-.026 3.156-.013 3.18c-.009 1.94-.02 3.882-.033 5.822A801.933 801.933 0 0 0 433 400l-.063 3c-.084 3.052-.084 3.052 1.063 6 1.329 7.309 1.329 7.309 0 11h-2l.038 2.278c.162 9.782.315 19.565.462 29.347l.036 2.395c.36 24.14.557 48.275.526 72.418l-.002 2.062A10530.8 10530.8 0 0 1 433 553h-1a43133.048 43133.048 0 0 1-1.036-58.74c-.63-36.982-1.166-73.958-1.089-110.947l.005-2.508c.022-9.602.06-19.203.12-28.805Z" fill="#368CAD"/><path d="M469 327h1c.065 12.917.103 25.833.125 38.75l.005 3.04c.062 41.37-.469 82.723-1.13 124.085l-.036 2.269c-.308 19.285-.63 38.57-.964 57.856h-1c-.023-24.165-.041-48.33-.052-72.495-.005-11.22-.012-22.44-.023-33.66-.01-9.778-.017-19.556-.02-29.334 0-5.179-.003-10.357-.01-15.536-.008-4.873-.01-9.746-.008-14.619 0-1.79-.002-3.579-.006-5.368a2322.47 2322.47 0 0 1-.001-7.325l-.01-2.15c.012-3.639.317-6.968 1.13-10.513.044-1.624.04-3.25 0-4.875-.101-10.05.52-20.09 1-30.125Z" fill="#2F89AB"/><path d="M403 293h1c.062 36.219-.057 72.432-.372 108.65-.045 5.088-.086 10.176-.125 15.265-.245 31.703-.658 63.392-1.503 95.085-1.767-3.055-2.249-5.249-2.243-8.764l-.01-2.877.023-3.113v-3.257c.004-3.517.023-7.034.043-10.551l.019-7.348c.05-14.036.297-28.046.812-42.072.603-17.677.404-35.374.319-53.06-.043-10.954-.052-21.818.779-32.744.705-10.21.646-20.485.82-30.714l.131-7.152c.106-5.783.208-11.565.307-17.348Z" fill="#1480AA"/><path d="M532 471h1c.07 10.849.123 21.697.155 32.546.016 5.038.037 10.075.071 15.113.033 4.863.05 9.725.059 14.588.005 1.854.016 3.708.032 5.562.022 2.6.025 5.2.024 7.799l.032 2.315c-.027 4.778-.848 8.018-3.373 12.077-4.427 4.194-8.374 6.079-14.438 6.313-4.877-.138-8.448-1.216-12.003-4.743-3.449-3.95-4.687-6.885-4.673-12.041v-2.73l.016-2.936.005-3.014c.005-3.179.018-6.358.03-9.537.006-2.154.01-4.308.014-6.462.011-5.284.028-10.567.049-15.85h1c.343 4.353.674 8.708 1 13.063l.291 3.883c.475 6.651.802 13.2.647 19.866-.056 5.301-.054 8.806 3.062 13.188 3.301 2.372 6.56 3.754 10.563 4.438 3.423-.615 6.301-1.956 9.437-3.438l2.164-.73c2.133-1.173 2.133-1.173 2.48-3.985l.168-3.222.208-3.215c.126-2.925.126-2.925-1.02-5.848.65-1.341 1.316-2.675 2-4l-1-2c.23-2.077.465-4.154.722-6.228.544-5.43.52-10.886.594-16.338l.063-3.863c.054-3.358.105-6.717.153-10.076.05-3.439.106-6.878.161-10.317.107-6.726.209-13.452.307-20.178Z" fill="#0A749F"/><path d="M367 459h1c1.298 14.82 1.08 29.636 1 44.5-.027 5.01-.047 10.02-.063 15.031l-.025 3.435c-.056 10.16-.056 10.16 2.088 20.034l-.5 3.188c-.587 4.476-.496 7.4.5 11.812 3.175 3.844 6.113 6.778 11.188 7.375 4.633-.456 8.004-1.702 11.812-4.375 1.973-2.478 1.973-2.478 3-5l1-2c.826-7.495 1.058-14.979.969-22.512.044-3.557.5-6.972 1.031-10.488h1c.1 4.856.172 9.712.22 14.57.02 1.649.047 3.299.082 4.948.049 2.381.071 4.761.089 7.142l.062 2.21c.003 5.473-1.328 8.62-4.453 13.13-5.9 4.576-10.71 5.675-18 5-5.675-1.964-9.314-5.628-12-11-.094-3.051-.126-6.08-.114-9.131V544c0-3.139.009-6.277.016-9.415l.005-6.516c.003-5.724.013-11.448.024-17.173.01-5.838.015-11.676.02-17.514.01-11.461.028-22.922.049-34.383Z" fill="#09749E"/><path d="m702 754 3 1c-13.872 11.05-27.9 21.673-43 31l-1.747 1.084c-18.996 11.737-38.686 22.917-59.64 30.748l-2.086.78c-7.027 2.607-14.115 5.019-21.229 7.376-2.129.706-4.255 1.418-6.382 2.131-21.762 7.266-21.762 7.266-25.916 5.881 6.592-2.782 13.158-5.014 20.063-6.875 19.035-5.302 37.461-12.28 55.205-20.992 2.795-1.35 4.58-2.133 7.732-2.133v-2l3.148-1.54c7.83-3.851 15.459-7.813 22.852-12.46a2521.89 2521.89 0 0 1 3.566-2.172c14.69-8.984 29.095-18.68 42.012-30.11.8-.566 1.599-1.134 2.422-1.718Z" fill="#1A83B3"/><path d="M73 563c4.167 3.36 5.126 7.053 6.313 12.063C84.5 595.239 92.98 614.28 102 633l1.013 2.113c4.488 9.323 9.426 18.149 14.987 26.887.817 1.324 1.632 2.65 2.445 3.977 4.876 7.932 9.924 15.598 15.555 23.023l-1 2c-7.48-9.184-13.73-18.823-19.785-28.992-1.567-2.59-3.23-5.11-4.903-7.633-3.601-5.6-6.47-11.519-9.382-17.496-1.662-3.392-3.484-6.666-5.368-9.942C93.284 622.85 92.207 619.668 92 615h-2a4836.674 4836.674 0 0 1-5.891-15.986 2032.03 2032.03 0 0 0-2.308-6.239 2972.84 2972.84 0 0 1-3.676-9.962l-1.191-3.182C74.887 574.027 73.442 568.957 73 563Z" fill="#1E87B8"/><path d="M365 382h1l.031 1.84c.108 6.31.223 12.62.341 18.93.044 2.356.085 4.712.125 7.069.058 3.383.122 6.766.187 10.15l.05 3.2.06 2.972.048 2.618c.078 2.395.078 2.395 1.158 5.221.256 1.974.457 3.955.625 5.938.095 1.04.19 2.08.29 3.152.066 3.06-.074 5.76-.39 8.782-.835 9.674-.761 19.379-.841 29.081l-.063 6.338c-.055 5.524-.105 11.048-.153 16.571-.05 5.652-.106 11.303-.161 16.954-.107 11.062-.209 22.123-.307 33.184h-1c-.181-10.479-.346-20.958-.5-31.438l-.036-2.447c-.457-31.435-.551-62.865-.526-94.303l.002-3.32c.011-13.497.031-26.995.06-40.492Z" fill="#4B96B3"/><path d="m387 746 3 1v95c-5.656-.628-10.868-1.264-16.375-2.438l-3.586-.746C367 838 367 838 364 836c8.03.845 15.987 1.932 24 3l-1-93Z" fill="#1E7AA2"/><path d="M824 277h2v3l2 1v4h2c1.498 3.371 2 5.204 2 9h2v4h3c1.498 3.371 2 5.204 2 9h2v6h2v4l3 1v5l2 1v6h2v7h2v6h2l1 6-2 1a3186.149 3186.149 0 0 1-4.875-12.438l-1.395-3.529c-2.453-6.312-4.49-12.371-5.73-19.033h-2l-.96-2.613c-3.341-8.739-7.256-16.896-11.875-25.039l-1.286-2.328-1.17-2.06c-.862-2.384-.54-3.606.291-5.96Z" fill="#DFDFDF"/><path d="M854 350h3v8h2v7h2v8h2v11l3 1v10h2v11h2v19h2v19c-2.823-2.823-2.559-5.757-2.86-9.559a4660.99 4660.99 0 0 0-.433-4.758l-.224-2.532c-1.921-21.328-5.683-41.813-11.922-62.338-1.468-4.922-2.134-9.717-2.561-14.813Z" fill="#DBDBDB"/><path d="M365 296h1l.076 3.87c.118 5.96.239 11.92.361 17.88l.067 3.265c.256 12.375.553 24.742 1.058 37.11.978 24.976.33 49.91-.562 74.875h-1c-.897-32.398-1.09-64.779-1.063-97.188l.003-2.983c.012-12.277.032-24.553.06-36.829Z" fill="#097DAA"/><path d="M336 683c4.293 2.316 7.592 5.318 11.063 8.688 5.115 4.856 10.292 8.842 16.28 12.593 5.38 3.48 9.153 7.278 12.97 12.344l1.376 1.773C381 722.74 381 722.74 381 725l-4-1v-3h-2l-1-3-2-1v-2l-1.938-.813C368 713 368 713 367 710h-2v-2l-2.188-.875L355 704v-2l-3-1v-2l-2.563-.625C342.29 695.515 338.38 690.757 335 684l1-1Z" fill="#0F6F97"/><path d="M334 313h1a360.477 360.477 0 0 1-.55 23.598c-.06 1.065-.118 2.13-.178 3.228-.19 3.412-.386 6.824-.584 10.236l-.202 3.519c-.928 16.037-2.079 31.968-4.17 47.9-.522 4.165-.922 8.34-1.316 12.519-1.728-3.236-2.249-5.37-2.188-9.063l.02-2.597C326 400 326 400 327 397c.068-2.742-.002-5.469-.063-8.21.063-2.79.063-2.79.625-5.454.66-2.478.66-2.478-.562-5.336.27-1.918.27-1.918.813-4.188 3.018-13.874 3.779-28.183 4.812-42.312l.406-5.418c.327-4.36.65-8.721.969-13.082Z" fill="#1281AC"/><path d="M71 388h1c.391 7.692-.875 14.6-3 22l-1 1c-.21 1.954-.368 3.914-.5 5.875-.223 3.312-.448 5.969-1.5 9.125a87.096 87.096 0 0 0-.316 4.45l-.127 2.568-.12 2.67-.13 2.705c-.106 2.202-.208 4.404-.307 6.607h-1c-1.216 10.365-1.331 20.766-1.563 31.188l-.13 5.486c-.106 4.442-.208 8.884-.307 13.326h-1c-.465-26.996-.165-53.292 4-80l.582-3.764A824.744 824.744 0 0 1 69 391h2v-3Z" fill="#52A5CB"/><path d="M808 611c1.328 2.998.933 4.196-.152 7.363a217.01 217.01 0 0 1-1.785 3.95c-.318.702-.635 1.405-.961 2.13C801.728 631.805 797.9 638.905 794 646l-1.488 2.82c-8.151 15.384-18.018 29.801-28.324 43.805l-2.145 2.914c-1.872 2.255-3.62 3.838-6.043 5.461 1.5-3.114 3.082-6.122 5-9h2l.707-2.086c1.564-3.526 3.695-6.46 5.98-9.539A279.639 279.639 0 0 0 782 662l1.445-2.34A486.02 486.02 0 0 0 788 652l1.056-1.802c4.458-7.642 8.577-15.184 11.819-23.436 1.498-3.678 3.281-7.18 5.11-10.703 1.127-2.169 1.127-2.169 2.015-5.059Z" fill="#1A86B8"/><path d="M581 645h1c.082 2.688.14 5.374.188 8.063l.076 2.279c.163 12.612-8.515 20.858-16.623 29.576C564 686 564 686 561.797 685.676L560 685l2.125-2.5c9.014-10.867 17.486-23.052 18.875-37.5Z" fill="#20769A"/><path d="M837 477h1c1.094 29.77-3.007 60.538-12 89h-1c.61-5.188 1.37-10.294 2.34-15.43l.385-2.046c.402-2.133.807-4.266 1.212-6.399l.803-4.262.396-2.096.779-4.141c.519-2.75 1.053-5.488 1.685-8.213 1.965-8.488 2.069-17.178 2.462-25.85.116-2.47.234-4.94.357-7.41.076-1.527.147-3.054.214-4.58.15-3.08.387-5.632 1.367-8.573Z" fill="#228FC1"/><path d="M496 291h1l.031 1.795c.11 6.28.225 12.56.341 18.841.043 2.33.085 4.66.125 6.99.259 14.808.697 29.585 1.503 44.374h-1l-1 56h-1V291Z" fill="#2A90B9"/><path d="M862 558h1v11h-2v6h-2v7h-2l.105 1.941c.185 5.893-.375 9.826-3.105 15.059h-2v6h-2v7h-2v4h-3c.616-4.32 1.642-8.252 3.063-12.375l1.097-3.21L850 598h2l.32-3.883c.582-5.217 1.966-10.004 3.555-14.992a4722.2 4722.2 0 0 0 1.625-5.258l.785-2.528c1.35-4.416 2.547-8.872 3.715-13.339Z" fill="#D0D0D0"/><path d="M444.595 95.794c3.861.019 7.722.02 11.583.02l7.506.018 3.425.003c7.997.047 15.922.511 23.891 1.165v1l-2.494-.007c-7.81-.02-15.62-.035-23.43-.045-4.015-.005-8.029-.012-12.043-.023-3.883-.011-7.767-.017-11.651-.02-1.472-.002-2.943-.005-4.414-.01-13.515-.053-13.515-.053-26.968 1.105l-1 1a76.48 76.48 0 0 1-4.41.465l-2.752.236c-1.906.155-3.812.31-5.719.461-4.31.373-8.427.82-12.615 1.928-3.42.888-5.182.948-8.504-.09v-1a1465.9 1465.9 0 0 1 10.188-1.875l2.79-.527c18.814-3.376 37.542-3.898 56.617-3.804Z" fill="#4EBDE8"/><path d="m37 558 1 4h2l.516 2.605c1.505 7.345 3.295 14.353 5.714 21.457.812 3.098.908 5.75.77 8.938h2l.75 3.375c1.066 4.333 2.685 8.333 4.445 12.426C55 613 55 613 55 616h-3v-4h-2v-7h-2v-6h-2c-2.682-5.364-3.315-9.01-3-15h-2v-9h-2v-8h-2v-9Z" fill="#D0D0D0"/><path d="M492 98c2.855.115 5.708.242 8.563.375l2.423.094c4.976.243 9.224 1.068 14.014 2.531 3.424.737 6.868 1.367 10.313 2 19.756 3.678 19.756 3.678 28.875 5.938l1.998.474c4.53 1.12 8.585 2.663 12.814 4.588v2c-7.647-1.867-15.267-3.75-22.813-6-16.489-4.74-33.162-7.103-50.187-9v-2h-6v-1Z" fill="#31B6EA"/><path d="M834 414h1c4.212 26.377 4.458 52.337 4 79h-1a32434.95 32434.95 0 0 1-1.565-26.028c-.24-4.03-.482-8.06-.726-12.09-.236-3.896-.47-7.793-.7-11.69-.088-1.479-.178-2.957-.268-4.436-.505-8.258-.879-16.48-.741-24.756Z" fill="#47A0CA"/><path d="M255 833c8.644 2.624 16.77 6.314 25 10v2h5v2l2.352.277c4.857.962 9.371 2.61 14.023 4.285l2.809.999c2.273.808 4.545 1.622 6.816 2.439v2h-5v-1l-7-1v-1l-6-1v-2l-5-1v-2l-3.25.125c-3.407-.114-4.957-.338-7.75-2.125v-2h-4v-2h-5v-2h-4v-2l-2.25-.375c-2.551-.58-4.477-1.362-6.75-2.625v-2Z" fill="#C4C4C4"/><path d="M64 302c1.236 3.708.568 4.675-.938 8.188l-1.152 2.73L61 315h-2l-.188 2.703c-.857 5.997-3.51 11.49-5.812 17.047l-2.75 6.734-1.234 2.992A96.83 96.83 0 0 0 47 350h-2l1-7h2v-6h2v-7h2v-6l2-1v-5l3-1v-4h2v-4h2l.375-2.375C62 304 62 304 64 302Z" fill="#DEDEDE"/><path d="M565 312h1l.168 2.415c.253 3.612.511 7.223.77 10.835l.263 3.8.264 3.653.238 3.364c.247 2.436.701 4.573 1.297 6.933 0 1.996-.002 3.992-.031 5.988.042 2.726.574 5.328 1.031 8.012l-.063 3.125c.057 3.481.488 6.468 1.125 9.875.836 4.73 1.152 8.348-.062 13l-2 2a41617.2 41617.2 0 0 1-1.643-23.346c-.684-9.695-1.363-19.39-1.95-29.091l-.237-3.899c-.258-5.557-.257-11.102-.17-16.664Z" fill="#1382AE"/><path d="M315 583h1v54l-3 1 .035-2.52c.01-1.086.018-2.173.027-3.293l.036-3.269c.038-2.983.038-2.983-1.098-5.918h2l-.254-3.246-.308-4.192-.17-2.142c-.13-1.804-.203-3.612-.268-5.42l1-1c.044-2.675.045-5.327 0-8v-4l-.035-2.508c-.01-.863-.018-1.727-.027-2.617l-.036-2.633C314 585 314 585 315 583Z" fill="#0975A1"/><path d="M73 563c4.167 3.36 5.127 7.053 6.313 12.063 2.151 8.406 4.952 16.432 8.039 24.535 1.683 4.424 3.185 8.9 4.648 13.402l-2 2a4836.674 4836.674 0 0 1-5.891-15.986 2032.03 2032.03 0 0 0-2.308-6.239 2972.84 2972.84 0 0 1-3.676-9.962l-1.191-3.182C74.887 574.027 73.442 568.957 73 563Z" fill="#1F8ABC"/><path d="M176 736c2.946 1.317 4.878 2.7 7.063 5.063 3.763 3.876 7.846 7.234 12.054 10.617a368.372 368.372 0 0 1 5.578 4.578c5.539 4.634 11.203 8.873 17.242 12.824 1.388.925 2.73 1.916 4.063 2.918v2h2v2c-5.507-2.529-10.166-6.393-15-10l-2.191-1.625c-6.96-5.283-13.49-11.082-20.056-16.842a710.09 710.09 0 0 0-4.718-4.08l-2.472-2.14-2.122-1.825C176 738 176 738 176 736Z" fill="#2387B6"/><path d="M632 840v2h-5v2h-4v2c-3.634 2.326-6.77 2.163-11 2l-1 3h-4v2l-6 1v1l-7 1v1h-5v-2l1.74-.595c2.63-.901 5.258-1.81 7.885-2.717l2.738-.936c4.742-1.644 9.152-3.482 13.637-5.752 2.875-.188 2.875-.188 5 0v-2c7.286-3.429 7.286-3.429 12-3Z" fill="#C5C5C5"/><path d="M187 194c0 6.292-7.414 11.464-11.621 15.719a2107.48 2107.48 0 0 1-4.816 4.781l-2.506 2.492A3747.925 3747.925 0 0 1 162 223l-3-1a216.32 216.32 0 0 1 28-28Z" fill="#2EABDF"/><path d="M430 352h2c.945 3.828.973 6.999.582 10.913-.627 7.165-.802 14.292-.898 21.482l-.063 3.98a6146.68 6146.68 0 0 0-.153 10.331c-.051 3.534-.106 7.067-.161 10.6-.107 6.898-.209 13.796-.307 20.694h-1v-78Z" fill="#4091B1"/><path d="m41 365 2 1-.61 2.412c-.76 3-1.516 6-2.27 9.002-.484 1.918-.97 3.836-1.456 5.754C36.926 390.083 35.3 396.988 34 404h-2v-9h2v-10l3-1v-11h2v-6h2v-2Z" fill="#DADADA"/><path d="M374 104a69.938 69.938 0 0 1-10.387 3.438l-3.095.773-3.205.789c-1.039.26-2.077.52-3.147.79-4.881 1.211-9.772 2.386-14.686 3.46l-2.335.516c-2.317.253-3.938-.064-6.145-.766 37.065-11.226 37.065-11.226 43-9Z" fill="#48BCE9"/><path d="M833 523h1c.204 6.275-.526 11.977-1.75 18.125l-.538 2.77c-1.5 7.501-3.406 14.808-5.712 22.105h-1c.62-5.27 1.397-10.458 2.375-15.676l.392-2.096c.271-1.447.544-2.893.817-4.339.418-2.213.831-4.427 1.244-6.641l.797-4.236.727-3.86C832 526 832 526 833 523Z" fill="#198ABE"/><path d="m65 520 2 1a89.125 89.125 0 0 1 1.543 6.992l.402 2.127c.28 1.487.554 2.975.824 4.464a817.31 817.31 0 0 0 1.284 6.827c.268 1.444.536 2.888.802 4.332l.395 2.065c.574 3.218.803 5.034-.25 8.193-3.55-6.34-4.535-13.48-5.625-20.563l-.406-2.498c-.683-4.359-1.127-8.51-.969-12.939Z" fill="#1A8BBF"/><path d="M567 359h1l2 24h1v31h-1a5189.07 5189.07 0 0 1-1.282-15.784c-.143-1.782-.288-3.564-.436-5.346-.938-11.323-1.498-22.505-1.282-33.87Z" fill="#6CA8BF"/><path d="M581 645h1c.027 2.792.047 5.583.063 8.375l.025 2.406c.025 5.992.025 5.992-1.088 8.219h-2l-.188 1.813c-1.136 3.058-2.985 3.737-5.812 5.187 0-3.737 1.211-5.723 2.875-9.063 2.667-5.61 4.32-10.79 5.125-16.937Z" fill="#0374A2"/><path d="m741 717 2 1-1.438 1.313c-1.799 1.71-1.799 1.71-2.562 4.687-1.531 1.508-1.531 1.508-3.5 3.125-3.192 2.695-6.151 5.504-9.063 8.5-3.576 3.633-7.186 6.571-11.437 9.375 1.398-3.158 3.052-5.323 5.5-7.75l1.844-1.86C724 734 724 734 726 734v-2h2l.75-1.75c1.433-2.58 3.034-4.311 5.25-6.25h2l.813-1.813c1.172-2.16 2.38-3.545 4.187-5.187Z" fill="#298BB8"/><path d="M30 518c2.037 3.056 2.402 4.461 2.887 8l.404 2.938.397 3.062.431 3.063c1.01 7.552 1.01 7.552-.119 10.937l-2-1v-8h-2v-19Z" fill="#D6D6D6"/><path d="M433 550c2.12 2.523 3.172 4.474 4.313 7.625 1.374 3.638 1.374 3.638 4.875 4.813L445 563v2l2.688-.563c3.164-.417 5.26-.245 8.312.563l-1 2c-9.708.622-9.708.622-14.375-1.625-7.497-6.783-7.497-6.783-7.938-12.25L433 550Z" fill="#1D7A9F"/><path d="M868 518h2v16h-2v11l-3 1c.31-3.167.624-6.333.938-9.5l.263-2.688A529.95 529.95 0 0 1 868 518Z" fill="#D8D8D8"/><path d="M571 419c3.11 3.11 3.126 6.51 3.535 10.766l.264 2.695.264 2.789.275 2.836c.223 2.304.444 4.61.662 6.914h-2v10h-1c-.339-4.312-.67-8.625-1-12.938-.095-1.212-.19-2.424-.29-3.673-.491-6.486-.822-12.885-.71-19.389Z" fill="#1F81A7"/><path d="M822 362c2.551 4.738 3.95 9.546 4.938 14.813.637 3.378 1.46 6.515 2.625 9.75 1.582 4.475 2.062 8.713 2.437 13.437-2-1-2-1-2.67-2.699l-.584-2.203-.65-2.437-.659-2.599-.676-2.612c-1.465-5.825-2.465-11.438-2.761-17.45h-2v-8Z" fill="#4FA5CD"/><path d="M544 72h10v2h8l1 3h7l-1 2c-5.563-.71-10.971-1.816-16.438-3.063l-2.505-.564c-2.02-.455-4.038-.914-6.057-1.373v-2ZM311 83h5v2a4784.192 4784.192 0 0 1-10.375 3.5l-2.984 1.012-2.852.957-2.634.888C295 92 295 92 293 92c1-3 1-3 2.813-4.188C298 87 298 87 302 87v-2h9v-2Z" fill="#E8E8E8"/><path d="M531 529c1.884 3.195 2.238 5.515 2.195 9.203l-.02 2.969-.05 3.078-.027 3.125A1094.76 1094.76 0 0 1 533 555l-3 1 .035-1.863.028-2.45.035-2.425c-.001-2.43-.001-2.43-1.098-5.262.65-1.341 1.316-2.675 2-4l-1-2c.087-1.546.24-3.09.438-4.625l.308-2.477L531 529Z" fill="#0578A5"/><path d="m423.297 61.707 3.652.03 3.801.075 3.848.042c3.134.035 6.268.084 9.402.146l-1 2-30 1c4.335-3.251 5.166-3.366 10.297-3.293Z" fill="#E8E8E8"/><path d="M400 510c2 2 2 2 2.227 5.99 0 1.725-.012 3.45-.032 5.174l-.008 2.75a1781.76 1781.76 0 0 1-.062 8.711c-.01 1.966-.02 3.932-.027 5.898A3677.16 3677.16 0 0 1 402 553h-1l-1-28h-1l1-15Z" fill="#529BB8"/><path d="m603 126 5 1v2l1.766.445c6.24 1.707 11.748 4.15 17.472 7.153 2.547 1.293 5.094 2.386 7.762 3.402-2 1-2 1-3.813.617-5.113-1.735-9.831-3.857-14.617-6.355-3.45-1.694-7.013-2.992-10.636-4.27C604 129 604 129 603 126Z" fill="#32B3E6"/><path d="M559 686c0 4.269-1.997 5.786-4.793 8.855-3.653 3.55-7.624 6.88-12.207 9.145-2.3-.316-2.3-.316-4-1l2.309-1.688c6.522-4.82 12.735-9.792 18.691-15.312Z" fill="#1A6E92"/><path d="M384 64h24v1c-3.583.504-7.166 1.003-10.75 1.5l-3.078.434-2.969.41-2.73.38C386 68 386 68 382 68v-2h2v-2Z" fill="#E9E9E9"/><path d="M821 579c1.131 3.393.906 3.94-.328 7.133l-.926 2.445-.996 2.547c-.632 1.648-1.262 3.296-1.89 4.945l-.94 2.454c-1.409 3.792-2.676 7.628-3.92 11.476h-1c-.667-6.001 1.076-9.78 3.695-15.145 1.603-3.507 2.645-7.04 3.63-10.761C819 582 819 582 821 579Z" fill="#248CBC"/><path d="M352.563 71.938 356 72v2c-3.457.837-6.916 1.669-10.375 2.5l-2.984.723-2.852.683-2.634.635C335 79 335 79 333 79v-2h4l1-3c1.065-.09 1.065-.09 2.152-.184l2.786-.254c.916-.08 1.833-.162 2.777-.246 3.384-.468 2.921-1.31 6.848-1.379Z" fill="#E8E8E8"/><path d="M71 388h1c.394 7.742-1.058 14.52-3 22h-1c-.027-2.417-.047-4.833-.063-7.25l-.025-2.066c-.016-3.377.032-6.457 1.088-9.684h2v-3Z" fill="#329DCD"/><path d="M47 596c2.715 2.715 3.744 5.927 5.125 9.438l.84 2.064C54.148 610.478 55 612.768 55 616h-3v-4h-2v-7h-2v-6l-2-1 1-2Z" fill="#CBCBCB"/><path d="M136 691c3.798 1.266 4.448 2.73 6.688 6 3.767 5.348 7.865 10.21 12.312 15-3 0-3 0-5.016-1.871C136 694.066 136 694.066 136 691Z" fill="#1A84B6"/><path d="M33 405c.112 6.088.092 11.996-1 18l-2 1v-18c2-1 2-1 3-1Z" fill="#DCDCDC"/><path d="M157 716h2c1.48 1.504 1.48 1.504 3.188 3.563 3.414 4.024 7.03 7.759 10.812 11.437l-1 3c-11.402-11.203-11.402-11.203-15-16v-2Z" fill="#2689B8"/><path d="M339 829c1.44.284 2.876.577 4.313.875l2.425.492C348 831 348 831 351 833c2.324.395 4.66.722 7 1 2.001.327 4.001.659 6 1v1c-17.596-.735-17.596-.735-24-4l-1-3Z" fill="#328DB8"/><path d="M318 645h1l.55 2.309c1.547 6.35 3.29 12.522 5.45 18.691h-3c-3.489-7.18-4.545-13.041-4-21Z" fill="#2E7D9E"/><path d="m410 197 3 1-1.875 2.188c-3.935 5.207-4.479 9.8-4.75 16.125l-.117 2.244A784.84 784.84 0 0 0 406 224h-1a701.94 701.94 0 0 1-.188-8.563l-.076-2.423c-.067-5.467.689-9.17 3.264-14.014l2-2Z" fill="#19A9DE"/><path d="M366 68h14v1l-22 4v-3l8-1v-1Z" fill="#E8E8E8"/><path d="M250 792c5.001 1.48 9.33 3.632 13.875 6.125l2.086 1.129c1.682.911 3.36 1.828 5.039 2.746-2.837.867-3.697 1.118-6.563 0-4.9-2.852-9.777-5.766-14.437-9v-1Z" fill="#1881B3"/><path d="M871 497h1v18l-3 1c.14-2.98.287-5.958.438-8.938l.119-2.576.127-2.45.11-2.27C870 498 870 498 871 497Z" fill="#D7D7D7"/><path d="M578 117c5.694 1.32 11.052 3.017 16.5 5.125l2.203.84c1.767.674 3.532 1.354 5.297 2.035v1c-5.795-.523-10.58-1.701-15.938-3.938l-2.033-.802c-4.897-1.996-4.897-1.996-6.029-4.26Z" fill="#2DB3E8"/><path d="M73 563c3.883 3.236 4.967 6.095 6 11 .125 2.938.125 2.938 0 5h-2a886.164 886.164 0 0 1-2-5.75l-1.125-3.234C73 567 73 567 73 563Z" fill="#419AC4"/><path d="M504 64h12v2h2v2a376.79 376.79 0 0 1-5.875-.313l-3.305-.175c-.93-.17-1.861-.338-2.82-.512l-2-3Z" fill="#EAEAEA"/><path d="M591 822c-5.684 3.72-10.199 5.561-17.031 5.762L572 828l-1 2-2-2c3.287-1.2 6.58-2.383 9.875-3.563l2.84-1.037 2.715-.966 2.507-.905C589 821 589 821 591 822Z" fill="#AEC8D3"/><path d="m579 664 2 2a1058.295 1058.295 0 0 1-3.813 5.375l-2.144 3.023C573 677 573 677 570 679c.705-3.172 1.514-6.102 3-9a113.158 113.158 0 0 1 5-3l1-3Z" fill="#037AAC"/><path d="M381 726c3.947 3.593 5.754 7.987 6.188 13.3 0 1.902-.086 3.802-.188 5.7-3.053-2.486-3.547-4.541-4.125-8.375l-.445-2.836L382 731a416.004 416.004 0 0 0-1-5Z" fill="#197096"/><path d="M28 427h3c-.113 2.647-.24 5.292-.375 7.938l-.094 2.287c-.104 1.93-.31 3.854-.531 5.775l-2 1v-17Z" fill="#DADADA"/><path d="M615 812a783.842 783.842 0 0 1-7 3l-2.621 1.125-2.692 1.125-2.55 1.078C598 819 598 819 596 818c1.907-3.814 7.14-4.669 11-6 5.463-1.268 5.463-1.268 8 0Z" fill="#3791BA"/><path d="m585 628 2 1c1.51 6.5.503 10.89-2 17-1.231-3.693-.872-6.88-.563-10.688l.159-2.126c.13-1.73.266-3.458.404-5.186Z" fill="#0378A9"/><path d="m492 98 18 1 1 2h-13v-2h-6v-1Z" fill="#4EBFEB"/><path d="m753 702 3 1-12 14-1-3 1.934-2.117 2.504-2.758 2.496-2.742c2.075-2.194 2.075-2.194 3.066-4.383Z" fill="#1C85B6"/><path d="M368 556c3.715 1.238 5.289 3.221 8 6l3 2v2c-2.869-.084-4.557-.587-6.668-2.555C368 558.485 368 558.485 368 556Z" fill="#1F7A9F"/><path d="M298 851a7961.562 7961.562 0 0 1 7.52 2.246A215.38 215.38 0 0 1 311 855v2h-5v-1l-7-1-1-4Zm304 0-1 4-7 1v1h-5v-2c1.79-.67 3.582-1.336 5.375-2l3.023-1.125C600 851 600 851 602 851Z" fill="#CBCBCB"/><path d="M571 419c2.895 2.895 2.854 6.077 3 10-.196 3.024-.55 6.004-1 9h-1c-.745-6.373-1.103-12.583-1-19Z" fill="#3B8DAD"/><path d="M336 683c4.49 2.378 7.522 5.36 11 9l-1 2c-4.875-3.75-4.875-3.75-6-6a113.158 113.158 0 0 0-5-3l1-2Z" fill="#0D6990"/><path d="m829 395 2 4 1.031 1.844c1.068 2.377 1.366 4.318 1.594 6.906l.227 2.422L834 412c-3.871-3.33-4.258-7.129-5-12-.125-3.063-.125-3.063 0-5Z" fill="#2998CA"/><path d="M486 197v1l-2.688.688c-3.894 1.543-5.743 3.009-8.312 6.312-.885 3.684-.885 3.684-1 7h-1c-.49-7.223-.49-7.223 1.813-10.875 3.824-3.716 5.952-4.358 11.187-4.125Z" fill="#C1E6F3"/><path d="M581 645h1c.365 6.573-.864 11.795-3 18l-2-1 4-17Z" fill="#35809F"/><path d="m37 558 1 4h2c1.176 3.674 1.074 7.17 1 11-2-3.75-2-3.75-2-6h-2v-9Z" fill="#D7D7D7"/><path d="M68 541c2 2 2 2 2 5h2l1 9-2 1a852.101 852.101 0 0 1-1.5-5.25l-.844-2.953C68 545 68 545 68 541Z" fill="#3193C2"/><path d="m743 763 2 1-1.277 1.207-1.66 1.606-1.653 1.582c-1.645 1.663-1.645 1.663-2.41 4.605l-5 1c1.145-3.436 2.271-4.335 5-6.625l2.188-1.852L742 764l1-1Z" fill="#CBCBCB"/><path d="M726 734c-1.448 3.444-3.277 5.361-6.125 7.75l-2.195 1.86L716 745c0-3 0-3 1.68-5.043l2.195-2.144 2.18-2.168C724 734 724 734 726 734Z" fill="#1E85B5"/><path d="M330 674c3.26 3.17 6.222 6.4 9 10h-5a651.927 651.927 0 0 1-2-3.875l-1.125-2.18C330 676 330 676 330 674Z" fill="#277899"/><path d="m231 160 2 1a241.769 241.769 0 0 1-3.75 3.563l-2.11 2.003L225 168l-4-1 10-7Z" fill="#3DB2E1"/><path d="M375 716c5.571 5.143 5.571 5.143 6 9l-4-1v-3h-2v-5Z" fill="#29799C"/><path d="M584 647c1.188 1.625 1.188 1.625 2 4-2.195 5.598-2.195 5.598-5 7v-5h2c-.03-1.207-.03-1.207-.063-2.438C583 648 583 648 584 647Z" fill="#0378A8"/><path d="M530 556h2c-1.173 3.337-2.189 5.774-5 8h-2c.313-1.938.313-1.938 1-4l3-1 1-3Z" fill="#1D7B9F"/><path d="m463 558 2 1c-2.657 3.739-4.581 5.65-9 7v-2h2l.813-1.875C460 560 460 560 463 558Z" fill="#15779D"/><path d="M671 163c4.671 1.557 8.087 4.084 12 7l-3 1c-2.262-1.145-2.262-1.145-4.688-2.813l-2.449-1.644L671 165v-2Z" fill="#30AEE1"/><path d="M233 781c3.59 1.334 6.846 2.81 10 5l1 3c-4.596-1.487-7.47-3.798-11-7v-1Z" fill="#2487B6"/><path d="M315 627h1v10l-3 1c-.286-7.429-.286-7.429 2-11Z" fill="#026E9C"/><path d="M288 130c-1 3-1 3-2.707 3.984l-2.106.766-2.082.797c-2.386.514-3.811.216-6.105-.547 1.79-.838 3.582-1.67 5.375-2.5l3.023-1.406C286 130 286 130 288 130Z" fill="#38B4E5"/><path d="m546 697 2 1c-3.173 3.536-5.167 5.586-10 6 2.516-2.606 5.051-4.894 8-7Z" fill="#2A7595"/><path d="M565.688 680.75 568 681l-4 5-4-1c2.338-3.938 2.338-3.938 5.688-4.25Z" fill="#147299"/><path d="M88 604c2 1 2 1 2.703 2.777l.547 2.16.578 2.153L92 613l-2 2-3-10 1-1Z" fill="#3091BF"/><path d="M532 545h1v10l-3 1c.875-7.625.875-7.625 2-11Z" fill="#0F769F"/><path d="M516 733c1.296 2.591 1.343 4.123 1 7-2 2.313-2 2.313-4 4 .468-4.056.88-7.466 3-11Z" fill="#026A98"/><path d="M368 531c1.967 3.66 2.691 6.83 3 11l-2 2c-1.322-2.645-1.097-4.678-1.063-7.625l.028-3.04L368 531Z" fill="#057CAC"/><path d="M262 798c3.775 1.09 6.47 1.908 9 5-3.558-.61-6.683-1.578-10-3l1-2Z" fill="#2A8BB8"/><path d="M202 760c3.995.615 6.745 2.706 10 5l-1 3a1270.542 1270.542 0 0 1-4.5-3.438l-2.531-1.933L202 761v-1Z" fill="#328EB7"/><path d="m528 714 1 3-5 4v-5l4-2Z" fill="#096D98"/><path d="m576 469 2 1-2 13h-1c-.027-1.77-.046-3.542-.063-5.313l-.035-2.988C575 472 575 472 576 469Z" fill="#2486AC"/><path d="M693 178c1.316.953 2.628 1.913 3.938 2.875l2.214 1.617C701 184 701 184 702 186l-4-1v-2l-5-2v-3Z" fill="#33ACDF"/><path d="m271 840 9 3v1h-7v-2h-2v-2Z" fill="#CDCDCD"/><path d="m750 709 1 3-6 6-2-1 7-8Z" fill="#C9D6DD"/><path d="m316 635 2 1v8h-3c-.125-6.75-.125-6.75 1-9Z" fill="#3A88A8"/><path d="M157 716h2c1.508 1.75 1.508 1.75 3.125 4l1.633 2.25L165 724h-3c-5-5.349-5-5.349-5-8Z" fill="#1984B6"/><path d="M573 670h1c.25 2.813.25 2.813 0 6-2 1.875-2 1.875-4 3 .7-3.147 1.76-6.026 3-9Z" fill="#0272A0"/><path d="M576 662c.981 3.053.981 4.947 0 8l-4 1c1.199-3.083 2.477-6.063 4-9Z" fill="#347F9F"/><path d="M864 548h2v7l-3 1 1-8Zm-830 0h2l1 8-3-1v-7Z" fill="#CECECE"/><path d="m410 197 3 1-1.875 2.313c-2.181 2.683-2.181 2.683-4.125 5.687.75-6.75.75-6.75 3-9Z" fill="#3AB5E0"/><path d="m342 865 7 1v2h-7v-3Z" fill="#C7C7C7"/><path d="m641 836-1 2h-4v2h-3l1-3c2.463-1.231 4.28-1.072 7-1Z" fill="#C5C5C5"/><path d="M384 737h3v8c-1.5-1.188-1.5-1.188-3-3-.188-2.688-.188-2.688 0-5Z" fill="#0A6D99"/><path d="m326 672 4 1 1 5h-4l-1-6Z" fill="#05719E"/><path d="M853 593h2l-1 6-3 1 2-7Z" fill="#CACACA"/><path d="M433 550c2.154 2.622 3.4 4.644 4 8h-3c-1-1-1-1-1.063-4.563L433 550Z" fill="#2A82A5"/><path d="M32 538h2l1 8-3-1v-7Zm834 0h2v7l-3 1 1-8Z" fill="#CECECE"/><path d="M246 152c-.625 1.938-.625 1.938-2 4-3.125.75-3.125.75-6 1 4.839-5 4.839-5 8-5Z" fill="#3CB3E3"/></svg>