<svg xmlns="http://www.w3.org/2000/svg" width="360" height="198"><path d="m288.688 43.188 1.747 1.224c3.443 2.507 6.056 5.151 8.565 8.588-4.215-1.31-8.189-2.928-12.214-4.716C269.204 40.541 250.934 36.012 232 33l-2.155-.36c-48.295-7.72-109.325-1.31-150.13 27.295-11.294 8.596-21.47 18.67-24.317 33.12-1.349 12.33 2.115 21.699 9.575 31.551C88.746 152.435 129.22 161.865 164 166l2.393.29c8.891.946 17.8.954 26.732.96l2.544.002c33.125-.042 65.6-5.534 95.672-19.8 1.862-.872 3.758-1.67 5.659-2.452l2 1c-34.628 34.435-91.161 43.264-137.766 43.18C113.157 188.829 60.796 177.04 25 143 12.486 130.255 5.565 114.7 5.634 96.937c.403-18.07 10.206-33.104 22.829-45.357 64.335-59.34 190.96-57.11 260.224-8.392Z" fill="#FE7F00"/><path d="M297.582 66.016c3.171 1.953 5.941 4.193 8.418 6.984v2l2.668-1.68 3.52-2.195 1.751-1.105c5.897-3.665 10.016-5.31 16.998-5.332l3.59-.051c5.394.564 9.277 2.554 12.723 6.738 6.281 7.84 5.899 16.765 5.848 26.371l-.005 3.064c-.005 3.21-.018 6.418-.03 9.627-.006 2.185-.01 4.369-.014 6.553-.01 5.337-.03 10.673-.049 16.01h-23l-.113-9.703c-.046-3.101-.098-6.202-.15-9.303-.033-2.156-.06-4.31-.083-6.466-.034-3.098-.086-6.196-.142-9.294l-.02-2.92-.06-2.729-.033-2.396c-.5-2.747-1.514-4.155-3.399-6.189-2.3-.558-2.3-.558-4.813-.375l-2.519.04c-3.289.325-3.289.325-8.668 2.335v47h-22l-.148-8.723a7916.84 7916.84 0 0 0-.17-8.41c-.038-1.94-.072-3.881-.104-5.822a1646.42 1646.42 0 0 0-.164-8.393l-.035-2.608c-.121-5.018-.624-9.32-2.379-14.044-2.422-1.211-4.048-1.167-6.75-1.188l-2.547-.042c-3.324.177-3.324.177-8.703 2.23v47h-22V66h22l1 6 3.125-2.375c7.182-5.458 18.03-6.924 26.457-3.61ZM163 68l2-2c2.155-.227 2.155-.227 4.79-.195l2.85.02 2.985.05 3.008.027c2.456.024 4.911.057 7.367.098.07 8.433.123 16.865.155 25.298.016 3.916.037 7.833.071 11.75.033 3.786.05 7.572.059 11.36.005 1.437.016 2.874.032 4.312.115 10.575-.206 20.823-7.317 29.28-8.682 8.373-19.327 9.514-30.938 9.313l-3.171-.026c-7.188-.112-13.862-.725-20.891-2.287v-18c8 1 8 1 11.688 2.063 7.632 1.972 16.848 2.482 23.855-1.575 2.812-2.872 3.126-6.616 3.457-10.488l-1.574.84c-8.494 4.412-16.28 5.496-25.613 2.91-8.134-2.74-12.996-7.07-16.813-14.75-3.432-11.1-4.06-25.028.758-35.777C128.368 64.816 147.414 60.207 163 68Zm-20.313 18.563c-2.844 4.108-2.878 6.667-2.937 11.687l-.078 3.953c.35 4.05 1.121 6.404 3.328 9.797 3.604 2.613 7.815 3.264 12.188 2.875 3.728-.856 5.856-1.494 8.812-3.875.69-2.99.69-2.99.488-6.418l-.049-3.799-.126-3.97c-.026-1.336-.048-2.671-.069-4.006-.059-3.27-.141-6.538-.244-9.807-7.56-3.976-15.473-2.908-21.313 3.563Z" fill="#FF7F00"/><path d="M204 41h23v92h-23V41Z" fill="#FF8000"/></svg>