<?xml version="1.0" encoding="UTF-8"?>
<svg version="1.1" xmlns="http://www.w3.org/2000/svg" width="360" height="198">
<path d="M0 0 C0.57661377 0.40395996 1.15322754 0.80791992 1.74731445 1.22412109 C5.19095557 3.73185081 7.80357628 6.37570181 10.3125 9.8125 C6.09705782 8.5031075 2.12372961 6.88405013 -1.90185547 5.09667969 C-19.48380548 -2.64683666 -37.75303406 -7.17545531 -56.6875 -10.1875 C-57.3985791 -10.30609375 -58.1096582 -10.4246875 -58.84228516 -10.546875 C-107.13789305 -18.26865671 -168.16715239 -11.85694119 -208.97265625 16.74609375 C-220.26663834 25.34252041 -230.44322186 35.4162305 -233.2890625 49.8671875 C-234.63801931 62.19602534 -231.17447679 71.56534452 -223.71484375 81.41796875 C-199.94153081 109.24698299 -159.46767964 118.67694274 -124.6875 122.8125 C-123.89778809 122.90821289 -123.10807617 123.00392578 -122.29443359 123.10253906 C-113.40348732 124.04878129 -104.49401367 124.05602574 -95.5625 124.0625 C-94.72290741 124.06317474 -93.88331482 124.06384949 -93.01828003 124.06454468 C-59.89394655 124.02244631 -27.41903593 118.53077818 2.65356445 104.2644043 C4.51546962 103.39293246 6.4116266 102.59533737 8.3125 101.8125 C8.9725 102.1425 9.6325 102.4725 10.3125 102.8125 C-24.31532232 137.24794553 -80.84860532 146.07637668 -127.45361328 145.99316406 C-175.53013265 145.640688 -227.89142756 133.85316531 -263.6875 99.8125 C-276.20136436 87.06761045 -283.12260379 71.51315242 -283.05322266 53.74975586 C-282.6508709 35.67899426 -272.84795872 20.64514818 -260.22460938 8.39257812 C-195.88919545 -50.94758278 -69.26464539 -48.71858529 0 0 Z " fill="#FE7F00" transform="translate(288.6875,43.1875)"/>
<path d="M0 0 C3.17118109 1.95330635 5.94137033 4.19352542 8.41796875 6.984375 C8.41796875 7.644375 8.41796875 8.304375 8.41796875 8.984375 C9.29839844 8.43007812 10.17882812 7.87578125 11.0859375 7.3046875 C12.25898361 6.57270673 13.43216805 5.84094761 14.60546875 5.109375 C15.18361328 4.74457031 15.76175781 4.37976563 16.35742188 4.00390625 C22.25360249 0.33961321 26.37267857 -1.30537976 33.35546875 -1.328125 C35.13244141 -1.35326172 35.13244141 -1.35326172 36.9453125 -1.37890625 C42.33919543 -0.81464178 46.22208512 1.17508773 49.66796875 5.359375 C55.949434 13.19890604 55.56673724 22.12391145 55.515625 31.73046875 C55.51421005 32.74158218 55.5127951 33.75269562 55.51133728 34.79444885 C55.50576836 38.00362181 55.49322162 41.21272336 55.48046875 44.421875 C55.47544973 46.60611878 55.47088753 48.79036366 55.46679688 50.97460938 C55.45666274 56.31124714 55.43708128 61.64773173 55.41796875 66.984375 C47.82796875 66.984375 40.23796875 66.984375 32.41796875 66.984375 C32.38058594 63.78234375 32.34320313 60.5803125 32.3046875 57.28125 C32.25847648 54.18010627 32.20724121 51.07908344 32.15551758 47.97802734 C32.12226335 45.82282864 32.09423298 43.66754274 32.0715332 41.51220703 C32.03799675 38.41401003 31.98568072 35.31661245 31.9296875 32.21875 C31.92329758 31.25507507 31.91690765 30.29140015 31.9103241 29.29852295 C31.89052994 28.39789124 31.87073578 27.49725952 31.8503418 26.56933594 C31.83923874 25.77879822 31.82813568 24.9882605 31.81669617 24.17376709 C31.31635205 21.42640285 30.30333593 20.0185171 28.41796875 17.984375 C26.11860949 17.42599653 26.11860949 17.42599653 23.60546875 17.609375 C22.77402344 17.62226562 21.94257813 17.63515625 21.0859375 17.6484375 C17.79730807 17.97433673 17.79730807 17.97433673 12.41796875 19.984375 C12.41796875 35.494375 12.41796875 51.004375 12.41796875 66.984375 C5.15796875 66.984375 -2.10203125 66.984375 -9.58203125 66.984375 C-9.63101563 64.10589844 -9.68 61.22742188 -9.73046875 58.26171875 C-9.78455651 55.45836413 -9.84183333 52.65509143 -9.89941406 49.85180664 C-9.93757784 47.91111411 -9.9724522 45.97035389 -10.00390625 44.02954102 C-10.04983151 41.23168832 -10.10777953 38.43429662 -10.16796875 35.63671875 C-10.17951996 34.7760228 -10.19107117 33.91532684 -10.20297241 33.02854919 C-10.32451931 28.01047364 -10.82738481 23.70851305 -12.58203125 18.984375 C-15.00403197 17.77337464 -16.63011334 17.81734408 -19.33203125 17.796875 C-20.1725 17.78269531 -21.01296875 17.76851562 -21.87890625 17.75390625 C-25.20336109 17.93093809 -25.20336109 17.93093809 -30.58203125 19.984375 C-30.58203125 35.494375 -30.58203125 51.004375 -30.58203125 66.984375 C-37.84203125 66.984375 -45.10203125 66.984375 -52.58203125 66.984375 C-52.58203125 44.874375 -52.58203125 22.764375 -52.58203125 -0.015625 C-45.32203125 -0.015625 -38.06203125 -0.015625 -30.58203125 -0.015625 C-30.25203125 1.964375 -29.92203125 3.944375 -29.58203125 5.984375 C-28.55078125 5.200625 -27.51953125 4.416875 -26.45703125 3.609375 C-19.27508947 -1.84890076 -8.42765481 -3.31496256 0 0 Z " fill="#FF7F00" transform="translate(297.58203125,66.015625)"/>
<path d="M0 0 C0.66 -0.66 1.32 -1.32 2 -2 C4.15478516 -2.22705078 4.15478516 -2.22705078 6.7890625 -2.1953125 C7.73007813 -2.18886719 8.67109375 -2.18242188 9.640625 -2.17578125 C10.62546875 -2.15902344 11.6103125 -2.14226562 12.625 -2.125 C13.61757812 -2.11597656 14.61015625 -2.10695313 15.6328125 -2.09765625 C18.08878134 -2.07404116 20.54427168 -2.04110799 23 -2 C23.06981514 6.43259227 23.12296998 14.86506178 23.15543652 23.29787254 C23.17102661 27.21447405 23.19214147 31.13087637 23.22631836 35.04736328 C23.25915161 38.8340002 23.27690294 42.62044672 23.28463173 46.40721512 C23.2901326 47.84476336 23.30087329 49.28230236 23.31719017 50.71976852 C23.43234687 61.29481333 23.11142597 71.54316912 16 80 C7.3183692 88.37304203 -3.32663835 89.51371519 -14.9375 89.3125 C-15.98421875 89.30412109 -17.0309375 89.29574219 -18.109375 89.28710938 C-25.29690976 89.17522372 -31.97080364 88.56204364 -39 87 C-39 81.06 -39 75.12 -39 69 C-31 70 -31 70 -27.3125 71.0625 C-19.68011225 73.03457652 -10.46418237 73.54505295 -3.45703125 69.48828125 C-0.64475041 66.6156834 -0.33093777 62.87197189 0 59 C-0.51949219 59.27714844 -1.03898437 59.55429688 -1.57421875 59.83984375 C-10.06794814 64.25155902 -17.85385193 65.3364326 -27.1875 62.75 C-35.3205079 60.00966658 -40.1829886 55.6800109 -44 48 C-47.43164799 36.89966926 -48.06017085 22.97174323 -43.2421875 12.22265625 C-34.63174879 -3.18407213 -15.58568011 -7.79284005 0 0 Z M-20.3125 18.5625 C-23.15651044 22.67051509 -23.19093647 25.22960025 -23.25 30.25 C-23.27578125 31.55453125 -23.3015625 32.8590625 -23.328125 34.203125 C-22.97813621 38.25299529 -22.20684752 40.60678343 -20 44 C-16.39605873 46.6130572 -12.18519549 47.26423615 -7.8125 46.875 C-4.08418157 46.01932036 -1.95556418 45.38075747 1 43 C1.69070932 40.00941675 1.69070932 40.00941675 1.48828125 36.58203125 C1.47216797 35.32841797 1.45605469 34.07480469 1.43945312 32.78320312 C1.39755859 31.47287109 1.35566406 30.16253906 1.3125 28.8125 C1.28741661 27.47725471 1.26460348 26.14196471 1.24414062 24.80664062 C1.18511522 21.53663293 1.10281476 18.26887667 1 15 C-6.56066472 11.02377499 -14.47285771 12.09154503 -20.3125 18.5625 Z " fill="#FF7F00" transform="translate(163,68)"/>
<path d="M0 0 C7.59 0 15.18 0 23 0 C23 30.36 23 60.72 23 92 C15.41 92 7.82 92 0 92 C0 61.64 0 31.28 0 0 Z " fill="#FF8000" transform="translate(204,41)"/>
</svg>
