<svg xmlns="http://www.w3.org/2000/svg" width="500" height="500"><path d="m71.963 24.497 3.721-.032 4.095.027a1636.772 1636.772 0 0 1 16.3-.015c4.297.01 8.593-.005 12.889-.016a7231.39 7231.39 0 0 1 25.253-.002 10487.293 10487.293 0 0 0 23.465.004l5.927-.004c18.534-.011 37.069.002 55.603.023 15.913.018 31.826.015 47.739-.003a30373.927 30373.927 0 0 1 61.305-.014l2.935.002c6.834.003 13.667-.003 20.5-.012 8.325-.011 16.65-.008 24.975.013 4.25.01 8.499.015 12.748.001 3.888-.012 7.774-.005 11.662.016 1.409.005 2.818.002 4.227-.007 1.91-.012 3.82.002 5.73.019l3.22.002c3.441.629 4.625 1.767 6.743 4.501.508 2.772.508 2.772.519 6.024l.042 3.739-.015 4.093c.009 1.44.02 2.878.031 4.317.028 3.905.031 7.81.03 11.714.004 4.082.03 8.163.052 12.244.041 7.728.061 15.455.074 23.183.016 8.798.055 17.596.095 26.394.082 18.097.137 36.195.172 54.292l2.383-2.43a2657.49 2657.49 0 0 1 8.823-8.94 1261.5 1261.5 0 0 0 3.806-3.868c1.825-1.862 3.66-3.713 5.496-5.563l1.696-1.743c4.772-4.774 9.315-7.883 16.296-7.894 5.967.17 8.997 2.107 13.312 6.125 2.278 4.435 2.679 8.83 1.713 13.716-2.734 8.124-7.622 10.762-14.734 15.015-17.705 11.714-35.492 27.241-40.376 48.767-3.26 17.524-3.385 35.472-3.376 53.245v2.066c.006 17.753.493 35.484 1.14 53.225.373 10.303.63 20.604.803 30.912l.038 2.217c.074 4.4.144 8.799.212 13.199a15394.72 15394.72 0 0 0 .345 21.276c.17 10.132.433 20.259.746 30.388.108 3.716.215 7.433.321 11.149.106 3.444.233 6.887.362 10.33l.177 6.172.126 2.81.06 2.57.077 2.214c-.666 3.048-1.977 4.187-4.446 6.042-2.743.501-2.743.501-5.963.503l-3.721.032-4.095-.027a1636.773 1636.773 0 0 1-16.3.015c-4.297-.01-8.593.005-12.889.016-8.418.018-16.835.014-25.253.002-6.84-.009-13.679-.01-20.519-.006l-2.946.002-5.927.004c-18.534.011-37.069-.002-55.603-.023-15.913-.018-31.826-.015-47.739.003a30373.927 30373.927 0 0 1-61.305.014l-2.935-.002c-6.834-.003-13.667.003-20.5.012-8.325.011-16.65.008-24.975-.013-4.25-.01-8.499-.015-12.748-.001-3.888.012-7.774.005-11.662-.016a425.422 425.422 0 0 0-4.227.007c-1.91.012-3.82-.002-5.73-.019l-3.22-.002C66 476 66 476 63.659 474.431c-2.218-3.25-2.213-6.03-2.162-9.83l-.018-2.277c-.015-2.533 0-5.064.013-7.596a2611.055 2611.055 0 0 1-.015-20.586c.01-5.425-.005-10.85-.016-16.274a11303.24 11303.24 0 0 1-.002-31.895 16728.72 16728.72 0 0 0 .004-29.634l-.004-7.482c-.011-22.737 0-45.474.021-68.21.02-20.766.018-41.53-.001-62.295a48433.14 48433.14 0 0 1-.014-77.412l.002-3.705c.003-8.63-.003-17.262-.012-25.893-.011-10.513-.008-21.026.013-31.54.01-5.367.015-10.734.001-16.102-.012-4.908-.005-9.817.016-14.726.005-1.78.002-3.56-.007-5.341-.012-2.412 0-4.822.019-7.233l-.029-2.119c.05-3.198.373-5.048 2.19-7.712 2.972-1.991 4.739-2.07 8.305-2.072Z" fill="#547FCC"/><path d="m72.552 28.874 3.676-.008 4.09.007 4.305-.005c3.961-.004 7.923-.002 11.885.001 4.265.003 8.53 0 12.795-.004 8.364-.004 16.727-.003 25.09 0 6.795.002 13.589.002 20.383.001h2.925l5.88-.001c18.406-.003 36.811 0 55.217.006 15.808.004 31.616.003 47.424-.001a119785.06 119785.06 0 0 1 60.868-.004h2.913c6.79.002 13.579 0 20.368-.002 8.27-.003 16.539-.002 24.809.003 4.223.003 8.445.004 12.668 0 3.861-.003 7.722-.001 11.582.004 1.402.001 2.804 0 4.206-.002 1.895-.003 3.79.001 5.686.005h3.2C415 29 415 29 417 30c.54 19.29.944 38.577 1.192 57.872.118 8.962.278 17.92.543 26.879.231 7.82.378 15.637.429 23.461.03 4.135.098 8.26.268 12.392 1.107 28.006 1.107 28.006-9.198 39.383-4.973 5.153-10.39 9.871-16.234 14.013h-1l-.004-2.269c-.037-18.21-.096-36.421-.18-54.632-.04-8.806-.072-17.613-.087-26.42a5700.84 5700.84 0 0 0-.084-23.024 2154.66 2154.66 0 0 1-.037-12.193c0-3.826-.017-7.65-.05-11.475-.008-1.404-.01-2.809-.004-4.213.007-1.917-.013-3.834-.035-5.75l-.011-3.252c-.646-3.523-1.755-4.534-4.508-6.772-2.413-.593-2.413-.593-5.075-.5l-3.122-.03-3.425.029-3.642-.017c-3.338-.011-6.674-.005-10.012.01-3.598.01-7.197-.001-10.795-.01-7.05-.014-14.1-.006-21.15.009-8.205.016-16.41.013-24.615.01a21424.2 21424.2 0 0 0-43.911.032c-14.212.024-28.424.031-42.636.021a27765.597 27765.597 0 0 0-51.347.006l-2.457.002c-5.724.005-11.447.003-17.17-.001-6.972-.005-13.943 0-20.914.02-3.56.01-7.118.015-10.677.008-3.852-.009-7.704.006-11.557.023l-3.432-.018-3.114.026-2.696.003c-2.287.226-2.287.226-4.039 1.553-1.69 2.538-1.591 4.342-1.594 7.383l-.026 3.525.018 3.892c-.004 1.373-.01 2.746-.016 4.12-.015 3.782-.01 7.564-.003 11.346.005 4.076-.008 8.152-.018 12.228-.017 7.988-.018 15.976-.013 23.964.004 6.49.003 12.98-.002 19.471l-.003 2.796-.004 5.623c-.014 17.588-.009 35.177.003 52.765.01 16.102-.003 32.204-.027 48.306-.024 16.52-.034 33.042-.027 49.563.003 9.28 0 18.56-.017 27.84-.014 7.9-.015 15.8.002 23.701.009 4.033.011 8.066-.004 12.099-.014 3.689-.01 7.378.01 11.067.006 1.972-.009 3.945-.023 5.917l.03 3.534v3.055c.636 3.346 1.871 4.534 4.5 6.629 2.18.597 2.18.597 4.543.519l2.745.042 2.988-.015 3.165.031c3.452.03 6.904.031 10.356.032a4148.805 4148.805 0 0 0 26.079.129c6.428.02 12.856.062 19.284.102 12.613.075 25.227.126 37.84.16l.885-2.794c1.272-3.657 3.074-6.735 5.177-9.956l1.204-1.85c8.679-13.043 19.89-24.671 35.109-29.463 3.088-1.102 4.56-2.414 6.625-4.937l1-3-2.375-.25c-2.928-.606-5.05-1.284-7.75-2.438-11.484-4.76-23.781-8.102-35.953-10.574C203 329 203 329 199.512 327.551c-5.92-2.287-12.195-2.847-18.45-3.676a2308.62 2308.62 0 0 1-7.34-1.008l-3.257-.434C168 322 168 322 167 321a131.78 131.78 0 0 1-.063-6.063l.028-3.347L167 309h-4v-3c-7.095 1.685-7.095 1.685-14 4l-1 2c-5.515.25-5.515.25-7.746-.902-3.101-1.51-6.192-2.09-9.567-2.786l-3.863-.824c-3.999-.51-6.916-.464-10.824.512l-2.387 2.047c-3.753 2.805-6.877 2.401-11.426 2.203l-2.388-.055A375.97 375.97 0 0 1 94 312c-.029-3.812-.047-7.625-.063-11.438l-.025-3.298-.01-3.135-.016-2.904C94 289 94 289 95 288c.225-2.028.448-4.057.621-6.09C96 280 96 280 98 278c5.312-.374 10.143.466 15.312 1.5 11.914 2.211 24.011 2.392 35.688-1.5 7.37-.38 14.557-.472 21.703 1.516 2.906.612 5.705.602 8.672.671 6.189.408 9.613 2.297 14.605 5.82 6.842 4.515 16.008 9.859 24.395 8.993 3.424-.819 3.424-.819 5.625-2 8.97-1.047 18.044 2.304 25.273 7.695 4.272 2.045 8.44 1.53 13.102 1.367 9.102-.175 17.656.373 26.625 1.938-1.19 6.913-4.606 10.071-9.688 14.687a326.706 326.706 0 0 0-4.199 3.887l-1.881 1.706c-1.427 1.63-1.427 1.63-1.192 3.65 1.288 2.778 3.027 4.474 5.214 6.617l2.588 2.558 2.72 2.645 2.733 2.691A1572.42 1572.42 0 0 0 292 349c-1.508 3.612-3.606 5.737-6.465 8.379l-2.674 2.545a558.612 558.612 0 0 1-5.586 5.195c-5.299 5.09-8.375 8.937-9.68 16.256-.72 3.175-2.107 5.74-3.595 8.625 16.02.023 32.04.041 48.06.052 7.438.005 14.875.012 22.313.023 6.48.01 12.961.017 19.442.02 3.433 0 6.867.003 10.3.01 3.827.009 7.654.009 11.48.009l3.475.01 3.14-.004 2.746.003c2.038.104 2.038.104 3.044-1.123.088-2.292.107-4.586.098-6.879l-.005-2.08a2050.78 2050.78 0 0 0-.03-6.604c-.006-1.488-.01-2.977-.014-4.466-.011-3.657-.028-7.314-.049-10.971-12.114-2.157-24.009-2.367-36.277-2.456-16.794-.145-16.794-.145-25.176-2.86-4.878-1.31-9.899-1.18-14.922-1.247a766.394 766.394 0 0 1-6.273-.128l-2.756-.038c-2.83-.296-5.013-1.101-7.596-2.271 1.326-3.022 2.63-4.762 5.195-6.816 4.175-3.533 8.018-7.326 11.86-11.211l1.914-1.932a4007.09 4007.09 0 0 0 7.93-8.035c1.943-1.974 3.893-3.942 5.843-5.908l1.815-1.856c1.444-1.452 2.939-2.853 4.443-4.242h2l.71-1.696c1.611-2.877 3.593-4.838 5.936-7.16l1.425-1.422c1.55-1.545 3.11-3.082 4.667-4.62 1.085-1.078 2.168-2.157 3.252-3.236a4790.01 4790.01 0 0 1 8.57-8.505 9231.94 9231.94 0 0 0 13.687-13.59 2359.89 2359.89 0 0 1 4.767-4.723l2.952-2.932 2.586-2.561c2.636-2.75 5.023-5.618 7.448-8.555a82.301 82.301 0 0 1 3.785-3.348c4.457-3.803 8.55-7.91 12.652-12.09a1858.5 1858.5 0 0 1 4.247-4.308l1.86-1.896C416 227 416 227 417 227a117289.614 117289.614 0 0 1 .11 103.71l.001 2.202c.01 11.77.025 23.541.043 35.312.019 12.071.03 24.142.034 36.213a12821 12821 0 0 0 .028 22.36c.012 5.707.013 11.414.01 17.121 0 2.347.005 4.694.012 7.041.01 3.192.008 6.384.003 9.575l.017 2.848-.012 2.577.002 2.234C417 470 417 470 415 472c-2.48.248-2.48.248-5.68.246l-3.686.012-4.086-.017a3251.263 3251.263 0 0 1-16.201-.008c-4.269-.01-8.537-.007-12.806-.005-7.4.001-14.8-.005-22.2-.017-10.7-.016-21.4-.021-32.1-.024a62241.05 62241.05 0 0 1-52.074-.036c-16.865-.018-33.73-.033-50.595-.041l-3.149-.002-15.635-.007c-43.263-.021-86.525-.056-129.788-.101-1.469-2.937-1.137-5.895-1.126-9.115l-.004-2.257c-.004-2.522 0-5.044.003-7.566l-.005-5.448c-.004-5.01-.002-10.02.001-15.03.003-5.396 0-10.791-.004-16.187-.004-10.577-.003-21.154 0-31.731.002-8.593.002-17.185.001-25.777v-3.699l-.001-7.437c-.003-23.274 0-46.547.006-69.82.004-19.993.003-39.986-.001-59.98a191601.893 191601.893 0 0 1-.004-76.976v-3.683c.002-8.588 0-17.176-.002-25.763-.003-10.457-.002-20.914.003-31.371.003-5.341.004-10.682 0-16.023-.003-4.88-.001-9.761.004-14.642.001-1.774 0-3.548-.002-5.321-.003-2.395 0-4.79.005-7.185l-.007-2.13c.024-6.09.753-5.984 6.685-5.985Z" fill="#F3F8F8"/><path d="m71.963 24.497 3.721-.032 4.095.027a1636.772 1636.772 0 0 1 16.3-.015c4.297.01 8.593-.005 12.889-.016a7231.39 7231.39 0 0 1 25.253-.002 10487.293 10487.293 0 0 0 23.465.004l5.927-.004c18.534-.011 37.069.002 55.603.023 15.913.018 31.826.015 47.739-.003a30373.927 30373.927 0 0 1 61.305-.014l2.935.002c6.834.003 13.667-.003 20.5-.012 8.325-.011 16.65-.008 24.975.013 4.25.01 8.499.015 12.748.001 3.888-.012 7.774-.005 11.662.016 1.409.005 2.818.002 4.227-.007 1.91-.012 3.82.002 5.73.019l3.22.002c3.441.629 4.625 1.767 6.743 4.501.508 2.772.508 2.772.519 6.024l.042 3.739-.015 4.093c.009 1.44.02 2.878.031 4.317.028 3.905.031 7.81.03 11.714.004 4.082.03 8.163.052 12.244.041 7.728.061 15.455.074 23.183.016 8.798.055 17.596.095 26.394.082 18.097.137 36.195.172 54.292l2.383-2.43a2657.49 2657.49 0 0 1 8.823-8.94 1261.5 1261.5 0 0 0 3.806-3.868c1.825-1.862 3.66-3.713 5.496-5.563l1.696-1.743c4.772-4.774 9.315-7.883 16.296-7.894 5.967.17 8.997 2.107 13.312 6.125 2.278 4.435 2.679 8.83 1.713 13.716-2.734 8.124-7.622 10.762-14.734 15.015-17.705 11.714-35.492 27.241-40.376 48.767-3.26 17.524-3.385 35.472-3.376 53.245v2.066c.006 17.753.493 35.484 1.14 53.225.373 10.303.63 20.604.803 30.912l.038 2.217c.074 4.4.144 8.799.212 13.199a15394.72 15394.72 0 0 0 .345 21.276c.17 10.132.433 20.259.746 30.388.108 3.716.215 7.433.321 11.149.106 3.444.233 6.887.362 10.33l.177 6.172.126 2.81.06 2.57.077 2.214c-.666 3.048-1.977 4.187-4.446 6.042-2.743.501-2.743.501-5.963.503l-3.721.032-4.095-.027a1636.773 1636.773 0 0 1-16.3.015c-4.297-.01-8.593.005-12.889.016-8.418.018-16.835.014-25.253.002-6.84-.009-13.679-.01-20.519-.006l-2.946.002-5.927.004c-18.534.011-37.069-.002-55.603-.023-15.913-.018-31.826-.015-47.739.003a30373.927 30373.927 0 0 1-61.305.014l-2.935-.002c-6.834-.003-13.667.003-20.5.012-8.325.011-16.65.008-24.975-.013-4.25-.01-8.499-.015-12.748-.001-3.888.012-7.774.005-11.662-.016a425.422 425.422 0 0 0-4.227.007c-1.91.012-3.82-.002-5.73-.019l-3.22-.002C66 476 66 476 63.659 474.431c-2.218-3.25-2.213-6.03-2.162-9.83l-.018-2.277c-.015-2.533 0-5.064.013-7.596a2611.055 2611.055 0 0 1-.015-20.586c.01-5.425-.005-10.85-.016-16.274a11303.24 11303.24 0 0 1-.002-31.895 16728.72 16728.72 0 0 0 .004-29.634l-.004-7.482c-.011-22.737 0-45.474.021-68.21.02-20.766.018-41.53-.001-62.295a48433.14 48433.14 0 0 1-.014-77.412l.002-3.705c.003-8.63-.003-17.262-.012-25.893-.011-10.513-.008-21.026.013-31.54.01-5.367.015-10.734.001-16.102-.012-4.908-.005-9.817.016-14.726.005-1.78.002-3.56-.007-5.341-.012-2.412 0-4.822.019-7.233l-.029-2.119c.05-3.198.373-5.048 2.19-7.712 2.972-1.991 4.739-2.07 8.305-2.072ZM66 30c-.1 2.34-.134 4.65-.126 6.99l-.004 2.252c-.004 2.523 0 5.046.003 7.569l-.005 5.443c-.004 5.01-.002 10.021.001 15.032.003 5.394 0 10.788-.004 16.182a45647.42 45647.42 0 0 0 0 31.731c.002 8.593.002 17.185.001 25.778v3.698l-.001 7.437c-.003 23.275 0 46.55.006 69.826.004 19.993.003 39.985-.001 59.978a191570.898 191570.898 0 0 0-.004 76.973v3.684c.002 8.587 0 17.173-.002 25.76-.003 10.458-.002 20.916.003 31.374.003 5.341.004 10.682 0 16.023-.003 4.882-.001 9.764.004 14.646.001 1.773 0 3.547-.002 5.32-.003 2.396 0 4.793.005 7.19l-.007 2.121c-.027 3.62-.027 3.62 1.133 6.993a239300.207 239300.207 0 0 0 148.572.11l3.152.001c16.863.01 33.727.025 50.59.043 17.291.019 34.583.03 51.874.034 10.678.003 21.356.012 32.033.028 7.313.01 14.626.014 21.94.011 4.224-.001 8.449 0 12.674.011 3.863.01 7.725.01 11.588.004 1.402-.001 2.805.002 4.207.008 1.896.008 3.793.002 5.69-.004l3.2.002c2.655-.001 2.655-.001 4.48-2.248.3-1.872.3-1.872.246-4.041l.012-2.577-.017-2.848.005-3.012c.003-3.352-.008-6.704-.019-10.056v-7.183c.001-5.166-.004-10.331-.016-15.497-.016-7.469-.021-14.938-.024-22.407a29360.83 29360.83 0 0 0-.036-36.35c-.018-11.773-.033-23.546-.041-35.318l-.002-2.198-.007-10.916c-.021-30.199-.056-60.398-.101-90.597l-3.364 2.87-1.893 1.615c-1.992 1.731-3.868 3.542-5.716 5.425l-2.037 2.06-2.053 2.092c-7.197 7.334-7.197 7.334-10.996 10.434a48.081 48.081 0 0 0-5.967 6c-4.128 4.768-8.563 9.193-13.048 13.623a1682.99 1682.99 0 0 0-4.45 4.414 7463.503 7463.503 0 0 1-12.634 12.53 3764.467 3764.467 0 0 0-7.766 7.71c-.984.978-1.969 1.953-2.956 2.926a1123.8 1123.8 0 0 0-4.1 4.07l-2.359 2.336c-1.88 1.726-1.88 1.726-1.661 3.895l-1.61.62c-3.388 1.956-5.913 4.678-8.624 7.454l-1.809 1.825a2045.331 2045.331 0 0 0-5.707 5.788 4009.478 4009.478 0 0 1-7.484 7.575l-1.805 1.825c-3.713 3.734-7.511 7.283-11.614 10.592-1.624 1.392-1.624 1.392-2.347 4.321 3.586 1.624 6.424 2.255 10.352 2.309l3.082.076c2.104.035 4.208.066 6.312.094 5.057.13 9.495.458 14.32 2.021 8.19 2.463 16.77 2.001 25.246 2.062 11.414.108 22.419.431 33.688 2.438.025 4.397.043 8.793.055 13.19.005 1.496.012 2.993.02 4.49.013 2.147.018 4.294.023 6.441l.016 3.92C388 389 388 389 387 390a78.392 78.392 0 0 1-4.79.12l-3.14.004-3.475-.01h-3.635c-3.3 0-6.6-.006-9.899-.013-3.444-.006-6.889-.006-10.334-.008-6.527-.003-13.054-.011-19.581-.021-7.43-.011-14.858-.017-22.288-.022-15.286-.01-30.572-.028-45.858-.05l1.023-2.414 1.352-3.211 1.336-3.164c1.325-3.187 1.325-3.187 2.318-6.446 1.244-3.544 3.081-5.33 5.76-7.945l1.404-1.386a623.98 623.98 0 0 1 4.432-4.309c1.004-.983 2.006-1.968 3.008-2.953 2.447-2.4 4.903-4.79 7.367-7.172-1.48-3.478-3.431-5.605-6.168-8.188l-2.455-2.367a1046.27 1046.27 0 0 0-5.164-4.89l-2.443-2.368-2.263-2.144C272 329 272 329 272.062 326.957c1.102-2.299 2.34-3.685 4.176-5.453l1.987-1.943 2.087-1.999c5.074-4.829 5.074-4.829 9.668-10.097 5.16-6.296 12.054-11.107 18.44-16.083 17.458-13.608 34.201-27.998 50.58-42.882l2.09-1.894c34.846-31.656 61.153-60.946 63.79-109.591.6-12.972.2-25.872-.568-38.828l-.149-2.583C422.865 73.584 420.503 51.779 417 30c-2.668-1.334-4.689-1.125-7.678-1.126l-3.684-.008-4.083.007-4.31-.005c-3.96-.004-7.922-.002-11.883.001-4.267.003-8.534-.001-12.8-.004-8.364-.004-16.727-.003-25.09 0-6.794.002-13.588.002-20.382.001h-2.925l-5.882-.001c-18.403-.003-36.807 0-55.21.006-15.809.004-31.617.003-47.426-.001a119809.578 119809.578 0 0 0-60.87-.004h-2.913c-6.79.002-13.58 0-20.371-.002-8.269-.003-16.537-.002-24.806.003-4.222.003-8.445.004-12.668 0-3.86-.003-7.719-.001-11.578.004-1.402.001-2.805 0-4.207-.002-1.894-.003-3.788.001-5.682.005h-3.199c-2.31-.14-2.31-.14-3.353 1.126Z" fill="#E61E3A"/><path d="M392 250h1c.117 18.167.205 36.335.26 54.502.025 8.436.06 16.871.117 25.306.05 7.353.082 14.705.093 22.057.007 3.893.022 7.786.059 11.679.034 3.665.044 7.33.037 10.994.002 1.985.028 3.97.056 5.955-.049 8.457-.049 8.457-2.423 12.806-4.916 2.614-9.458 2.386-14.947 2.329l-3.603.022c-3.255.015-6.508.009-9.763-.007-3.412-.01-6.824.009-10.236.025-6.465.027-12.93.03-19.396.024-11.57-.01-23.139.014-34.708.054-3.393.011-6.786.017-10.18.01-3.786-.007-7.573-.002-11.36.004-1.117-.005-2.234-.01-3.385-.017-9.674-.038-9.674-.038-18.078 4.253l-2.356 2.442c-16.576 15.634-39.38 24.494-60.062 33.312l-2.377 1.016c-3.06 1.273-5.4 2.234-8.748 2.234 2.274-7.246 5.105-14.125 8.188-21.063l1.481-3.34C202.44 390.474 215.026 362.751 241 352l3.375-1.063c3.088-1.102 4.56-2.414 6.625-4.937l1-3-2.375-.25c-2.928-.606-5.05-1.284-7.75-2.438-11.484-4.76-23.781-8.102-35.953-10.574C203 329 203 329 199.512 327.551c-5.92-2.287-12.195-2.847-18.45-3.676a2308.62 2308.62 0 0 1-7.34-1.008l-3.257-.434C168 322 168 322 167 321a131.78 131.78 0 0 1-.063-6.063l.028-3.347L167 309h-4v-3c-7.095 1.685-7.095 1.685-14 4l-1 2c-5.515.25-5.515.25-7.746-.902-3.101-1.51-6.192-2.09-9.566-2.786l-3.864-.824c-3.999-.51-6.916-.464-10.824.512l-2.387 2.047c-3.753 2.805-6.877 2.401-11.425 2.203l-2.39-.055A375.97 375.97 0 0 1 94 312c-.029-3.812-.047-7.625-.063-11.438l-.025-3.298-.01-3.135-.016-2.904C94 289 94 289 95 288c.225-2.028.448-4.057.621-6.09C96 280 96 280 98 278c5.312-.374 10.143.466 15.313 1.5 11.913 2.211 24.01 2.392 35.687-1.5 7.37-.38 14.557-.472 21.703 1.516 2.906.612 5.705.602 8.672.671 6.189.408 9.613 2.297 14.605 5.82 6.842 4.515 16.008 9.859 24.395 8.993 3.424-.819 3.424-.819 5.625-2 8.97-1.047 18.044 2.304 25.273 7.695 4.272 2.045 8.44 1.53 13.102 1.368 9.102-.176 17.656.372 26.625 1.937-1.19 6.913-4.606 10.071-9.688 14.688a326.706 326.706 0 0 0-4.199 3.886l-1.881 1.706c-1.427 1.63-1.427 1.63-1.192 3.65 1.288 2.778 3.027 4.474 5.214 6.617l2.588 2.558 2.72 2.645 2.733 2.691A1572.42 1572.42 0 0 0 292 349c-1.508 3.612-3.606 5.737-6.465 8.379l-2.674 2.545a558.612 558.612 0 0 1-5.586 5.195c-5.299 5.09-8.375 8.937-9.68 16.256-.72 3.175-2.107 5.74-3.595 8.625 16.02.023 32.04.041 48.06.052 7.438.005 14.875.012 22.313.023 6.48.01 12.961.017 19.442.02 3.433 0 6.867.003 10.3.01 3.827.009 7.654.009 11.48.009l3.475.01 3.14-.004 2.746.003c2.038.104 2.038.104 3.044-1.123.088-2.292.107-4.586.098-6.879l-.005-2.08a2050.78 2050.78 0 0 0-.03-6.603A4240.961 4240.961 0 0 0 388 358c-12.114-2.157-24.009-2.367-36.277-2.456-16.794-.145-16.794-.145-25.176-2.86-4.878-1.31-9.899-1.18-14.922-1.247a766.394 766.394 0 0 1-6.273-.128l-2.756-.038c-2.83-.296-5.013-1.101-7.596-2.271 1.326-3.022 2.63-4.762 5.195-6.816 4.175-3.533 8.018-7.326 11.86-11.211l1.914-1.932a4007.09 4007.09 0 0 0 7.93-8.035c1.943-1.974 3.893-3.942 5.843-5.908l1.815-1.856c1.444-1.452 2.939-2.853 4.443-4.242h2l.71-1.696c1.611-2.877 3.593-4.838 5.936-7.16l1.425-1.422c1.55-1.545 3.11-3.082 4.667-4.62 1.085-1.078 2.168-2.157 3.252-3.236a4790.01 4790.01 0 0 1 8.57-8.505 9231.94 9231.94 0 0 0 13.687-13.59 2782.05 2782.05 0 0 1 4.767-4.723l2.952-2.932 2.586-2.561a98.453 98.453 0 0 0 5.2-5.875L392 250Z" fill="#F4F6FB"/><path d="M268 57c15.481-.047 30.962-.082 46.443-.104 7.188-.01 14.376-.024 21.564-.047 6.263-.02 12.527-.033 18.79-.037 3.318-.003 6.635-.01 9.953-.023 3.7-.015 7.4-.017 11.1-.016l3.35-.022 3.042.008 2.653-.005C387 57 387 57 389 59c.246 2.495.246 2.495.24 5.707l.009 3.68-.022 4.059v4.257c.002 3.86-.01 7.718-.024 11.578-.013 4.03-.014 8.06-.016 12.091-.006 7.636-.023 15.272-.043 22.907-.022 8.692-.033 17.383-.043 26.075-.021 17.882-.056 35.764-.101 53.646l-3.21 1.059-4.165 1.379-2.117.697c-3.826 1.252-3.826 1.252-7.508 2.865-2.564.377-5.12.71-7.691 1.016-1.603.2-3.205.403-4.807.605-2.506.313-5.013.623-7.521.92-19.315 1.474-19.315 1.474-35.981 9.459l-2-1-2 2c-3 0-3 0-5-1l1-4-1.64.444c-2.698.636-5.386 1.054-8.13 1.458l-3.424.507-3.618.529-3.672.54C279.02 221.72 270.52 222.916 262 224c-.767-8.773-.767-8.773 1.875-13 3.492-2.235 5.996-2.785 10.035-3.414 2.983-.566 5.805-1.385 8.696-2.301 8.631-2.736 17.253-4.471 26.2-5.853 6.152-.972 12.425-1.998 18.194-4.432 1.82-2.629 2.07-3.87 1.875-7-1.189-2.718-2.993-4.718-4.875-7-4.065-6.205-3.131-14.883-3-22l-5 2 1.625-3.313L319 154l-2-3c-4.786-.392-8.73-.458-13 2l-1 3c-6.452 3.664-12.607 5.71-20 5v-4l-6 1c3.117-3.793 6.043-7.069 10-10 1.56-4.68.905-9.544.742-14.434.278-3.842.933-4.7 3.258-7.566.184-2.297.184-2.297-.25-4.688l-.363-2.648L290 116c-.15-1.604-.295-3.208-.438-4.813-.372-3.368-1.18-6.075-2.562-9.187l-.5-2.75L286 97l-2-1a129.026 129.026 0 0 1-1.875-7.5c-1.295-5.578-2.77-10.672-5.39-15.8C276 71 276 71 276 68l-2.375-.813C271 66 271 66 269 63c-.39-1.99-.732-3.99-1-6Z" fill="#F4F8FE"/><path d="m163.5 322.25 2.12.069c14.21.485 28.296 1.234 41.61 6.654 3.364 1.247 6.785 2.08 10.27 2.902 6.266 1.498 12.418 3.25 18.563 5.188l2.378.743c4.651 1.486 9.102 3.2 13.559 5.194-.48 4.318-2.714 6.33-6 9-1.98.773-1.98.773-4.188 1.438-16.856 5.098-27.07 19.175-35.812 33.562a250.124 250.124 0 0 0-2 4c-14.047.047-28.094.082-42.14.104-6.523.01-13.045.024-19.567.047-6.289.022-12.578.034-18.868.039-2.404.003-4.808.01-7.212.021-3.358.015-6.715.017-10.072.016l-3.038.022-2.762-.008-2.408.005C96 391 96 391 94 389c-.24-2.632-.24-2.632-.227-6.01v-3.822l.032-4.145.008-4.228c.008-3.713.028-7.425.05-11.137.02-3.787.03-7.574.04-11.361.02-7.432.055-14.865.097-22.297l3.85-.03 2.166-.017c1.984.047 1.984.047 4.379.527 20.2 4.029 39.175-4.895 59.105-4.23Z" fill="#01012C"/><path d="m99.07 52.494 3.118-.034 3.42.025 3.638-.02c3.334-.016 6.667-.013 10-.003 3.595.007 7.19-.009 10.784-.022a4993.39 4993.39 0 0 1 21.127-.013c5.723.006 11.446.005 17.17-.001l2.466-.003 4.96-.006c15.513-.016 31.025-.007 46.538.01 14.197.014 28.394 0 42.59-.03a16361.055 16361.055 0 0 1 51.116-.026c5.716.002 11.433-.007 17.149-.022a3613.33 3613.33 0 0 1 20.898.005c3.556.012 7.11.015 10.665-.004 3.852-.02 7.703 0 11.555.022l3.414-.036c4.787.058 7.481.097 11.515 2.819 2.1 3.307 2.437 5.096 2.449 8.993.015 1.237.03 2.473.047 3.747l-.026 4.087a1171.398 1171.398 0 0 1 .042 16.043c-.008 3.264 0 6.527.01 9.79.02 7.698.014 15.395-.008 23.093-.023 7.94-.005 15.878.033 23.818.031 6.82.039 13.64.028 20.46-.007 4.071-.005 8.142.02 12.214a851.64 851.64 0 0 1-.018 11.485 281.61 281.61 0 0 0 .013 4.212c.103 10.644.103 10.644-2.17 13.873-1.66 1.404-1.66 1.404-4.613 3.03l-1-4-6 3v-2c-3.122 1.309-3.122 1.309-5 4-7.243 2.791-13.872 3.26-21.504 2.227-2.625-.407-2.625-.407-5.496.773l1-3 1.953-.212c2.976-.331 5.949-.685 8.922-1.038l3.07-.332c6.01-.732 11.112-1.943 16.61-4.507 3.105-1.157 6.168-1.477 9.445-1.911-.107-18.758-.22-37.516-.34-56.274-.055-8.709-.108-17.418-.157-26.127a22559.2 22559.2 0 0 0-.14-22.764c-.026-4.02-.051-8.04-.072-12.061-.02-3.78-.044-7.56-.071-11.34-.01-1.39-.018-2.782-.023-4.173-.009-1.891-.024-3.783-.039-5.674l-.02-3.215c.128-2.327.128-2.327-1.138-3.372a74.816 74.816 0 0 0-4.68-.114h-3.068l-3.394.016-3.552.005c-3.225.005-6.45.014-9.676.025-3.373.01-6.746.013-10.119.017-9.316.012-18.633.034-27.95.056-8.526.02-17.052.038-25.578.048-3.359.005-6.718.01-10.076.022-3.75.012-7.499.018-11.248.023l-3.37.015h-3.1l-2.687.007c-2.588-.124-4.978-.548-7.502-1.12l-1 2-3-1c-3.304.322-3.304.322-6 2-.425 1.948-.79 3.91-1.125 5.875l-.57 3.242c-.513 2.949-.513 2.949.695 5.883l-2.437-.062c-2.497-.234-2.497-.234-3.563 1.062a167.62 167.62 0 0 0-.562 6.563l-.254 3.628L243 89l2 1-2 3v4l-1 2h3c3.02 5.316 3.02 5.316 2.938 8.063-2.001 4.135-4.947 7.64-8.938 9.937-2.437.125-2.437.125-5 0l-2.687.563C229 118 229 118 227 117c-1.294-4.635-.79-7.579 1-12h2l1-11h-2v-6h-2l1-4h2l1-3-2 1a146.83 146.83 0 0 1-6.312.625l-3.426.29c-2.974.077-5.391-.193-8.262-.915-1.231-3.694-.644-6.206 0-10l-3 1c1.364-5.154 4.726-8.066 9-11h2l1-5-125 1c-.03 40.272-.03 40.272-.049 80.545l-.006 16.275v2.06c-.005 10.987-.013 21.972-.022 32.958-.01 11.27-.015 22.54-.017 33.81-.001 6.331-.004 12.663-.012 18.995-.006 5.955-.009 11.91-.007 17.865 0 2.19-.002 4.38-.006 6.57-.005 2.981-.004 5.962-.001 8.943l-.01 2.65c.01 3.362.06 6.118 1.13 9.329l-1 1a95.557 95.557 0 0 0-.316 5.129l-.127 3.135-.12 3.299-.13 3.31c-.107 2.709-.209 5.418-.307 8.127 11.162.517 11.162.517 20.938-3.625 3.323-2.577 3.751-2.713 7.687-2.375 1.8.288 3.591.626 5.375 1l3.285.684c5.628 1.247 11.197 2.648 16.715 4.316l1-3c4.394-2.548 8.959-3.378 14-3v3h4l1 12 5 1v1l-2.013-.048c-15.854-.64-15.854-.64-31.327 2.196-7.342 2.35-14.215 3.17-21.91 3.102l-2.582.023c-5.1-.015-9.976-.484-15.015-1.29l-3.504-.555L94 326c.107 8.197.22 16.394.34 24.59.055 3.806.108 7.612.157 11.418.048 3.67.1 7.34.156 11.01.02 1.403.04 2.806.056 4.209.024 1.959.055 3.918.086 5.876.015 1.117.03 2.234.047 3.385-.124 2.45-.124 2.45 1.158 3.512 1.391.108 2.787.147 4.182.158l2.733.03 3.02.017 3.164.03c3.468.032 6.936.057 10.405.081l7.193.063c6.324.056 12.648.105 18.973.153 6.448.05 12.896.106 19.344.161 12.662.108 25.324.21 37.986.307l-1 4c-13.865.117-27.73.205-41.594.26-6.438.025-12.876.06-19.313.117a2823.4 2823.4 0 0 1-18.635.097c-2.371.01-4.742.028-7.113.055-3.319.036-6.636.04-9.955.039l-2.978.054-2.749-.02-2.377.013c-3.83-1.03-5.029-2.313-7.286-5.615-.755-4.4-.67-8.762-.628-13.216-.005-1.375-.012-2.75-.022-4.125-.019-3.778-.006-7.556.011-11.334.013-4.074-.002-8.148-.014-12.222-.018-7.982-.01-15.962.008-23.944a7259.29 7259.29 0 0 0 .013-22.25l-.003-5.62c-.008-16.573.008-33.146.038-49.72.029-16.09.036-32.179.02-48.269a26849.614 26849.614 0 0 1 .003-58.139l.003-2.783c.005-6.479.002-12.958-.005-19.438-.007-7.893 0-15.785.024-23.678.013-4.029.019-8.058.008-12.086-.01-3.686-.002-7.371.021-11.057.008-1.97-.004-3.94-.017-5.91l.034-3.53.003-3.053c1.043-5.45 4.332-7.125 9.573-7.132Z" fill="#9794AD"/><path d="m71.963 24.497 3.721-.032 4.095.027a1636.772 1636.772 0 0 1 16.3-.015c4.297.01 8.593-.005 12.889-.016a7231.39 7231.39 0 0 1 25.253-.002 10487.293 10487.293 0 0 0 23.465.004l5.927-.004c18.534-.011 37.069.002 55.603.023 15.913.018 31.826.015 47.739-.003a30373.927 30373.927 0 0 1 61.305-.014l2.935.002c6.834.003 13.667-.003 20.5-.012 8.325-.011 16.65-.008 24.975.013 4.25.01 8.499.015 12.748.001 3.888-.012 7.774-.005 11.662.016 1.409.005 2.818.002 4.227-.007 1.91-.012 3.82.002 5.73.019l3.22.002c3.442.629 4.626 1.765 6.743 4.501.503 2.795.503 2.795.508 6.08l.034 3.777-.024 4.135c.005 1.454.012 2.908.02 4.362.02 3.946.012 7.892 0 11.838-.01 4.128-.001 8.256.005 12.384.007 6.931-.002 13.862-.022 20.793a4484.46 4484.46 0 0 0 .008 24.052c.018 6.881.02 13.762.01 20.643-.006 4.11-.007 8.221.006 12.332.012 3.864.004 7.727-.02 11.59-.005 1.42-.003 2.84.006 4.259.01 1.934-.006 3.868-.023 5.803l-.005 3.283C421 177 421 177 417 180V30H67v442l173.937-.438 55.028-.13 32.407-.088c7.246-.02 14.493-.037 21.74-.052 8.346-.018 16.693-.039 25.04-.064 4.274-.013 8.549-.025 12.823-.031 3.858-.007 7.716-.018 11.573-.032 1.402-.004 2.804-.007 4.206-.008 1.896-.002 3.792-.01 5.688-.018l3.202-.008c2.313.134 2.313.134 3.356-1.131.087-3.129.108-6.235.087-9.363l-.008-3.016c-.01-3.362-.028-6.723-.045-10.085l-.024-7.198c-.014-4.507-.03-9.015-.049-13.523a13989.878 13989.878 0 0 1-.089-30.746l-.014-6.334-.057-23.894-.006-2.207c-.03-11.806-.076-23.611-.127-35.417-.05-12.11-.083-24.22-.098-36.331-.01-7.476-.035-14.951-.08-22.427-.033-5.725-.04-11.45-.037-17.176a936.645 936.645 0 0 0-.036-7.06 801.136 801.136 0 0 1-.012-9.606l-.046-2.848c.026-2.367.071-4.471.641-6.769 2.537-2.101 2.537-2.101 5-3a61386.11 61386.11 0 0 1 .223 108.418c.017 12.048.049 24.095.086 36.143.037 12.358.06 24.716.067 37.073.006 7.629.023 15.257.056 22.885.023 5.845.026 11.69.02 17.535.002 2.4.01 4.802.025 7.203.02 3.27.015 6.539.004 9.809l.035 2.9-.024 2.653.005 2.288c-.726 3.057-2.004 4.222-4.497 6.093-2.743.501-2.743.501-5.963.503l-3.721.032-4.095-.027a1636.773 1636.773 0 0 1-16.3.015c-4.297-.01-8.593.005-12.889.016-8.418.018-16.835.014-25.253.002-6.84-.009-13.679-.01-20.519-.006l-2.946.002-5.927.004c-18.534.011-37.069-.002-55.603-.023-15.913-.018-31.826-.015-47.739.003a30373.927 30373.927 0 0 1-61.305.014l-2.935-.002c-6.834-.003-13.667.003-20.5.012-8.325.011-16.65.008-24.975-.013-4.25-.01-8.499-.015-12.748-.001-3.888.012-7.774.005-11.662-.016a425.422 425.422 0 0 0-4.227.007c-1.91.012-3.82-.002-5.73-.019l-3.22-.002C66 476 66 476 63.659 474.431c-2.218-3.25-2.213-6.03-2.162-9.83l-.018-2.277c-.015-2.533 0-5.064.013-7.596a2611.055 2611.055 0 0 1-.015-20.586c.01-5.425-.005-10.85-.016-16.274a11303.24 11303.24 0 0 1-.002-31.895 16728.72 16728.72 0 0 0 .004-29.634l-.004-7.482c-.011-22.737 0-45.474.021-68.21.02-20.766.018-41.53-.001-62.295a48433.14 48433.14 0 0 1-.014-77.412l.002-3.705c.003-8.63-.003-17.262-.012-25.893-.011-10.513-.008-21.026.013-31.54.01-5.367.015-10.734.001-16.102-.012-4.908-.005-9.817.016-14.726.005-1.78.002-3.56-.007-5.341-.012-2.412 0-4.822.019-7.233l-.029-2.119c.05-3.198.373-5.048 2.19-7.712 2.972-1.991 4.739-2.07 8.305-2.072Z" fill="#9794AD"/><path d="M392 250h1c.117 18.167.205 36.335.26 54.502.025 8.436.06 16.871.117 25.306.05 7.353.082 14.705.093 22.057.007 3.893.022 7.786.059 11.679.034 3.665.044 7.33.037 10.994.002 1.985.028 3.97.056 5.955-.028 4.911-.052 8.44-2.388 12.81-5.084 2.668-9.894 2.35-15.552 2.265l-3.785.002c-3.418-.003-6.834-.028-10.25-.063-3.575-.031-7.149-.034-10.723-.04a3959.05 3959.05 0 0 1-20.293-.107 5741.91 5741.91 0 0 0-23.108-.108c-15.841-.053-31.682-.14-47.523-.252l2-4 1.95-.013c15.63-.103 31.261-.212 46.892-.326 7.559-.056 15.118-.11 22.677-.158 6.586-.043 13.172-.09 19.758-.14 3.49-.026 6.978-.051 10.468-.072 3.889-.023 7.778-.054 11.667-.086l3.53-.017 3.192-.03 2.79-.02c2.066.091 2.066.091 3.076-1.138.088-2.292.107-4.586.098-6.879l-.005-2.08a2050.78 2050.78 0 0 0-.03-6.603A4240.961 4240.961 0 0 0 388 358c-12.114-2.157-24.009-2.367-36.277-2.456-16.794-.145-16.794-.145-25.176-2.86-4.878-1.31-9.899-1.18-14.922-1.247a766.394 766.394 0 0 1-6.273-.128l-2.756-.038c-2.83-.296-5.013-1.101-7.596-2.271 1.326-3.022 2.63-4.762 5.195-6.816 4.175-3.533 8.018-7.326 11.86-11.211l1.914-1.932a4007.09 4007.09 0 0 0 7.93-8.035c1.943-1.974 3.893-3.942 5.843-5.908l1.815-1.856c1.444-1.452 2.939-2.853 4.443-4.242h2l.71-1.696c1.611-2.877 3.593-4.838 5.936-7.16l1.425-1.422c1.55-1.545 3.11-3.082 4.667-4.62 1.085-1.078 2.168-2.157 3.252-3.236a4790.01 4790.01 0 0 1 8.57-8.505 9231.94 9231.94 0 0 0 13.687-13.59 2782.05 2782.05 0 0 1 4.767-4.723l2.952-2.932 2.586-2.561a98.453 98.453 0 0 0 5.2-5.875L392 250Z" fill="#9794AC"/><path d="m224 318 2 1v11l3.035-.105c11.116-.267 11.116-.267 15.528 1.668 5.675 2.373 11.43 1.063 17.437.437h3c1.655-1.077 1.655-1.077 3.188-2.5L271 327l1.04 1.258c6.223 7.327 13.125 13.992 19.96 20.742-1.508 3.612-3.606 5.737-6.465 8.379l-2.674 2.545a558.612 558.612 0 0 1-5.586 5.195c-5.406 5.194-8.273 9.05-9.76 16.438-.659 3.124-1.967 5.47-3.702 8.13l-1.606 2.512L261 394l4 2-3.2.723c-3.812 1.095-5.838 2.839-8.613 5.714-16.576 15.635-39.38 24.495-60.062 33.313l-2.377 1.016c-3.06 1.273-5.4 2.234-8.748 2.234 2.274-7.246 5.105-14.125 8.188-21.063l1.481-3.34C202.44 390.474 215.026 362.751 241 352l3.375-1.063c3.088-1.102 4.56-2.414 6.625-4.937l1-3-2.375-.25c-2.928-.606-5.05-1.284-7.75-2.438-11.6-4.808-23.954-8.026-36.21-10.664-2.326-.566-4.35-1.27-6.54-2.21-5.971-2.456-12.752-2.733-19.125-3.438 2.732-2.732 4.893-2.69 8.645-3.047 3.48.07 6.179 1.678 9.355 3.047 4.429.629 8.946 1.137 12.969-1.09 1.804-1.476 1.804-1.476 4.031-3.91 2.986-1.493 5.709-1.118 9-1Z" fill="#C7C7C8"/><path d="M300 350c1.815.096 3.632.164 5.45.21 1.013.03 2.027.058 3.071.087 2.091.051 4.183.096 6.274.133 5.034.152 9.464.52 14.267 2.074 8.192 2.457 16.773 1.997 25.25 2.058 31.547.297 31.547.297 34.688 3.438.218 4.4.186 8.805.185 13.21.002 2.215.02 4.429.04 6.644.003 1.401.005 2.803.005 4.205l.013 3.884C389 389 389 389 387 391c-2.183.246-2.183.246-4.948.24l-3.17.009-3.492-.022h-3.666c-3.322 0-6.644-.01-9.966-.024-3.47-.013-6.94-.014-10.41-.016a9370.39 9370.39 0 0 1-19.72-.043c-7.482-.022-14.964-.033-22.447-.043-15.393-.021-30.787-.056-46.181-.101l1.023-2.633 1.352-3.492 1.336-3.445c.831-2.212 1.61-4.445 2.321-6.699 1.233-3.48 3.027-5.26 5.652-7.84l2.81-2.786 2.943-2.855c.979-.967 1.956-1.934 2.932-2.902 9.761-9.605 9.761-9.605 16.631-8.348Z" fill="#010235"/><path d="M466 145c3.909 1.954 6.986 4.078 9 8 1.669 5.89 1 10.586-1.36 16.154-3.499 6.072-8.798 10.77-13.773 15.635a2624.427 2624.427 0 0 0-3.6 3.59 1555.09 1555.09 0 0 1-7.53 7.447 1815.54 1815.54 0 0 0-9.658 9.57 3320.76 3320.76 0 0 1-7.427 7.376 3121.74 3121.74 0 0 0-3.562 3.533 1275.714 1275.714 0 0 1-4.97 4.897l-1.489 1.482C418.23 226 418.23 226 416 226l-.723 1.71c-1.554 2.787-3.436 4.674-5.707 6.915l-2.66 2.64-2.785 2.735-2.762 2.734a2697.5 2697.5 0 0 1-5.105 5.04 185.318 185.318 0 0 0-4.426 4.515C390 254 390 254 388 254l-.71 1.695c-1.612 2.88-3.595 4.85-5.936 7.178l-1.425 1.425c-1.55 1.55-3.109 3.093-4.667 4.636l-3.252 3.242a4740.685 4740.685 0 0 1-8.57 8.522 5892.26 5892.26 0 0 0-8.68 8.64c-5.1 5.08-10.204 10.156-15.312 15.227a2474.303 2474.303 0 0 0-10.475 10.478c-2.974 2.991-5.95 5.98-8.929 8.967a3848.451 3848.451 0 0 0-3.828 3.85c-1.858 1.87-3.72 3.738-5.583 5.605l-1.7 1.714a156.458 156.458 0 0 1-10.348 9.457c-2.326 2.001-4.449 4.163-6.585 6.364l-2-4 2.756-2.748a113954.218 113954.218 0 0 0 72.702-72.545l1.601-1.6a42753.49 42753.49 0 0 1 25.69-25.624 29748.47 29748.47 0 0 0 26.35-26.3 12287.21 12287.21 0 0 1 16.265-16.223c4.16-4.143 8.314-8.294 12.464-12.448a2309.64 2309.64 0 0 1 5.119-5.101c2.331-2.317 4.653-4.642 6.973-6.97l2.06-2.034c4.051-4.09 7.448-7.94 8.418-13.821-.047-4.723-.047-4.723-1.71-9.086-2.471-2.196-4.631-2.493-7.875-2.875-8.18.804-13.874 7.001-19.419 12.62l-2.186 2.178c-2.4 2.396-4.79 4.803-7.18 7.21-1.725 1.725-3.45 3.45-5.177 5.174a6621.987 6621.987 0 0 0-11.106 11.13 11604.12 11604.12 0 0 1-16.058 16.095 29348.575 29348.575 0 0 0-26.059 26.113 37810.24 37810.24 0 0 1-25.3 25.362l-1.577 1.58-7.836 7.847A111234.379 111234.379 0 0 0 274 330l-3-1c.58-3.45 1.7-5.052 4.203-7.46l1.973-1.93 2.074-1.985c5.329-5.134 5.329-5.134 10.234-10.664 1.915-2.253 3.539-3.888 5.768-5.745 6.753-5.852 12.943-12.306 19.239-18.64 1.459-1.465 2.918-2.93 4.378-4.393 3.13-3.14 6.26-6.283 9.388-9.426 4.947-4.97 9.899-9.935 14.851-14.9a54390.19 54390.19 0 0 0 42.22-42.356c7.776-7.811 15.559-15.617 23.347-23.418 4.925-4.933 9.843-9.872 14.757-14.817a4685.18 4685.18 0 0 1 9.182-9.2c1.42-1.423 2.836-2.847 4.25-4.274 1.93-1.947 3.87-3.886 5.812-5.822l1.687-1.716c6.465-6.398 12.582-8.48 21.637-7.254Z" fill="#B42333"/><path d="M271 65c6.86-.572 11.142.494 17 4l2.652 1.426C298.44 74.749 298.44 74.749 300 80c.294 1.35.567 2.704.813 4.063.742 3.17.952 3.75 3.625 5.874C308.118 92.9 308.93 96.5 310 101v2c9.503-.204 9.503-.204 18.082-3.469l1.356-1.656C332 95 332 95 334.27 94.539c2.342-.037 4.435-.016 6.73.461 2 2 2 2 2.688 5.625-.056 3.065-.495 4.151-2.524 6.504-2.331 2.04-4.72 3.969-7.164 5.871-3.739 3.413-5.95 6.358-8 11h-2l3 4c-4.703 2.508-9.788 2.627-15 2-2-2-2-2-2.23-4.023l.043-2.352.019-2.336c.162-2.208.562-4.164 1.168-6.289l-4 2-3-2-.516 1.977c-1.162 4.192-2.083 7.473-4.671 11.023-2.612 4.322-2.602 8.07-1.813 13 .879 2.28 1.884 4.304 3.125 6.406C301 149 301 149 301 151l4 1c-1.038 2.926-1.815 3.892-4.54 5.484-6.11 2.507-10.842 4.152-17.46 3.516v-4l-6 1c3.117-3.793 6.043-7.069 10-10 1.56-4.68.905-9.544.742-14.434.278-3.842.933-4.7 3.258-7.566.184-2.297.184-2.297-.25-4.688l-.363-2.648L290 116c-.15-1.604-.295-3.208-.438-4.813-.372-3.368-1.18-6.075-2.562-9.187l-.5-2.75L286 97l-2-1a129.026 129.026 0 0 1-1.875-7.5c-1.295-5.578-2.77-10.672-5.39-15.8C276 71 276 71 276 68l-5-2v-1Z" fill="#CDDBFD"/><path d="M248 356c3.32 2.31 6.093 5.073 8.938 7.938l2.4 2.228c5.396 5.358 5.396 5.358 6.085 9.176-.367 5.261-2.44 9.038-5.548 13.283l-1.235 1.688C250.997 400.567 241.588 407.635 230 413l-2.43-1.867c-3.963-2.642-8.071-3.39-12.695-4.258a772.58 772.58 0 0 1-4.758-.945l-2.106-.4c-2.191-.578-4.022-1.455-6.011-2.53 4.038-10.624 10.053-20.062 17-29l1.91-2.527C227.044 364.215 237.778 354.2 248 356Z" fill="#E9E9E9"/><path d="M101.121 277.781c4.08.23 7.952.9 11.942 1.719 7.748 1.494 15.034 1.838 22.937 1.5l2 5-1 1 5 2v2l1.793.48c6.216 1.836 10.203 3.99 13.52 9.832L158 303l2.875-1.5C164 300 164 300 166 300l.938-1.938C168 296 168 296 169 295c8.07-.432 15.067.06 21.563 5.25 2.716 2.576 3.366 3.325 4 7.125C194 310 194 310 193 311c-8.356.44-16.688-.161-25-1l-1 2v-3h-4v-3c-7.095 1.685-7.095 1.685-14 4l-1 2c-5.515.25-5.515.25-7.746-.902-3.101-1.51-6.192-2.09-9.566-2.786l-3.864-.824c-3.999-.51-6.916-.464-10.824.512l-2.387 2.047c-3.753 2.805-6.877 2.401-11.425 2.203l-2.39-.055A375.97 375.97 0 0 1 94 312c-.029-3.812-.047-7.625-.063-11.438l-.025-3.298-.01-3.135-.016-2.904C94 289 94 289 95 288c.225-2.028.448-4.057.621-6.09.7-3.526 2.069-3.888 5.5-4.129Z" fill="#D2D8F4"/><path d="m344.875 308.25 2.826-.009c5.995.187 10.486 1.482 15.946 3.89 4.236 1.564 8.158 1.09 12.626.8 4.738-.2 7.666.641 11.727 3.069.043 1.666.04 3.334 0 5-2.047 2.047-6.304 1.7-9 2-.96 2.195-.96 2.195-1 5 3.074 4.75 5.353 6.687 11 8v11l-4.375-.438c-.812-.08-1.624-.162-2.46-.246C380 346 380 346 378 345c-4.763-.524-8.895-.211-13.375 1.5-5.461 2.035-11.785 2.562-17.46.992-3.303-.75-6.61-.636-9.978-.617l-2.08-.012c-4.466.009-8.7.411-13.107 1.137v-2l-2-1c1.634-1.708 2.87-2.935 5-4h-4c1.018-2.661 1.667-3.805 4.164-5.266l2.461-.984 2.477-1.016L332 333a491.948 491.948 0 0 0-.375-5.375c-.07-.998-.14-1.995-.21-3.023-.179-2.757-.179-2.757-2.415-4.602l-2 1c-.955-2.51-1.157-3.618-.121-6.14 5.053-6.332 10.359-6.607 17.996-6.61Z" fill="#EAEEF6"/><path d="M389 255v81c-6.397-1.066-7.272-1.51-10.938-6.148-1.062-1.852-1.062-1.852-1-4.727C378 323 378 323 379 322c2.655-.455 5.322-.702 8-1v-5c-4.297-2.144-8.011-2.096-12.688-1.875-4.811.13-8.803.063-13.187-2.125-6.154-3.014-12.664-2.254-19.344-2.043C338 310 338 310 336 309c1.569-3.777 3.924-6.172 6.801-9.044l1.474-1.48a1463.84 1463.84 0 0 1 4.823-4.804l3.347-3.346c2.335-2.333 4.673-4.663 7.013-6.99a4238.88 4238.88 0 0 0 9.006-8.986c2.301-2.3 4.605-4.6 6.91-6.897 1.108-1.104 2.215-2.21 3.322-3.315a7315587961.355 7315587961.355 0 0 1 7.3-7.266C388 255 388 255 389 255Z" fill="#5D8ACC"/><path d="M225 57h28l-2 3a85.458 85.458 0 0 0-1.188 6l-.542 3.188c-.47 2.89-.47 2.89.73 5.812l-2.438-.063c-2.496-.233-2.496-.233-3.562 1.063a167.62 167.62 0 0 0-.563 6.563l-.253 3.628L243 89l2 1-2 3v4l-1 2h3c3.02 5.316 3.02 5.316 2.938 8.063-2.001 4.135-4.947 7.64-8.938 9.937-2.438.125-2.438.125-5 0l-2.688.563C229 118 229 118 227 117c-1.294-4.635-.79-7.579 1-12h2l1-11h-2v-6h-2l1-4h4l1-5-1.793.438-2.394.562-2.356.563c-2.537.451-4.886.51-7.457.437.236-1.752.49-3.501.75-5.25l.422-2.953c1.173-5.38 3.087-10.573 4.828-15.797Z" fill="#BBC9F6"/><path d="M198 401c6 2 6 2 8.016 2.73 4.207 1.491 8.186 2.502 12.609 3.145 5.352.902 8.364 2.462 12.375 6.125.68 2.164.68 2.164 1 4-11.07 6.163-22.36 11.632-34 16.625l-1.889.816C185.531 439 185.531 439 182 439c2.343-7.52 5.354-14.624 8.563-21.813l1.498-3.388c3.919-8.84 3.919-8.84 5.939-12.799Z" fill="#9099D9"/><path d="m327 318 1 2 2-1c2.19 3.285 2.353 4.831 2.625 8.688l.227 3.011L333 333l-2.371 1.242-3.067 1.633-3.058 1.617c-2.605 1.265-2.605 1.265-3.504 3.508l9-1-4 2a392.898 392.898 0 0 0-5 3l1 3 2.988-.988c4.112-1.173 7.948-1.275 12.2-1.2l2.115.002c3.4.03 6.427.289 9.697 1.186 5.467.448 10.448.429 15.625-1.5 8.525-3.174 15.926-1.153 24.375 1.5v6l-1.582-.621c-6.49-2.376-13.788-4.344-20.703-2.902-3.81.734-7.532.67-11.402.648l-2.42-.001c-5.108-.03-10.089-.31-15.143-1.1L336 349l-2 2c-2.523.2-4.934.28-7.457.266l-2.242.005c-1.568.002-3.136-.002-4.704-.01-2.39-.01-4.78 0-7.17.012-1.523 0-3.047-.003-4.572-.007l-2.156.012c-4.005-.038-7.092-.512-10.699-2.278 1.367-3.154 2.82-4.937 5.477-7.098 6.27-5.305 11.893-11.264 17.628-17.134l2.606-2.64 2.353-2.403C325 318 325 318 327 318Z" fill="#8D9EB5"/><path d="M272 331c3.043 1.358 5.123 2.885 7.453 5.258l1.875 1.894 1.922 1.973 1.969 1.996c1.598 1.622 3.192 3.248 4.781 4.879-4.515 5.402-9.275 10.458-14.25 15.438l-2.18 2.216-2.086 2.092-1.883 1.896C268 370 268 370 266 370c-1.445-1.469-1.445-1.469-3.125-3.5-3.737-4.405-7.744-8.466-11.875-12.5 1.514-3.568 3.605-5.837 6.352-8.547l2.578-2.558 2.695-2.645 2.719-2.691c2.214-2.191 4.433-4.377 6.656-6.559Z" fill="#E9E9E9"/><path d="M120 308c5.531-1.158 10.152 1.587 15 4v2l2.375.938C140 316 140 316 142 317v2l16 2v1l-1.992.297c-4.74.745-9.428 1.523-14.074 2.726-15.918 4.067-31.819 4.326-47.934.977v-10l4.672-.48c2.026-.235 4.052-.47 6.078-.707l3.078-.307c6-.609 6-.609 10.707-4.084L120 308Z" fill="#425988"/><path d="M358.469 309.716c1.869.697 3.705 1.48 5.531 2.284-3 2-3 2-5.688 1.625L356 313l.563 1.875c.4 2.858.469 5.316.312 8.188l-.133 2.535c-1.102 3.567-2.5 4.574-5.742 6.402-3.125.463-6.163.38-9.313.25l-2.533-.055A424.289 424.289 0 0 1 333 332l-.367-2.117-.508-2.758-.492-2.742c-.463-2.548-.463-2.548-2.633-4.383l-2 1c-.955-2.51-1.157-3.618-.121-6.14 6.982-8.749 21.503-8.07 31.59-5.144Z" fill="#A1C0E4"/><path d="m224 318 2 1v11l3.035-.105c11.116-.267 11.116-.267 15.528 1.668 5.655 2.365 11.45 1.126 17.437.437-.487 4.415-1.85 6.304-5.063 9.313l-2.222 2.113L253 345l-1-2-2.438-.375c-2.982-.523-4.963-1.14-7.687-2.313-11.6-4.808-23.954-8.026-36.21-10.664-2.326-.566-4.35-1.27-6.54-2.21-5.971-2.456-12.752-2.733-19.125-3.438 2.732-2.732 4.893-2.69 8.645-3.047 3.48.07 6.179 1.678 9.355 3.047 4.429.629 8.946 1.137 12.969-1.09 1.804-1.476 1.804-1.476 4.031-3.91 2.986-1.493 5.709-1.118 9-1Z" fill="#B8C3E2"/><path d="M210.688 91.375 213 92c1.222 5.012.48 8.123-1 13l.25 2.813c-.623 7.948-6.958 14.34-12.32 19.789C198 129 198 129 194 129v-2l-6-1c-.372-3.254-.275-4.624 1.688-7.313L192 116c1.329-2.019 2.592-4.07 3.852-6.133A158.486 158.486 0 0 1 199 105a75.938 75.938 0 0 0 1.125-5.188l.508-2.73L201 95l1 3h2l.313-2.375c.99-3.783 2.501-4.79 6.375-4.25Z" fill="#9BAFE7"/><path d="m148 312 1-3c4.394-2.548 8.959-3.378 14-3v3h4l1 12 5 1v1c-2.125.027-4.25.046-6.375.063l-3.586.035C160 323 160 323 158 322a240.45 240.45 0 0 0-6.438-1c-3.343-.478-6.356-.931-9.562-2v-2l-2.375-.938C137 315 137 315 135 314v-2c-7.31-2.904-7.31-2.904-15-3-.588.808-1.176 1.616-1.781 2.45-2.769 3.182-4.278 3.374-8.406 3.863l-3.461.417c-4.154.334-8.188.411-12.352.27v-2l3.797-.262c1.651-.14 3.302-.282 4.953-.425l2.5-.163c5.193-.453 5.193-.453 9.203-3.67L116 307c8.227-4.113 23.663 2.48 32 5Z" fill="#67769F"/><path d="M172.5 294.813c8.186.175 13.95 1.537 20.031 7.304C194 304 194 304 194.562 307.375 194 310 194 310 193 311c-8.356.44-16.688-.161-25-1l-1 2v-3h-4v-3h-5c.625-1.875.625-1.875 2-4l6-2c1.36-1.968 1.36-1.968 2-4 1-1 1-1 4.5-1.188Z" fill="#D3D8F4"/><path d="m244 94-2 5h3c3.02 5.316 3.02 5.316 2.938 8.063-2.001 4.135-4.947 7.64-8.938 9.937-2.438.125-2.438.125-5 0l-2.688.563C229 118 229 118 227 117c-1.294-4.635-.79-7.579 1-12h2l1-11 4.813-.563 2.707-.316C241 93 241 93 244 94Z" fill="#9EB3EA"/><path d="m449 148 2 1-180 180c.58-3.45 1.7-5.052 4.203-7.46l1.973-1.93 2.074-1.985c5.329-5.134 5.329-5.134 10.234-10.664 1.913-2.251 3.535-3.886 5.762-5.742 6.78-5.876 13.008-12.342 19.34-18.691l4.407-4.407c3.971-3.97 7.939-7.944 11.906-11.918 4.152-4.16 8.308-8.316 12.464-12.472 7.86-7.864 15.718-15.73 23.575-23.597 8.949-8.96 17.9-17.917 26.851-26.873C412.196 184.844 430.6 166.423 449 148Z" fill="#B13244"/><path d="m198 401 3 1c-.57 4.22-1.56 7.73-3.285 11.617l-1.358 3.086-1.42 3.172-1.431 3.242c-1.163 2.63-2.331 5.258-3.506 7.883 10.053-4.003 19.918-8.274 29.665-12.978 3.738-1.803 7.449-3.553 11.335-5.022l1 4c-11.07 6.163-22.36 11.632-34 16.625l-1.889.816C185.531 439 185.531 439 182 439c2.343-7.52 5.354-14.624 8.563-21.813l1.498-3.388c3.919-8.84 3.919-8.84 5.939-12.799Z" fill="#737FD9"/><path d="M328 335c-2 2-2 2-4.063 3-2.106.846-2.106.846-2.937 3l9-1-4 2a392.898 392.898 0 0 0-5 3l1 3 2.988-.988c4.112-1.173 7.948-1.275 12.2-1.2l2.115.002c3.4.03 6.427.289 9.697 1.186 5.467.448 10.448.429 15.625-1.5 8.525-3.174 15.926-1.153 24.375 1.5v6l-1.582-.621c-6.49-2.376-13.788-4.344-20.703-2.902-3.81.734-7.532.67-11.402.648l-2.42-.001c-5.108-.03-10.089-.31-15.143-1.1L336 349l-2 2c-7.617.721-15.42-.164-23-1l2-3 .375-3.938c.32-2.762.643-4.094 2.063-6.562 4.005-2.345 8.03-1.811 12.562-1.5Z" fill="#869DCA"/><path d="M227 57h26l-2 3c-.666 2.275-.666 2.275-1.125 4.688l-.508 2.449L249 69h-2v2h-2v2h-2v-3l-2.875.438c-3.12.439-6.244.833-9.375 1.187l-2.516.29C226 72 226 72 223 71c.284-1.585.578-3.168.875-4.75l.492-2.672C225 61 225 61 227 57Z" fill="#F3F7FE"/><path d="M336 348c1.976.019 1.976.019 4.402.367 5.74.7 11.384.781 17.16.758l3.018.012 2.861-.004 2.585-.004c1.976.089 1.976.089 2.974-1.129 15.345.345 15.345.345 20 5 .125 2.625.125 2.625 0 5l-2.587-.422c-11.59-1.735-23.042-1.95-34.745-2.034-9.609-.083-18.52-.178-27.668-3.544v-1l2.117-.148 2.758-.227c.905-.07 1.81-.14 2.742-.21 2.562-.21 2.562-.21 4.383-2.415Z" fill="#4A6EA9"/><path d="m94 290 2 1v2l1.758.113c5.026.423 8.89 1.127 13.242 3.887 1.832 2.748 2.366 3.834 2.813 6.938l.332 2.027C114 308 114 308 113.055 310.238c-3.262 2.797-6.606 2.187-10.743 2.012L94 312v-22Z" fill="#F0F1FC"/><path d="M351 309c4.967.04 9.344.344 13 4-3.29 1.097-4.713.8-8 0l.625 2.313C357 318 357 318 355 321c-2.348.695-2.348.695-5.063 1.125-3.269.307-3.269.307-5.937 1.875a91.472 91.472 0 0 1-5.063.063l-2.785-.028L334 324c-.294-5.005-.21-8.051 3-12 3.102-.89 3.102-.89 6.625-1.25 4.009-.096 4.009-.096 7.375-1.75Z" fill="#C8D3DE"/><path d="M220 57h5c-.955 5.233-1.977 10.069-4 15-.741 2.985-1.383 5.987-2 9l3.063-1c3.692-1.07 7.09-1.157 10.937-1l-1 5-1-3-2 1c-2.099.258-4.205.458-6.313.625l-3.425.29c-2.974.077-5.391-.193-8.262-.915-1.231-3.694-.644-6.206 0-10l-3 1c1.364-5.154 4.726-8.066 9-11h2l1-5Z" fill="#97AAE1"/><path d="M199 326a701.94 701.94 0 0 1 8.563-.188l2.423-.076c5.462-.067 9.143.773 14.014 3.264v2h3v3l2.816-.105c11.044-.242 16.453 1.512 25.184 8.105l-3 3v-2l-2.375-.25c-2.928-.606-5.05-1.284-7.75-2.438-11.603-4.809-24.024-8.19-36.344-10.574-2.73-.796-4.385-1.9-6.531-3.738Z" fill="#94ABD6"/><path d="m163.5 322.25 2.112.067c29.323.973 29.323.973 36.388 5.683h-17v-2c-24.298-2.064-24.298-2.064-47.75 3.137-4.61 1.224-9.062 1.24-13.813 1.238l-2.674.004c-6.358-.109-6.358-.109-9.763-2.379l3.086-.078c16.935-.614 32.54-6.232 49.414-5.672Z" fill="#082164"/><path d="m236 305-1 1.75c-1.27 2.449-1.27 2.449-1 6.25-1.277 1.57-1.277 1.57-2.938 3.125-3.881 4.192-4.04 8.338-4.062 13.875h-1v-11l-2.875.125C220 319 220 319 218 317h2l.184-2.371.254-3.067c.08-1.009.162-2.018.246-3.058C221 306 221 306 222 305c5.022-.851 8.972-1.131 14 0Z" fill="#D8DEF3"/><path d="M338 355c4.87-.05 9.741-.086 14.612-.11 1.65-.01 3.3-.023 4.951-.04 10.282-.107 20.325 0 30.437 2.15 1 1 1 1 1.063 3.563L389 363c-6.796.438-12.83-.41-19.438-1.875l-2.403-.526c-3.649-.846-5.983-1.481-9.159-3.599-2.221-.365-2.221-.365-4.668-.414l-2.705-.117-2.815-.094-2.85-.117c-2.32-.094-4.64-.18-6.962-.258v-1Z" fill="#02166C"/><path d="M163 306v3h4l1 12 5 1v1c-7.434.607-11.118-1.823-16.813-6.125C154 315 154 315 152 313l1-2h-5c1.499-2.998 3.803-3.308 6.855-4.402 2.768-.772 5.291-.812 8.145-.598Z" fill="#929FC2"/><path d="M172.563 294.938 176 295a499.665 499.665 0 0 1-.375 5.313c-.07.986-.14 1.972-.21 2.988C175 306 175 306 173 309c-1.66.364-3.327.7-5 1l-1 2v-3h-4v-3h-5c.625-1.875.625-1.875 2-4l6-2c1.36-1.968 1.36-1.968 2-4 1-1 1-1 4.563-1.063Z" fill="#B7C1E1"/><path d="m107 328 3.809.496c5.427.603 10.798.616 16.254.567l2.912-.014c2.341-.012 4.683-.028 7.025-.049-5.154 5.294-8.203 7.352-15.48 7.98-3.16.025-5.647-.695-8.52-1.98v-2h-2a105.022 105.022 0 0 1-4-5Z" fill="#011254"/><path d="M328 335c-2 2-2 2-4.063 3-2.106.846-2.106.846-2.937 3l9-1-4 2a392.898 392.898 0 0 0-5 3l1 3 3.188-1c3.2-.84 5.553-1.198 8.812-1-6.614 4.41-15.272 4.253-23 4l2-3 .375-3.938c.32-2.762.643-4.094 2.063-6.562 4.005-2.345 8.03-1.811 12.562-1.5Z" fill="#B1B6C3"/><path d="M387 315h2v21c-6.397-1.066-7.272-1.51-10.938-6.148-1.062-1.852-1.062-1.852-1-4.727C378 323 378 323 379 322c2.655-.455 5.322-.702 8-1v-6Z" fill="#78AEED"/><path d="M377 331c3.402.608 5.269 1.952 8 4l4 1v11l-4.375-.438-2.46-.246C380 346 380 346 378 345c-.414-1.89-.414-1.89-.625-4.25l-.223-2.45c-.161-2.44-.23-4.855-.152-7.3Z" fill="#EEF2FA"/><path d="M342 212v1l-2.71.55c-12.532 1.773-12.532 1.773-23.29 7.45l-2-1-2 2c-3 0-3 0-5-1l1-4-1.703.496c-2.428.533-4.566.603-7.047.566l-2.422-.027L295 218v-1c17.736-3.102 17.736-3.102 26.762-3.746 2.49-.208 2.49-.208 5.738-1.379 4.956-1.239 9.482-.546 14.5.125Z" fill="#BBD1FA"/><path d="M389 203v6l-2 1-1-4-6 3v-2c-3.122 1.309-3.122 1.309-5 4-7.243 2.791-13.872 3.26-21.504 2.227-2.625-.407-2.625-.407-5.496.773l1-3 1.953-.212c2.976-.331 5.949-.685 8.922-1.038l3.07-.332c6.082-.74 11.298-2.011 16.903-4.507C383.027 203.565 385.54 203 389 203Z" fill="#7DA3E6"/><path d="m108.063 346.688 2.66.011C113 347 113 347 115 349v4c-3.978 3.357-7.965 3.756-13 4l-3-2c.83-6.14 2.74-8.434 9.063-8.313Z" fill="#182E60"/><path d="M205 329c10.073 2.002 19.9 4.438 29.688 7.563l2.785.886c4.968 1.617 9.763 3.407 14.527 5.551l-1 4-2.063-1.313c-6.72-3.86-12.25-5.102-19.906-6.156-3.445-.604-6.057-1.7-9.031-3.531-2.852-1.572-5.435-2.428-8.625-3.063-2.357-.473-4.222-.86-6.375-1.937v-2Z" fill="#081B51"/><path d="M113 294c3.375.313 3.375.313 7 1 2.29 3.435 2.178 4.985 2 9h2l1 3-3.188-.25c-4.35.285-5.744 1.274-8.812 4.25l-2-1 .992-1.61c1.272-3.017 1.204-5.377 1.133-8.64l-.055-3.266L113 294Z" fill="#B0B9DD"/><path d="M223 333c2.856.088 5.708.195 8.563.313l2.423.068c8.607.386 14.2 3.474 21.014 8.619l-3 3v-2l-2.375-.25c-3.856-.798-7.125-2.12-10.746-3.629-5.19-2.02-10.54-3.548-15.879-5.121v-1Z" fill="#7B8AB5"/><path d="M225 57h2l-3 14h5l1 2-2 2 3 1-1 3c-3.81 1.645-6.895 2.09-11 2 1.128-8.374 3.102-16.065 6-24Z" fill="#C3D0F6"/><path d="M350 310v1l-13 2c-1.43 4.287-2.277 7.08-2.625 11.375l-.227 2.648L334 329c-2.463-2.463-2.998-4.707-4-8h-3c-.684-1.73-.684-1.73-1-4 5.17-10.32 14.368-8.496 24-7Z" fill="#ABB8C4"/><path d="m94 302 7 3v2c6.837 1.372 6.837 1.372 13-1l-3 6H94v-10Z" fill="#DCDEF2"/><path d="M221 291c17.655-.332 17.655-.332 25 4v2l1.875.938L252 300v2a133.4 133.4 0 0 1-8.234-3.508c-7.904-3.635-14.31-6.347-22.891-3.43-3.607 1.177-6.198.673-9.875-.062v-1l10-1v-2Z" fill="#6496E2"/><path d="m339.438 345.875 2.87-.008c2.692.133 2.692.133 4.618.637 2.958.707 5.79.589 8.824.558l3.547-.027L362 347c-1.121 1.484-1.121 1.484-3 3-2.785.328-2.785.328-6.063.25l-3.492-.07a122.51 122.51 0 0 1-11.52-1.157L336 349l-2 2c-2.75.266-2.75.266-6 .25l-3.25.016C322 351 322 351 320 349l2.3-.402 3.012-.536 2.989-.527c8.41-1.667 8.41-1.667 11.137-1.66Z" fill="#92A5CB"/><path d="m265 277-1.563.75c-2.612 1.29-2.612 1.29-5.61 3.29-3.843 2.196-7.06 2.498-11.51 2.57l-2.123.05c-2.21.048-4.42.07-6.631.09-1.51.028-3.02.058-4.53.09-3.677.073-7.355.123-11.033.16v-1l13-2v-1c3.874-.506 7.75-1.004 11.625-1.5l3.316-.434 3.223-.41 2.952-.38c2.979-.285 5.893-.323 8.884-.276Z" fill="#6295E2"/><path d="M149 322c30.458.529 30.458.529 42.25 2.438l2.302.37c3.41.613 5.524 1.243 8.448 3.192h-17v-2l-2.336-.168c-3.534-.255-7.068-.512-10.601-.77l-3.674-.263c-6.483-.475-12.935-1.026-19.389-1.799v-1Z" fill="#142E66"/><path d="M338 355a5767.9 5767.9 0 0 1 14.996-.055c1.699-.005 3.397-.012 5.095-.02 2.45-.013 4.9-.018 7.35-.023l2.277-.015c4.531 0 8.81.368 13.282 1.113v1c-6.658 1.746-13.103 2.769-20 2l-3-2c-2.221-.365-2.221-.365-4.668-.414l-2.705-.117-2.815-.094-2.85-.117c-2.32-.094-4.64-.18-6.962-.258v-1Z" fill="#082D7B"/><path d="M240.945 101.805 247 102c.625 2.813.625 2.813 1 6-2 3-2 3-4.938 3.813C240 112 240 112 237 110c-.313-3-.313-3 0-6 2-2 2-2 3.945-2.195Z" fill="#B9CAF5"/><path d="M105 346h12l2 5c-3.904 4.514-7.382 6.188-13 8a600.13 600.13 0 0 0-5 2c-1.5-1-1.5-1-3-3-.273-2.718-.135-5.257 0-8l2 1v4c4.018 1.607 7.02.28 11-1 1.331-.341 2.664-.68 4-1l-2-5-8-1v-1Z" fill="#091642"/><path d="M220 57h5l-2 9-4 1a197.599 197.599 0 0 0-5 3 397.79 397.79 0 0 1-6 3c1.364-5.154 4.726-8.066 9-11h2l1-5Z" fill="#8298D4"/><path d="M165 276v1l-3.219.367c-2.916.343-5.832.69-8.746 1.055l-2.043.253c-2.077.339-4.037.854-6.054 1.45-6.007 1.743-12.734 1.02-18.938.875 5.247-3.498 9.059-4.372 15.375-4.625l2.398-.115c7.077-.314 14.143-.362 21.227-.26Z" fill="#1C63C6"/><path d="m302 340 2 1-1 2v4c4.134 1.945 7.77 2.37 12.313 2.625l3.8.227L322 350v1c-3.562.058-7.125.094-10.688.125l-3.052.05-2.96.02-2.713.032c-2.849-.25-4.996-1.047-7.587-2.227 1.555-3.817 4.036-6.192 7-9Z" fill="#697392"/><path d="M146 316c8.233-.433 13.687 1.452 20 7-5.75.125-5.75.125-8-1-1.663-.202-3.33-.364-5-.5-4.778-.389-4.778-.389-7-1.5v-4Z" fill="#62749C"/><path d="m311 332 1 3-4 2c.342 2.97.342 2.97 1 6l2 1-1 4c-1.813.625-1.813.625-4 1-3-2-3-2-3.965-4.293-.051-3.947 1.702-5.245 4.402-8.02l2.56-2.675L311 332Z" fill="#7988A0"/><path d="M261 332c.605 1.855.605 1.855 1 4-1.688 2.313-1.688 2.313-4 4-3.907 0-7.744-3.059-11-5 3.12-1.793 5.677-2.343 9.25-2.625l2.703-.227L261 332Z" fill="#B9C2DD"/><path d="M188 300c4.875 2.875 4.875 2.875 6 4 .04 2 .043 4 0 6h-9c-.366-4.273.592-6.488 3-10Z" fill="#BDC5E3"/><path d="M210 109h2c-2.03 8.121-7.792 14.601-14 20h-4c1.283-3.593 3.111-4.717 6.273-6.664 4.29-3.32 8.017-8.206 9.727-13.336Z" fill="#7E99D7"/><path d="m336 348 1.66.219c7.8.913 15.498.875 23.34.781l-1 2c-2.688.379-2.688.379-6 .563-3.817-.109-3.817-.109-7 1.437-4.791.342-8.493-.558-13-2l2-3Z" fill="#6784B8"/><path d="m389 349-1 4-3-2c-6.141-1.712-12.404-2.836-18.688-1.375C364 350 364 350 361 348c8.507-4.088 19.154-1.057 28 1Z" fill="#6885BA"/><path d="M224 337c9.706-.57 19.284 1.744 28 6l-1 4-2.063-1.313c-6.764-3.885-12.398-5.224-20.144-6.16C226 339 226 339 224 337Z" fill="#040D44"/><path d="M227 332c11.822-.453 20.115 1.312 30 8l-1 2c-3.025-1.068-5.384-2.259-8.063-4.063-4.632-3.055-8.68-3.143-14.187-3.5l-3.828-.253L227 334v-2Z" fill="#A4ADCE"/><path d="M322.625 335.875 326 336l-5 5 9-1-4 2a392.898 392.898 0 0 0-5 3l1 2h-3l1-5-3 1c-.125-2.375-.125-2.375 0-5 2-2 2-2 5.625-2.125Z" fill="#C8C9CF"/><path d="m94 302 5 3-1 6h13v1H94v-10Z" fill="#CBCFE7"/><path d="m318 218-2 3-2-1-2 2c-3 0-3 0-5-1l1-4-1.703.496c-2.428.533-4.566.603-7.047.566l-2.422-.027L295 218v-1c8.113-1.159 15.117-1.628 23 1Z" fill="#95B6F1"/><path d="M217 77h3l-1 4 3.063-1c3.692-1.07 7.09-1.157 10.937-1l-1 5-1-3-2 1c-2.204.23-4.414.41-6.625.563l-3.602.253L216 83l1-6Z" fill="#A1B3E8"/><path d="M385.875 314.813 388 316v5l-2 1v-3h-11c3.254-3.254 6.25-5.495 10.875-4.188Z" fill="#CDE4F8"/><path d="M116 309c.563 1.938.563 1.938 1 4-3.26 3.26-12.416 2.929-16.863 3.129-2.046-.003-4.092-.06-6.137-.129v-2l3.797-.332 4.953-.48 2.5-.213c5.937-.58 5.937-.58 10.75-3.975Z" fill="#61719A"/><path d="M379 322c3.625-.188 3.625-.188 7 0l-1.875.875c-2.258 1.062-2.258 1.062-4.125 3.125v3a125.01 125.01 0 0 0 4 3v2l5 1c-1.77.664-1.77.664-4 1-3.695-2.035-6.513-4.768-8.063-8.688C377 325 377 325 379 322Z" fill="#90BAF1"/><path d="m275 300 3 3h-26v-1c15.97-3.121 15.97-3.121 23-2Z" fill="#84ABE8"/><path d="M107 280a350.93 350.93 0 0 1 4.813-.125l2.707-.07C117 280 117 280 120 282c-1.563 1.563-1.563 1.563-4 3-3.625-.063-3.625-.063-7-1-1.21-2.059-1.21-2.059-2-4Z" fill="#E3ECF9"/><path d="M203 328c2.772.114 5.542.24 8.313.375.785.03 1.57.062 2.38.094l2.295.117 2.11.095C220 329 220 329 223 331v2c-6.787-.79-13.361-2.413-20-4v-1Z" fill="#607FB6"/><path d="m130.75 324.938 3.547.027L137 325v1c-6.837 1.781-13.016 2.252-20.063 2.125l-2.912-.027A897.315 897.315 0 0 1 107 328v-1l2.703-.184 3.547-.253 3.516-.247c3.054-.21 3.054-.21 5.234-.847 2.927-.686 5.751-.561 8.75-.531Z" fill="#24417B"/><path d="M191 321c3.375 2 3.375 2 6 4-3.138 1.569-6.266.561-9.625.063l-2.14-.303c-1.746-.248-3.49-.503-5.235-.76 3.3-3.3 6.509-3.44 11-3Z" fill="#6F9BD5"/><path d="m98 350 2 1v4c3.073.91 5.801 1.089 9 1-2.688 2.252-4.646 3.882-8 5-1.5-1-1.5-1-3-3-.273-2.718-.135-5.257 0-8Z" fill="#031852"/><path d="m153 311 1 3 3 3-11-1v-2l-2-2c3.073-.91 5.801-1.089 9-1Z" fill="#7A88AD"/><path d="M134 278a61.595 61.595 0 0 1 7.625-.188l2.14.042c1.746.035 3.49.089 5.235.146-5.358 3.572-10.766 3.122-17 3l2-3Z" fill="#4F83D2"/><path d="m236 294 10 1v2l1.875.938L252 300v2c-3.66-1.432-7.24-2.99-10.813-4.625l-2.957-1.352L236 295v-1Z" fill="#91B5EA"/><path d="m172 107 2 1-2.375 2.188c-4.015 4.697-4.036 10.887-4.625 16.812h-1c-2.028-11.332-2.028-11.332.492-15.422 1.755-1.705 3.492-3.195 5.508-4.578Z" fill="#6C89C9"/><path d="m311 332 1 3-4 2c.342 2.97.342 2.97 1 6l2 1-5 2c-.788-8.035-.788-8.035 2.5-12.063L311 332Z" fill="#8492A4"/><path d="m236 337 3.813-.125 2.144-.07C244 337 244 337 247 339v2l6 1v3l-1-2-2.438-.375c-4.82-.846-9.074-2.718-13.562-4.625v-1Z" fill="#506091"/><path d="m265 277-1.563.75c-2.343 1.152-2.343 1.152-4.085 2.309-4.744 2.993-4.744 2.993-8.29 2.691L249 282l1-2h3v-2c4.064-.774 7.864-1.098 12-1Z" fill="#6A9BE5"/><path d="m201 95 1 3h2c-.492 6.4-.492 6.4-3.063 9.438L199 109l-2-1 2-3a75.938 75.938 0 0 0 1.125-5.188l.508-2.73L201 95Z" fill="#8199D6"/><path d="M137 330c-6.897 5.882-6.897 5.882-11.5 6.375L123 336c8.992-7.67 8.992-7.67 14-6Z" fill="#010648"/><path d="M230 292v1c-12.485 3.629-12.485 3.629-19 2v-1c6.468-1.512 12.356-2.214 19-2Z" fill="#81A8E7"/><path d="m297 345 1 2h4v2h3v2a329.01 329.01 0 0 1-4.438-.375c-.823-.07-1.647-.14-2.496-.21L296 350l-1-2 2-3Z" fill="#4B5B81"/><path d="M328 335v1l-1.863.043c-5.2.166-5.2.166-9.137 3.207-.943 2.594-1.61 5.019-2 7.75h-1c-.476-7.135-.476-7.135 1.375-10.5 4.055-2.317 8.06-1.814 12.625-1.5Z" fill="#A9AFB9"/><path d="M349 211h14l-2 1v2l-2.082-.254-2.73-.309-2.708-.316c-2.614-.278-2.614-.278-5.48.879l1-3Z" fill="#7AA0E4"/><path d="M389 203v6l-2 1-1-4h-7c3.584-2.39 5.732-3 10-3Z" fill="#A2BCEE"/><path d="m354.48 344.926 2.707.387 2.731.363L362 346c-2 2-2 2-4.602 2.195l-3.023-.07-3.04-.055L349 348c1.79-2.314 2.489-2.985 5.48-3.074Z" fill="#D8DDF2"/><path d="m318 344 1 3c5.152.09 9.92-.153 15-1-3.412 2.275-5.657 2.566-9.688 3.125l-3.574.508L318 350v-6Z" fill="#B5BCD1"/><path d="m336.688 211.438 3.011.308L342 212v1c-6.026 1.071-11.89 1.1-18 1 4.55-2.354 7.562-3.105 12.688-2.563Z" fill="#D3E3FA"/><path d="M344 356a331.48 331.48 0 0 1 6.688-.25l3.761-.14c4.086.449 5.646 1.568 8.551 4.39-.926-.2-.926-.2-1.871-.402A157.546 157.546 0 0 0 344 357v-1Z" fill="#01115F"/><path d="M230 330c6.816-.333 11.921-.242 18 3v1c-6.082-.676-12.013-1.736-18-3v-1Z" fill="#C8CCE4"/><path d="M278 303h16l-5 5h-2l1-3-10-1v-1Z" fill="#8FA9D9"/><path d="m227 84 6 1-3 9c-1-4-1-4-1-6h-2v-4Z" fill="#9DB2E8"/><path d="m205 329 14 3c-3 2-3 2-5.191 1.793l-2.371-.606-2.38-.582C207 332 207 332 205 331v-2Z" fill="#13225A"/><path d="m141.164 310.559 2.461.878 2.477.872L148 313l-2 1v2c-2.169-.506-4-1-6-2v-2l-3-1c2-1 2-1 4.164-.441Z" fill="#6C7BA2"/><path d="m158 317 15 5v1c-6.116.5-9.07-.647-14-4l-1-2Z" fill="#7E8CAF"/><path d="M280 304h9l-2 7-4-1c0-2 0-2 1.5-3.625L286 305h-6v-1Z" fill="#D5DFEF"/><path d="m188 304 4 1-1 5-4-1 1-5Z" fill="#AFB8DA"/><path d="M185 131c-2.367 2.192-3.517 2.987-6.797 3.074l-2.953-.387-2.984-.363L170 133v-1c1.936-.363 3.874-.715 5.813-1.063l3.269-.597C182 130 182 130 185 131Z" fill="#6988C9"/><path d="m243 340 9 3-1 4c-3.536-1.911-5.79-3.626-8-7Z" fill="#131F57"/><path d="M315 330h2c-1.65 4.292-4.738 6.88-8 10l-2-1a8986.59 8986.59 0 0 1 3.438-3.938l1.933-2.214c.854-.97 1.716-1.935 2.629-2.848Z" fill="#95A0AD"/><path d="M148 323a364.73 364.73 0 0 1 4.875-.125l2.742-.07C158 323 158 323 160 325l-12 1v-3Z" fill="#011857"/><path d="m269 58 10 3v1h-8l-1 2-1-1v-5Z" fill="#D2DCFC"/><path d="m152 309-3 1-1 2h-6l-1-2c7.429-2.429 7.429-2.429 11-1Z" fill="#BAC1DF"/><path d="M271 62h7v3c-4.75 1.125-4.75 1.125-7 0v-3Z" fill="#E4EBFD"/><path d="m249 57 4 1-2 2c-.677 2.197-.677 2.197-1.125 4.625l-.508 2.477L249 69c-1.307-4.297-.66-7.602 0-12Z" fill="#CFD8FA"/><path d="m276 301 2 2-13-1v-1c3.991-.835 7.067-1.202 11 0Z" fill="#9BBBE8"/><path d="m368 209-5 5-2-2c-2.57-.648-2.57-.648-5-1v-1c4.041-.634 7.907-1.124 12-1Z" fill="#8FB1E9"/><path d="m335 312 2 1c-1.059 3.403-2.009 6.014-4 9-.195-6.055-.195-6.055 0-8l2-2Z" fill="#BEC5C9"/><path d="M210.188 91.375 212 92l-2.313 1.313C207.42 94.737 205.78 96.032 204 98c.313-2.375.313-2.375 1-5 3-2 3-2 5.188-1.625Z" fill="#90A4DF"/></svg>